<svg width="50" height="49" viewBox="0 0 50 49" fill="none" xmlns="http://www.w3.org/2000/svg">
<path d="M21.0373 10.3169C21.6521 8.04553 22.9433 5.9545 24.9112 4.04375C26.6428 2.3623 28.4613 1.22449 30.3665 0.630321C31.5875 0.265502 32.7802 0.134881 33.9446 0.238457C35.1365 0.344487 35.8642 1.46329 35.7702 2.6234C35.6453 4.16599 34.0978 5.18289 32.5428 5.51293C31.1607 5.80627 29.8595 6.54541 28.6392 7.73034C27.0059 9.31625 26.3435 11.082 26.652 13.0277C26.9606 14.9734 28.2303 17.0322 30.4614 19.204C32.712 21.395 34.828 22.6321 36.8092 22.9155C38.8297 23.1988 40.6763 22.5284 42.3489 20.9043C43.5203 19.767 44.2504 18.5254 44.5392 17.1798C44.864 15.6668 45.9154 14.1848 47.5004 14.0655C48.7066 13.9746 49.8707 14.6915 49.9713 15.8637C50.0674 16.9832 49.9223 18.1258 49.536 19.2914C48.942 21.1621 47.7792 22.9381 46.0475 24.6196C44.0797 26.5303 41.9273 27.7831 39.5903 28.3778C37.6199 28.8793 35.6231 28.8926 33.5996 28.4176L31.2586 28.0555C29.7446 27.8214 28.4363 29.0917 28.6752 30.564L29.0237 32.7122C29.0254 32.7226 29.0181 32.7324 29.0074 32.734C28.996 32.7358 28.9886 32.7467 28.9914 32.7576C29.5049 34.7625 29.4978 36.74 28.97 38.6901C28.3553 40.9614 27.064 43.0524 25.0962 44.9632C23.3645 46.6446 21.5362 47.7729 19.6114 48.348C18.412 48.7221 17.2366 48.8617 16.0852 48.7669C14.8797 48.6676 14.1439 47.5349 14.2388 46.3622C14.3637 44.8214 15.8893 43.8011 17.4459 43.4873C18.8303 43.2082 20.1082 42.5 21.2796 41.3626C22.9522 39.7385 23.6441 37.944 23.3553 35.9792C23.0664 34.0526 21.7966 31.9938 19.5459 29.8029C17.3149 27.631 15.1989 26.3938 13.1981 26.0914C11.1973 25.789 9.38023 26.4307 7.74694 28.0166C6.52662 29.2016 5.76471 30.4657 5.46122 31.8091C5.11978 33.3204 4.07185 34.8236 2.48506 34.9431C1.2917 35.033 0.141884 34.3241 0.0343517 33.1651C-0.070695 32.033 0.0651813 30.8736 0.441977 29.6869C1.05555 27.8354 2.22817 26.0688 3.95985 24.3874C5.92767 22.4766 8.08007 21.2239 10.417 20.6291C12.3807 20.1293 14.3639 20.1077 16.3664 20.5644L16.7302 20.6206C19.2598 21.0118 21.4457 18.8893 21.0465 16.4295C20.8263 15.6076 20.6568 14.5631 20.6114 13.7481C20.5706 12.5988 20.73 11.4524 21.0373 10.3169Z" fill="white"/>
<path d="M34.7563 10.3146C33.6337 9.23628 31.8135 9.23628 30.6909 10.3146C29.5682 11.3929 29.5682 13.1413 30.6909 14.2196L35.7727 19.1008C36.8953 20.1792 38.7155 20.1792 39.8381 19.1008C40.9608 18.0225 40.9608 16.2742 39.8381 15.1958L34.7563 10.3146Z" fill="#01B9CA"/>
<path d="M13.5406 30.755C12.431 29.6767 10.632 29.6767 9.52238 30.755C8.41279 31.8334 8.41279 33.5817 9.52238 34.66L14.5451 39.5413C15.6547 40.6196 17.4537 40.6196 18.5633 39.5413C19.6729 38.4629 19.6729 36.7146 18.5633 35.6363L13.5406 30.755Z" fill="#01B9CA"/>
</svg>
