<svg xmlns="http://www.w3.org/2000/svg" width="8" height="8" viewBox="0 0 8 8" fill="none">
<path d="M3.28789 6.78825C3.28789 7.18134 3.60655 7.5 3.99964 7.5C4.39274 7.5 4.7114 7.18134 4.7114 6.78825V4.7114H6.78825C7.18134 4.7114 7.5 4.39274 7.5 3.99964C7.5 3.60655 7.18134 3.28789 6.78825 3.28789H4.7114V1.21175C4.7114 0.818662 4.39274 0.5 3.99964 0.5C3.60655 0.5 3.28789 0.818662 3.28789 1.21175V3.28789H1.21175C0.818662 3.28789 0.5 3.60655 0.5 3.99964C0.5 4.39274 0.818662 4.7114 1.21175 4.7114H3.28789V6.78825Z" fill="white"/>
</svg>