<svg width="61" height="61" viewBox="0 0 61 61" fill="none" xmlns="http://www.w3.org/2000/svg">
<path d="M12.6038 48.2375H43.6837C44.3053 48.2375 44.7715 47.9523 45.0823 47.3819C45.3931 46.8114 45.3413 46.2669 44.9269 45.7484L36.38 34.314C36.0692 33.8992 35.6548 33.6918 35.1368 33.6918C34.6188 33.6918 34.2044 33.8992 33.8936 34.314L28.0536 42.1279C26.9345 43.6253 24.6918 43.6248 23.5734 42.1269L20.063 37.4254C19.7522 37.0106 19.3378 36.8032 18.8198 36.8032C18.3018 36.8032 17.8874 37.0106 17.5766 37.4254L11.3606 45.7484C10.9462 46.2669 10.8944 46.8114 11.2052 47.3819C11.516 47.9523 11.9822 48.2375 12.6038 48.2375Z" fill="white"/>
<path d="M6.38786 60.683C4.67846 60.683 3.2146 60.0742 1.99627 58.8566C0.780005 57.637 0.171875 56.1715 0.171875 54.4602V10.9009C0.171875 9.18963 0.780005 7.72417 1.99627 6.5045C3.2146 5.28692 4.67846 4.67812 6.38786 4.67812L19.841 4.67701C21.5598 4.67687 22.9532 6.07018 22.9532 7.78895V7.78895C22.9532 9.50763 21.5599 10.9009 19.8413 10.9009H9.18505C7.6402 10.9009 6.38786 12.1546 6.38786 13.7011V51.66C6.38786 53.2065 7.6402 54.4602 9.18505 54.4602H47.1025C48.6474 54.4602 49.8997 53.2065 49.8997 51.66V40.9613C49.8997 39.2448 51.2912 37.8533 53.0077 37.8533V37.8533C54.7242 37.8533 56.1157 39.2448 56.1157 40.9613V54.4602C56.1157 56.1715 55.5076 57.637 54.2913 58.8566C53.073 60.0742 51.6091 60.683 49.8997 60.683H6.38786Z" fill="white"/>
<path d="M47.8536 4.3822C47.8536 2.33898 46.199 0.682617 44.1581 0.682617C42.1171 0.682617 40.4625 2.33898 40.4625 4.3822V12.9814H31.8396C29.7986 12.9814 28.144 14.6377 28.144 16.6809C28.144 18.7242 29.7986 20.3805 31.8396 20.3805H40.4625V28.9797C40.4625 31.0229 42.1171 32.6793 44.1581 32.6793C46.199 32.6793 47.8536 31.0229 47.8536 28.9797V20.3805H56.4765C58.5175 20.3805 60.1721 18.7242 60.1721 16.6809C60.1721 14.6377 58.5175 12.9814 56.4765 12.9814H47.8536V4.3822Z" fill="white"/>
</svg>
