<svg width="12" height="12" viewBox="0 0 12 12" fill="none" xmlns="http://www.w3.org/2000/svg">
<path d="M0.32529 8.29582C-0.0823289 8.66846 -0.11068 9.30099 0.261966 9.70861C0.634612 10.1162 1.26714 10.1446 1.67476 9.77194L0.32529 8.29582ZM3.97032 6.31843L4.64506 7.05649L4.64509 7.05646L3.97032 6.31843ZM4.70727 6.30618L4.05746 7.06628L4.05749 7.0663L4.70727 6.30618ZM7.57245 10.071C7.99225 10.4299 8.62349 10.3805 8.98235 9.96069C9.34122 9.54088 9.29181 8.90965 8.87201 8.55079L7.57245 10.071ZM6.40497 7.2177C6.01392 7.6077 6.01306 8.24086 6.40306 8.63191C6.79306 9.02296 7.42623 9.02381 7.81728 8.63381L6.40497 7.2177ZM8.43709 6.60335L7.73094 5.89529V5.89529L8.43709 6.60335ZM9.16325 6.55191L9.76222 5.75113L9.7622 5.75112L9.16325 6.55191ZM10.401 8.72653C10.8433 9.05733 11.47 8.96698 11.8008 8.52472C12.1316 8.08246 12.0412 7.45578 11.599 7.12498L10.401 8.72653ZM7.66668 1.66218C7.11439 1.66218 6.66668 2.1099 6.66668 2.66218C6.66668 3.21447 7.11439 3.66218 7.66668 3.66218V1.66218ZM11 3.66218C11.5523 3.66218 12 3.21447 12 2.66218C12 2.1099 11.5523 1.66218 11 1.66218V3.66218ZM10.3333 1C10.3333 0.447715 9.88562 0 9.33334 0C8.78105 0 8.33334 0.447715 8.33334 1H10.3333ZM8.33334 4.32436C8.33334 4.87665 8.78105 5.32436 9.33334 5.32436C9.88562 5.32436 10.3333 4.87665 10.3333 4.32436H8.33334ZM6.48024 2.02685C7.03252 2.02685 7.48024 1.57914 7.48024 1.02685C7.48024 0.474567 7.03252 0.0268517 6.48024 0.0268517V2.02685ZM12 5.51808C12 4.9658 11.5523 4.51808 11 4.51808C10.4477 4.51808 9.99998 4.9658 9.99998 5.51808H12ZM1.67476 9.77194L4.64506 7.05649L3.29559 5.58037L0.32529 8.29582L1.67476 9.77194ZM4.64509 7.05646C4.47957 7.20779 4.2278 7.21191 4.05746 7.06628L5.35707 5.54608C4.75995 5.03561 3.87541 5.05025 3.29556 5.58039L4.64509 7.05646ZM4.05749 7.0663L7.57245 10.071L8.87201 8.55079L5.35705 5.54606L4.05749 7.0663ZM7.81728 8.63381L9.14324 7.31141L7.73094 5.89529L6.40497 7.2177L7.81728 8.63381ZM9.14324 7.31141C8.98683 7.46741 8.74054 7.48451 8.5643 7.35269L9.7622 5.75112C9.14358 5.28842 8.2783 5.3494 7.73094 5.89529L9.14324 7.31141ZM8.56429 7.35268L10.401 8.72653L11.599 7.12498L9.76222 5.75113L8.56429 7.35268ZM7.66668 3.66218H11V1.66218H7.66668V3.66218ZM8.33334 1V4.32436H10.3333V1H8.33334ZM10.1666 10H1.83333V12H10.1666V10ZM2 10.1689V1.85794H0V10.1689H2ZM1.83333 2.02685H6.48024V0.0268517H1.83333V2.02685ZM9.99998 5.51808V10.1689H12V5.51808H9.99998ZM1.83333 10C1.92284 10 2 10.0731 2 10.1689H0C0 11.1827 0.82335 12 1.83333 12V10ZM10.1666 12C11.1766 12 12 11.1827 12 10.1689H9.99998C9.99998 10.0731 10.0771 10 10.1666 10V12ZM2 1.85794C2 1.95377 1.92284 2.02685 1.83333 2.02685V0.0268517C0.823351 0.0268517 0 0.844121 0 1.85794H2Z" fill="white"/>
</svg>
