<svg width="8" height="9" viewBox="0 0 8 9" fill="none" xmlns="http://www.w3.org/2000/svg">
<path d="M5.80808 7.23983C6.11073 7.23983 6.35607 6.99449 6.35607 6.69185C6.35607 6.38921 6.11073 6.14387 5.80808 6.14387C5.50544 6.14387 5.2601 6.38921 5.2601 6.69185C5.2601 6.99449 5.50544 7.23983 5.80808 7.23983Z" fill="white"/>
<path d="M7.93891 6.5491C7.76962 6.11781 7.47748 5.74568 7.09871 5.47883C6.71994 5.21198 6.27119 5.06215 5.80808 5.04791C5.34498 5.06215 4.89623 5.21198 4.51746 5.47883C4.13869 5.74568 3.84655 6.11781 3.67726 6.5491L3.61616 6.69185L3.67726 6.8346C3.84655 7.26589 4.13869 7.63802 4.51746 7.90487C4.89623 8.17172 5.34498 8.32155 5.80808 8.33579C6.27119 8.32155 6.71994 8.17172 7.09871 7.90487C7.47748 7.63802 7.76962 7.26589 7.93891 6.8346L8.00001 6.69185L7.93891 6.5491ZM5.80808 7.78781C5.59132 7.78781 5.37943 7.72354 5.1992 7.60311C5.01897 7.48268 4.8785 7.31152 4.79555 7.11126C4.7126 6.911 4.69089 6.69063 4.73318 6.47804C4.77547 6.26544 4.87985 6.07016 5.03312 5.91689C5.1864 5.76362 5.38168 5.65924 5.59427 5.61695C5.80687 5.57466 6.02723 5.59636 6.22749 5.67931C6.42775 5.76226 6.59892 5.90274 6.71934 6.08297C6.83977 6.2632 6.90405 6.47509 6.90405 6.69185C6.90368 6.98241 6.7881 7.26096 6.58265 7.46641C6.37719 7.67187 6.09864 7.78745 5.80808 7.78781ZM1.69823 4.77392H3.06818V5.3219H1.69823V4.77392ZM1.69823 3.40397H4.98611V3.95195H1.69823V3.40397ZM1.69823 2.03401H4.98611V2.582H1.69823V2.03401Z" fill="white"/>
<path d="M5.80808 0.664062H0.876258C0.731058 0.664496 0.591929 0.722369 0.489256 0.825041C0.386584 0.927714 0.328711 1.06684 0.328278 1.21204V7.78781C0.328711 7.93301 0.386584 8.07214 0.489256 8.17481C0.591929 8.27749 0.731058 8.33536 0.876258 8.33579H3.06818V7.78781H0.876258V1.21204H5.80808V4.22594H6.35607V1.21204C6.35563 1.06684 6.29776 0.927714 6.19509 0.825041C6.09241 0.722369 5.95329 0.664496 5.80808 0.664062Z" fill="white"/>
</svg>
