<svg width="10" height="5" viewBox="0 0 10 5" fill="none" xmlns="http://www.w3.org/2000/svg">
<path fill-rule="evenodd" clip-rule="evenodd" d="M0.645917 0.145917C0.692363 0.0993537 0.747538 0.0624112 0.808284 0.0372047C0.869029 0.0119983 0.93415 -0.000976562 0.999917 -0.000976562C1.06568 -0.000976562 1.13081 0.0119983 1.19155 0.0372047C1.2523 0.0624112 1.30747 0.0993537 1.35392 0.145917L4.99992 3.79292L8.64592 0.145917C8.7398 0.0520303 8.86714 -0.000714302 8.99992 -0.000714302C9.13269 -0.000714302 9.26003 0.0520303 9.35392 0.145917C9.4478 0.239804 9.50055 0.367141 9.50055 0.499917C9.50055 0.632693 9.4478 0.76003 9.35392 0.853917L5.35392 4.85392C5.30747 4.90048 5.2523 4.93742 5.19155 4.96263C5.13081 4.98784 5.06568 5.00081 4.99992 5.00081C4.93415 5.00081 4.86903 4.98784 4.80828 4.96263C4.74754 4.93742 4.69236 4.90048 4.64592 4.85392L0.645917 0.853917C0.599354 0.807471 0.562411 0.752295 0.537205 0.69155C0.511998 0.630805 0.499023 0.565684 0.499023 0.499917C0.499023 0.43415 0.511998 0.369029 0.537205 0.308284C0.562411 0.247539 0.599354 0.192363 0.645917 0.145917Z" fill="white"/>
</svg>
