<svg width="12" height="14" viewBox="0 0 12 14" fill="none" xmlns="http://www.w3.org/2000/svg">
<path d="M10.9847 10.6877L11.2339 11.0198C11.2687 11.0661 11.2898 11.1211 11.295 11.1787C11.3002 11.2364 11.2892 11.2943 11.2634 11.3461C11.2375 11.3978 11.1977 11.4413 11.1485 11.4717C11.0993 11.5022 11.0426 11.5183 10.9847 11.5183H1.01534C0.957482 11.5183 0.900768 11.5022 0.851552 11.4717C0.802335 11.4413 0.762561 11.3978 0.736687 11.3461C0.710812 11.2943 0.699859 11.2364 0.705055 11.1787C0.710251 11.1211 0.731391 11.0661 0.766105 11.0198L1.01534 10.6877V5.28742C1.01534 3.9654 1.54051 2.69752 2.47532 1.76271C3.41013 0.827905 4.678 0.302734 6.00002 0.302734C7.32204 0.302734 8.58991 0.827905 9.52472 1.76271C10.4595 2.69752 10.9847 3.9654 10.9847 5.28742V10.6877ZM4.44231 12.1414H7.55773C7.55773 12.5545 7.39362 12.9507 7.10149 13.2428C6.80936 13.535 6.41315 13.6991 6.00002 13.6991C5.58689 13.6991 5.19068 13.535 4.89855 13.2428C4.60642 12.9507 4.44231 12.5545 4.44231 12.1414Z" fill="white"/>
</svg>
