<svg width="8" height="10" viewBox="0 0 8 10" fill="none" xmlns="http://www.w3.org/2000/svg">
<path d="M7.44987 4.88981L2.78151 9.89162C2.75125 9.92585 2.71403 9.95323 2.67234 9.97192C2.63065 9.99061 2.58544 10.0002 2.53976 10C2.48615 9.99946 2.43339 9.98663 2.38553 9.96248C2.32204 9.92823 2.27119 9.87454 2.24044 9.80928C2.20968 9.74402 2.20064 9.67062 2.21464 9.59985L2.82319 6.54458L0.422321 5.64425C0.371025 5.62435 0.325291 5.59236 0.289007 5.55099C0.252723 5.50963 0.226962 5.46012 0.213913 5.40666C0.20123 5.35302 0.202217 5.29705 0.216781 5.24389C0.231346 5.19073 0.259024 5.14208 0.297276 5.10239L4.96564 0.100574C5.01547 0.049507 5.08036 0.01577 5.15079 0.0043211C5.22122 -0.00712778 5.29346 0.00431522 5.3569 0.0369685C5.42034 0.0696218 5.47163 0.121763 5.50324 0.185731C5.53485 0.249698 5.54511 0.322117 5.53251 0.392347L4.92395 3.45179L7.32482 4.35212C7.37637 4.37083 7.42243 4.40212 7.45881 4.44315C7.4952 4.48417 7.52076 4.53364 7.53318 4.58705C7.5456 4.64046 7.54449 4.69613 7.52994 4.749C7.51539 4.80187 7.48787 4.85027 7.44987 4.88981Z" fill="white"/>
</svg>
