<svg width="15" height="15" viewBox="0 0 15 15" fill="none" xmlns="http://www.w3.org/2000/svg">
<path d="M12.0193 14.9999C11.3656 14.9999 10.4473 14.7635 9.07223 13.9954C7.40012 13.0579 6.10678 12.1924 4.44371 10.534C2.84026 8.93183 2.05997 7.89454 0.967892 5.90768C-0.265842 3.66435 -0.0555315 2.48845 0.179561 1.98587C0.459529 1.3852 0.872783 1.02593 1.40693 0.66934C1.71033 0.4706 2.03139 0.300235 2.36606 0.160406C2.39955 0.146008 2.43069 0.13228 2.45849 0.119892C2.62426 0.0452256 2.87542 -0.0676106 3.19357 0.0529266C3.40589 0.132615 3.59544 0.295675 3.89215 0.588647C4.50065 1.18865 5.33218 2.52494 5.63894 3.1812C5.84489 3.62351 5.98119 3.91547 5.98153 4.24293C5.98153 4.62631 5.78863 4.92196 5.55454 5.24105C5.51067 5.30098 5.46714 5.35824 5.42494 5.41382C5.17009 5.74864 5.11416 5.84541 5.151 6.01818C5.22568 6.36539 5.7826 7.399 6.69786 8.31207C7.61311 9.22514 8.61711 9.74679 8.96573 9.82112C9.1459 9.85963 9.2447 9.80137 9.5903 9.53753C9.63987 9.49969 9.69077 9.46052 9.74402 9.42134C10.101 9.15583 10.383 8.96799 10.7574 8.96799H10.7594C11.0853 8.96799 11.3642 9.10929 11.8264 9.34232C12.4292 9.64635 13.8059 10.467 14.4097 11.0761C14.7034 11.372 14.8672 11.5609 14.9472 11.7728C15.0678 12.0919 14.9542 12.342 14.8802 12.5094C14.8678 12.5372 14.8541 12.5677 14.8397 12.6015C14.6987 12.9355 14.5273 13.2558 14.3277 13.5584C13.9717 14.0908 13.611 14.503 13.0089 14.7832C12.6997 14.9295 12.3613 15.0035 12.0193 14.9999Z" fill="white"/>
</svg>
