<svg width="38" height="39" viewBox="0 0 38 39" fill="none" xmlns="http://www.w3.org/2000/svg">
<path d="M1.5 36.8333H5.38889V21.2778V18.803V5.7222C5.38889 4.6908 6.52792 2.97234 6.52792 2.97234C7.25723 2.24303 8.24638 1.83331 9.27778 1.83331H28.7222C29.7536 1.83331 30.7428 2.24303 31.4721 2.97234C32.2014 3.70165 32.6111 4.6908 32.6111 5.7222V36.8333H36.5M13.1667 29.0555C13.1667 28.0241 13.5764 27.035 14.3057 26.3057C15.035 25.5764 16.0242 25.1666 17.0556 25.1666H20.9444C21.9758 25.1666 22.965 25.5764 23.6943 26.3057C24.4236 27.035 24.8333 28.0241 24.8333 29.0555V36.8333H13.1667V33.6515M15.1111 13.5H22.8889M19 9.61109V17.3889" stroke="white" stroke-width="3" stroke-linecap="round" stroke-linejoin="round"/>
</svg>
