<svg width="12" height="13" viewBox="0 0 12 13" fill="none" xmlns="http://www.w3.org/2000/svg">
<path d="M5.72685 12.2271C4.59419 12.2271 3.48696 11.8913 2.54519 11.262C1.60341 10.6327 0.869385 9.73831 0.435933 8.69186C0.00248135 7.64542 -0.110929 6.49394 0.110042 5.38304C0.331014 4.27214 0.876444 3.25171 1.67736 2.4508C2.47827 1.64988 3.4987 1.10445 4.6096 0.88348C5.7205 0.662508 6.87198 0.775919 7.91843 1.20937C8.96487 1.64282 9.85928 2.37685 10.4886 3.31862C11.1178 4.2604 11.4537 5.36763 11.4537 6.50029C11.4537 8.01915 10.8503 9.47579 9.77635 10.5498C8.70236 11.6238 7.24571 12.2271 5.72685 12.2271ZM5.72685 1.59156C4.756 1.59156 3.80695 1.87945 2.99971 2.41883C2.19247 2.95821 1.56331 3.72485 1.19178 4.6218C0.820249 5.51876 0.72304 6.50574 0.912444 7.45794C1.10185 8.41014 1.56936 9.28479 2.25586 9.97129C2.94236 10.6578 3.81701 11.1253 4.76921 11.3147C5.72141 11.5041 6.70839 11.4069 7.60534 11.0354C8.5023 10.6638 9.26893 10.0347 9.80831 9.22744C10.3477 8.4202 10.6356 7.47115 10.6356 6.50029C10.6356 5.19842 10.1184 3.94986 9.19785 3.0293C8.27728 2.10873 7.02873 1.59156 5.72685 1.59156Z" fill="#BDBDBD"/>
<path d="M7.60444 8.95466L5.31779 6.66801V2.81874H6.13591V6.32849L8.18122 8.37788L7.60444 8.95466Z" fill="#BDBDBD"/>
</svg>
