<svg width="101" height="61" viewBox="0 0 101 61" fill="none" xmlns="http://www.w3.org/2000/svg">
<ellipse cx="52.8499" cy="55.903" rx="44.846" ry="4.38733" fill="black" fill-opacity="0.2"/>
<mask id="path-2-inside-1_11073_15790" fill="white">
<path fill-rule="evenodd" clip-rule="evenodd" d="M93.021 38.2734C93.0371 38.113 93.0452 37.9517 93.0452 37.7895C93.0452 31.7238 81.6664 26.8066 67.63 26.8066C53.5936 26.8066 42.2148 31.7238 42.2148 37.7895C42.2148 37.875 42.2171 37.9603 42.2216 38.0453L42.2148 38.0453C42.2148 38.0453 42.2164 44.8115 42.2164 46.2176C42.2164 52.349 53.5948 57.3195 67.6308 57.3195C81.6668 57.3195 93.0452 52.349 93.0452 46.2176V38.2735L93.021 38.2734Z"/>
</mask>
<path fill-rule="evenodd" clip-rule="evenodd" d="M93.021 38.2734C93.0371 38.113 93.0452 37.9517 93.0452 37.7895C93.0452 31.7238 81.6664 26.8066 67.63 26.8066C53.5936 26.8066 42.2148 31.7238 42.2148 37.7895C42.2148 37.875 42.2171 37.9603 42.2216 38.0453L42.2148 38.0453C42.2148 38.0453 42.2164 44.8115 42.2164 46.2176C42.2164 52.349 53.5948 57.3195 67.6308 57.3195C81.6668 57.3195 93.0452 52.349 93.0452 46.2176V38.2735L93.021 38.2734Z" fill="#F6C544"/>
<path d="M93.021 38.2734L92.026 38.1736L91.9161 39.2684L93.0165 39.2734L93.021 38.2734ZM42.2216 38.0453L42.2171 39.0453L43.2761 39.0501L43.2202 37.9925L42.2216 38.0453ZM42.2148 38.0453L42.2194 37.0453L41.2146 37.0407L41.2148 38.0455L42.2148 38.0453ZM93.0452 38.2735H94.0452V37.278L93.0497 37.2735L93.0452 38.2735ZM92.0452 37.7895C92.0452 37.9182 92.0387 38.0462 92.026 38.1736L94.016 38.3732C94.0354 38.1798 94.0452 37.9851 94.0452 37.7895H92.0452ZM67.63 27.8066C74.5451 27.8066 80.7579 29.0198 85.2046 30.9414C87.4296 31.9029 89.1667 33.0221 90.3333 34.214C91.4955 35.4014 92.0452 36.6083 92.0452 37.7895H94.0452C94.0452 35.9379 93.1726 34.2556 91.7626 32.815C90.357 31.379 88.3722 30.1315 85.9979 29.1055C81.2461 27.0521 74.7514 25.8066 67.63 25.8066V27.8066ZM43.2148 37.7895C43.2148 36.6083 43.7646 35.4014 44.9267 34.214C46.0933 33.0221 47.8305 31.9029 50.0555 30.9414C54.5021 29.0198 60.7149 27.8066 67.63 27.8066V25.8066C60.5087 25.8066 54.0139 27.0521 49.2621 29.1055C46.8878 30.1315 44.903 31.379 43.4974 32.815C42.0875 34.2556 41.2148 35.9379 41.2148 37.7895H43.2148ZM43.2202 37.9925C43.2166 37.925 43.2148 37.8574 43.2148 37.7895H41.2148C41.2148 37.8927 41.2176 37.9955 41.223 38.0981L43.2202 37.9925ZM42.2103 39.0453L42.2171 39.0453L42.2261 37.0453L42.2194 37.0453L42.2103 39.0453ZM43.2164 46.2176C43.2164 45.5144 43.216 43.4712 43.2156 41.6039C43.2154 40.6703 43.2152 39.7806 43.2151 39.1243C43.215 38.7961 43.2149 38.5263 43.2149 38.3385C43.2149 38.2447 43.2149 38.1713 43.2149 38.1214C43.2149 38.0964 43.2149 38.0774 43.2148 38.0645C43.2148 38.0581 43.2148 38.0532 43.2148 38.05C43.2148 38.0483 43.2148 38.0471 43.2148 38.0463C43.2148 38.0459 43.2148 38.0456 43.2148 38.0454C43.2148 38.0453 43.2148 38.0452 43.2148 38.0451C43.2148 38.0451 43.2148 38.0451 42.2148 38.0453C41.2148 38.0455 41.2148 38.0455 41.2148 38.0456C41.2148 38.0456 41.2148 38.0457 41.2148 38.0458C41.2148 38.046 41.2148 38.0463 41.2148 38.0467C41.2148 38.0476 41.2148 38.0488 41.2148 38.0504C41.2148 38.0537 41.2148 38.0585 41.2148 38.0649C41.2149 38.0778 41.2149 38.0969 41.2149 38.1218C41.2149 38.1717 41.2149 38.2451 41.2149 38.339C41.215 38.5267 41.215 38.7965 41.2151 39.1247C41.2152 39.781 41.2154 40.6707 41.2156 41.6043C41.216 43.4717 41.2164 45.5147 41.2164 46.2176H43.2164ZM67.6308 56.3195C60.7172 56.3195 54.5059 55.0934 50.0604 53.1514C47.8361 52.1798 46.099 51.0486 44.932 49.8433C43.7695 48.6428 43.2164 47.419 43.2164 46.2176H41.2164C41.2164 48.0818 42.0855 49.7787 43.4951 51.2345C44.9002 52.6857 46.8849 53.9468 49.2598 54.9842C54.0125 57.0603 60.5084 58.3195 67.6308 58.3195V56.3195ZM92.0452 46.2176C92.0452 47.419 91.492 48.6428 90.3296 49.8433C89.1625 51.0486 87.4254 52.1798 85.2012 53.1514C80.7557 55.0934 74.5444 56.3195 67.6308 56.3195V58.3195C74.7532 58.3195 81.2491 57.0603 86.0018 54.9842C88.3766 53.9468 90.3614 52.6857 91.7664 51.2345C93.1761 49.7787 94.0452 48.0818 94.0452 46.2176H92.0452ZM92.0452 38.2735V46.2176H94.0452V38.2735H92.0452ZM93.0165 39.2734L93.0407 39.2735L93.0497 37.2735L93.0255 37.2734L93.0165 39.2734Z" fill="#0B2C44" fill-opacity="0.76" mask="url(#path-2-inside-1_11073_15790)"/>
<path d="M92.5716 37.7895C92.5716 39.1383 91.9411 40.4642 90.717 41.7148C89.4906 42.9678 87.6916 44.119 85.4293 45.0966C80.9063 47.0512 74.623 48.2724 67.6564 48.2724C60.6897 48.2724 54.4064 47.0512 49.8835 45.0966C47.6212 44.119 45.8221 42.9678 44.5958 41.7148C43.3717 40.4642 42.7412 39.1383 42.7412 37.7895C42.7412 36.4407 43.3717 35.1149 44.5958 33.8642C45.8221 32.6113 47.6212 31.4601 49.8835 30.4824C54.4064 28.5279 60.6897 27.3066 67.6564 27.3066C74.623 27.3066 80.9063 28.5279 85.4293 30.4824C87.6916 31.4601 89.4906 32.6113 90.717 33.8642C91.9411 35.1149 92.5716 36.4407 92.5716 37.7895Z" stroke="#0B2C44" stroke-opacity="0.76"/>
<ellipse cx="67.6565" cy="37.9795" rx="23.0095" ry="8.88961" fill="#F6C544"/>
<path d="M90.166 37.9795C90.166 39.0184 89.623 40.0636 88.5206 41.0705C87.418 42.0777 85.7947 43.0076 83.7465 43.799C79.6534 45.3803 73.9649 46.3691 67.6565 46.3691C61.3482 46.3691 55.6596 45.3803 51.5665 43.799C49.5183 43.0076 47.895 42.0777 46.7924 41.0705C45.69 40.0636 45.147 39.0184 45.147 37.9795C45.147 36.9405 45.69 35.8953 46.7924 34.8884C47.895 33.8812 49.5183 32.9513 51.5665 32.16C55.6596 30.5786 61.3482 29.5898 67.6565 29.5898C73.9649 29.5898 79.6534 30.5786 83.7465 32.16C85.7947 32.9513 87.418 33.8812 88.5206 34.8884C89.623 35.8953 90.166 36.9405 90.166 37.9795Z" stroke="#0B2C44" stroke-opacity="0.76"/>
<path d="M67.4744 29.5039C55.0781 29.5039 45.0288 33.3864 45.0288 38.1757C54.9184 31.6529 63.1018 30.0918 82.8889 31.8722C78.8682 30.4041 73.4434 29.5039 67.4744 29.5039Z" fill="#FF5B15" fill-opacity="0.29"/>
<line x1="46.8823" y1="43.7139" x2="46.7991" y2="52.1255" stroke="black"/>
<line x1="44.3467" y1="41.6592" x2="44.2635" y2="50.0708" stroke="black"/>
<line x1="46.8823" y1="43.7139" x2="46.7991" y2="52.1255" stroke="black"/>
<line x1="49.833" y1="45.3799" x2="49.7498" y2="53.7915" stroke="black"/>
<line x1="53.4336" y1="46.6378" x2="53.3504" y2="55.0494" stroke="black"/>
<line x1="57.9521" y1="47.796" x2="57.8689" y2="56.2076" stroke="black"/>
<line x1="62.6162" y1="48.4249" x2="62.533" y2="56.8365" stroke="black"/>
<line x1="67.1333" y1="48.6182" x2="67.0501" y2="57.0298" stroke="black"/>
<line x1="71.4599" y1="48.6182" x2="71.3767" y2="57.0298" stroke="black"/>
<line x1="76.2925" y1="48.0381" x2="76.2093" y2="56.4497" stroke="black"/>
<line x1="80.352" y1="47.1924" x2="80.2688" y2="55.604" stroke="black"/>
<line x1="84.4101" y1="46.0323" x2="84.3269" y2="54.4439" stroke="black"/>
<line x1="88.2046" y1="44.2686" x2="88.1214" y2="52.6802" stroke="black"/>
<line x1="91.3945" y1="41.8272" x2="91.3113" y2="50.2388" stroke="black"/>
<line x1="44.3467" y1="41.6592" x2="44.2635" y2="50.0708" stroke="#445044"/>
<line x1="46.8823" y1="43.7139" x2="46.7991" y2="52.1255" stroke="#445044"/>
<line x1="49.833" y1="45.3799" x2="49.7498" y2="53.7915" stroke="#445044"/>
<line x1="53.4336" y1="46.6378" x2="53.3504" y2="55.0494" stroke="#445044"/>
<line x1="57.9521" y1="47.796" x2="57.8689" y2="56.2076" stroke="#445044"/>
<line x1="62.6162" y1="48.4249" x2="62.533" y2="56.8365" stroke="#445044"/>
<line x1="67.1333" y1="48.6182" x2="67.0501" y2="57.0298" stroke="#445044"/>
<line x1="71.4599" y1="48.6182" x2="71.3767" y2="57.0298" stroke="#445044"/>
<line x1="76.2925" y1="48.0381" x2="76.2093" y2="56.4497" stroke="#445044"/>
<line x1="76.2925" y1="48.0381" x2="76.2093" y2="56.4497" stroke="#445044"/>
<line x1="80.352" y1="47.1924" x2="80.2688" y2="55.604" stroke="#445044"/>
<line x1="84.4101" y1="46.0323" x2="84.3269" y2="54.4439" stroke="#445044"/>
<line x1="88.2046" y1="44.2686" x2="88.1214" y2="52.6802" stroke="#445044"/>
<line x1="91.3945" y1="41.8272" x2="91.3113" y2="50.2388" stroke="#445044"/>
<ellipse cx="69.0112" cy="40.5718" rx="22.0175" ry="11.482" fill="black" fill-opacity="0.2"/>
<mask id="path-37-inside-2_11073_15790" fill="white">
<path fill-rule="evenodd" clip-rule="evenodd" d="M100.139 26.8124C100.155 26.652 100.163 26.4907 100.163 26.3286C100.163 20.2629 88.7846 15.3457 74.7482 15.3457C60.7118 15.3457 49.333 20.2629 49.333 26.3286C49.333 26.4141 49.3353 26.4993 49.3398 26.5844L49.333 26.5843C49.333 26.5843 49.3345 33.3506 49.3345 34.7566C49.3345 40.888 60.7129 45.8585 74.7489 45.8585C88.7849 45.8585 100.163 40.888 100.163 34.7566V26.8126L100.139 26.8124Z"/>
</mask>
<path fill-rule="evenodd" clip-rule="evenodd" d="M100.139 26.8124C100.155 26.652 100.163 26.4907 100.163 26.3286C100.163 20.2629 88.7846 15.3457 74.7482 15.3457C60.7118 15.3457 49.333 20.2629 49.333 26.3286C49.333 26.4141 49.3353 26.4993 49.3398 26.5844L49.333 26.5843C49.333 26.5843 49.3345 33.3506 49.3345 34.7566C49.3345 40.888 60.7129 45.8585 74.7489 45.8585C88.7849 45.8585 100.163 40.888 100.163 34.7566V26.8126L100.139 26.8124Z" fill="#F6C544"/>
<path d="M100.139 26.8124L99.1441 26.7126L99.0343 27.8075L100.135 27.8124L100.139 26.8124ZM49.3398 26.5844L49.3352 27.5844L50.3943 27.5891L50.3384 26.5316L49.3398 26.5844ZM49.333 26.5843L49.3375 25.5843L48.3328 25.5798L48.333 26.5846L49.333 26.5843ZM100.163 26.8126H101.163V25.817L100.168 25.8126L100.163 26.8126ZM99.1634 26.3286C99.1634 26.4572 99.1569 26.5852 99.1441 26.7126L101.134 26.9122C101.154 26.7188 101.163 26.5242 101.163 26.3286H99.1634ZM74.7482 16.3457C81.6633 16.3457 87.8761 17.5589 92.3227 19.4805C94.5477 20.442 96.2849 21.5611 97.4515 22.753C98.6136 23.9404 99.1634 25.1474 99.1634 26.3286H101.163C101.163 24.477 100.291 22.7947 98.8808 21.3541C97.4752 19.918 95.4904 18.6706 93.1161 17.6446C88.3643 15.5911 81.8695 14.3457 74.7482 14.3457V16.3457ZM50.333 26.3286C50.333 25.1474 50.8827 23.9404 52.0449 22.753C53.2115 21.5611 54.9486 20.442 57.1736 19.4805C61.6203 17.5589 67.8331 16.3457 74.7482 16.3457V14.3457C67.6268 14.3457 61.1321 15.5911 56.3803 17.6446C54.006 18.6706 52.0212 19.918 50.6156 21.3541C49.2056 22.7947 48.333 24.477 48.333 26.3286H50.333ZM50.3384 26.5316C50.3348 26.4641 50.333 26.3965 50.333 26.3286H48.333C48.333 26.4317 48.3357 26.5346 48.3412 26.6372L50.3384 26.5316ZM49.3285 27.5843L49.3352 27.5844L49.3443 25.5844L49.3375 25.5843L49.3285 27.5843ZM50.3345 34.7566C50.3345 34.0535 50.3341 32.0103 50.3338 30.143C50.3336 29.2093 50.3334 28.3196 50.3332 27.6633C50.3332 27.3352 50.3331 27.0654 50.3331 26.8776C50.3331 26.7837 50.333 26.7103 50.333 26.6604C50.333 26.6355 50.333 26.6164 50.333 26.6036C50.333 26.5971 50.333 26.5923 50.333 26.589C50.333 26.5874 50.333 26.5862 50.333 26.5853C50.333 26.5849 50.333 26.5846 50.333 26.5844C50.333 26.5843 50.333 26.5842 50.333 26.5842C50.333 26.5841 50.333 26.5841 49.333 26.5843C48.333 26.5846 48.333 26.5846 48.333 26.5846C48.333 26.5847 48.333 26.5848 48.333 26.5849C48.333 26.5851 48.333 26.5854 48.333 26.5858C48.333 26.5866 48.333 26.5878 48.333 26.5895C48.333 26.5927 48.333 26.5976 48.333 26.604C48.333 26.6169 48.333 26.6359 48.333 26.6609C48.333 26.7108 48.3331 26.7842 48.3331 26.878C48.3331 27.0658 48.3332 27.3356 48.3332 27.6637C48.3334 28.32 48.3336 29.2098 48.3338 30.1434C48.3341 32.0108 48.3345 34.0537 48.3345 34.7566H50.3345ZM74.7489 44.8585C67.8353 44.8585 61.624 43.6324 57.1785 41.6905C54.9543 40.7189 53.2172 39.5877 52.0501 38.3824C50.8877 37.1819 50.3345 35.9581 50.3345 34.7566H48.3345C48.3345 36.6209 49.2036 38.3177 50.6133 39.7736C52.0183 41.2247 54.0031 42.4858 56.3779 43.5232C61.1307 45.5994 67.6266 46.8585 74.7489 46.8585V44.8585ZM99.1634 34.7566C99.1634 35.9581 98.6102 37.1819 97.4477 38.3824C96.2807 39.5877 94.5436 40.7189 92.3193 41.6905C87.8739 43.6324 81.6626 44.8585 74.7489 44.8585V46.8585C81.8713 46.8585 88.3672 45.5994 93.12 43.5232C95.4948 42.4858 97.4795 41.2247 98.8846 39.7736C100.294 38.3177 101.163 36.6209 101.163 34.7566H99.1634ZM99.1634 26.8126V34.7566H101.163V26.8126H99.1634ZM100.135 27.8124L100.159 27.8125L100.168 25.8126L100.144 25.8125L100.135 27.8124Z" fill="#0B2C44" fill-opacity="0.76" mask="url(#path-37-inside-2_11073_15790)"/>
<path d="M99.6892 26.3305C99.6892 27.6794 99.0588 29.0052 97.8347 30.2558C96.6083 31.5088 94.8093 32.66 92.547 33.6376C88.024 35.5922 81.7407 36.8134 74.7741 36.8134C67.8074 36.8134 61.5241 35.5922 57.0012 33.6376C54.7389 32.66 52.9398 31.5088 51.7135 30.2558C50.4893 29.0052 49.8589 27.6794 49.8589 26.3305C49.8589 24.9817 50.4893 23.6559 51.7135 22.4053C52.9398 21.1523 54.7389 20.0011 57.0012 19.0234C61.5241 17.0689 67.8074 15.8477 74.7741 15.8477C81.7407 15.8477 88.024 17.0689 92.547 19.0234C94.8093 20.0011 96.6083 21.1523 97.8347 22.4053C99.0588 23.6559 99.6892 24.9817 99.6892 26.3305Z" stroke="#0B2C44" stroke-opacity="0.76"/>
<ellipse cx="74.7747" cy="26.5185" rx="23.0095" ry="8.88961" fill="#F6C544"/>
<path d="M97.2842 26.5185C97.2842 27.5575 96.7412 28.6027 95.6388 29.6096C94.5362 30.6167 92.9129 31.5467 90.8647 32.338C86.7716 33.9194 81.083 34.9081 74.7747 34.9081C68.4663 34.9081 62.7778 33.9194 58.6847 32.338C56.6365 31.5467 55.0132 30.6167 53.9106 29.6096C52.8082 28.6027 52.2651 27.5575 52.2651 26.5185C52.2651 25.4796 52.8082 24.4344 53.9106 23.4275C55.0132 22.4203 56.6365 21.4903 58.6847 20.699C62.7778 19.1177 68.4663 18.1289 74.7747 18.1289C81.083 18.1289 86.7716 19.1177 90.8647 20.699C92.9129 21.4903 94.5362 22.4203 95.6388 23.4275C96.7412 24.4344 97.2842 25.4796 97.2842 26.5185Z" stroke="#0B2C44" stroke-opacity="0.76"/>
<path d="M74.5921 18.0449C62.1957 18.0449 52.1465 21.9274 52.1465 26.7167C62.0361 20.1939 70.2194 18.6328 90.0066 20.4132C85.9858 18.9451 80.5611 18.0449 74.5921 18.0449Z" fill="#FF5B15" fill-opacity="0.29"/>
<line x1="54" y1="32.2549" x2="53.9168" y2="40.6665" stroke="black"/>
<line x1="51.4643" y1="30.2003" x2="51.3811" y2="38.6119" stroke="black"/>
<line x1="54" y1="32.2549" x2="53.9168" y2="40.6665" stroke="black"/>
<line x1="56.9511" y1="33.921" x2="56.868" y2="42.3326" stroke="black"/>
<line x1="60.5512" y1="35.1768" x2="60.4681" y2="43.5884" stroke="black"/>
<line x1="65.0703" y1="36.337" x2="64.9871" y2="44.7486" stroke="black"/>
<line x1="69.7339" y1="36.9639" x2="69.6507" y2="45.3755" stroke="black"/>
<line x1="74.2514" y1="37.1592" x2="74.1682" y2="45.5708" stroke="black"/>
<line x1="78.5776" y1="37.1592" x2="78.4944" y2="45.5708" stroke="black"/>
<line x1="83.4106" y1="36.5792" x2="83.3274" y2="44.9908" stroke="black"/>
<line x1="87.4702" y1="35.7335" x2="87.387" y2="44.1451" stroke="black"/>
<line x1="91.5283" y1="34.5733" x2="91.4451" y2="42.9849" stroke="black"/>
<line x1="95.3222" y1="32.8077" x2="95.239" y2="41.2193" stroke="black"/>
<line x1="98.5122" y1="30.3663" x2="98.429" y2="38.7779" stroke="black"/>
<line x1="51.4643" y1="30.2003" x2="51.3811" y2="38.6119" stroke="#445044"/>
<line x1="54" y1="32.2549" x2="53.9168" y2="40.6665" stroke="#445044"/>
<line x1="56.9511" y1="33.921" x2="56.868" y2="42.3326" stroke="#445044"/>
<line x1="60.5512" y1="35.1768" x2="60.4681" y2="43.5884" stroke="#445044"/>
<line x1="65.0703" y1="36.337" x2="64.9871" y2="44.7486" stroke="#445044"/>
<line x1="69.7339" y1="36.9639" x2="69.6507" y2="45.3755" stroke="#445044"/>
<line x1="74.2514" y1="37.1592" x2="74.1682" y2="45.5708" stroke="#445044"/>
<line x1="78.5776" y1="37.1592" x2="78.4944" y2="45.5708" stroke="#445044"/>
<line x1="83.4106" y1="36.5792" x2="83.3274" y2="44.9908" stroke="#445044"/>
<line x1="83.4106" y1="36.5792" x2="83.3274" y2="44.9908" stroke="#445044"/>
<line x1="87.4702" y1="35.7335" x2="87.387" y2="44.1451" stroke="#445044"/>
<line x1="91.5283" y1="34.5733" x2="91.4451" y2="42.9849" stroke="#445044"/>
<line x1="95.3222" y1="32.8077" x2="95.239" y2="41.2193" stroke="#445044"/>
<line x1="98.5122" y1="30.3663" x2="98.429" y2="38.7779" stroke="#445044"/>
<ellipse cx="68.3994" cy="23.691" rx="22.0175" ry="11.482" fill="black" fill-opacity="0.2"/>
<mask id="path-72-inside-3_11073_15790" fill="white">
<path fill-rule="evenodd" clip-rule="evenodd" d="M90.977 13.7578C90.9931 13.5973 91.0012 13.436 91.0012 13.2739C91.0012 7.20822 79.6225 2.29102 65.5861 2.29102C51.5497 2.29102 40.1709 7.20822 40.1709 13.2739C40.1709 13.3594 40.1732 13.4447 40.1777 13.5297L40.1709 13.5296C40.1709 13.5296 40.1724 20.2959 40.1724 21.702C40.1724 27.8334 51.5508 32.8038 65.5868 32.8038C79.6228 32.8038 91.0012 27.8334 91.0012 21.702V13.7579L90.977 13.7578Z"/>
</mask>
<path fill-rule="evenodd" clip-rule="evenodd" d="M90.977 13.7578C90.9931 13.5973 91.0012 13.436 91.0012 13.2739C91.0012 7.20822 79.6225 2.29102 65.5861 2.29102C51.5497 2.29102 40.1709 7.20822 40.1709 13.2739C40.1709 13.3594 40.1732 13.4447 40.1777 13.5297L40.1709 13.5296C40.1709 13.5296 40.1724 20.2959 40.1724 21.702C40.1724 27.8334 51.5508 32.8038 65.5868 32.8038C79.6228 32.8038 91.0012 27.8334 91.0012 21.702V13.7579L90.977 13.7578Z" fill="#F6C544"/>
<path d="M90.977 13.7578L89.982 13.658L89.8722 14.7528L90.9725 14.7577L90.977 13.7578ZM40.1777 13.5297L40.1731 14.5297L41.2322 14.5345L41.1763 13.4769L40.1777 13.5297ZM40.1709 13.5296L40.1754 12.5297L39.1707 12.5251L39.1709 13.5299L40.1709 13.5296ZM91.0012 13.7579H92.0012V12.7623L91.0057 12.7579L91.0012 13.7579ZM90.0012 13.2739C90.0012 13.4026 89.9948 13.5306 89.982 13.658L91.972 13.8576C91.9914 13.6641 92.0012 13.4695 92.0012 13.2739H90.0012ZM65.5861 3.29102C72.5011 3.29102 78.714 4.50421 83.1606 6.42579C85.3856 7.38729 87.1228 8.50646 88.2893 9.69835C89.4515 10.8857 90.0012 12.0927 90.0012 13.2739H92.0012C92.0012 11.4223 91.1286 9.73996 89.7186 8.29939C88.3131 6.86333 86.3282 5.61588 83.954 4.58988C79.2022 2.53643 72.7074 1.29102 65.5861 1.29102V3.29102ZM41.1709 13.2739C41.1709 12.0927 41.7206 10.8857 42.8828 9.69835C44.0494 8.50646 45.7865 7.38729 48.0115 6.42579C52.4582 4.50421 58.671 3.29102 65.5861 3.29102V1.29102C58.4647 1.29102 51.97 2.53643 47.2181 4.58988C44.8439 5.61588 42.8591 6.86333 41.4535 8.29939C40.0435 9.73996 39.1709 11.4223 39.1709 13.2739H41.1709ZM41.1763 13.4769C41.1727 13.4094 41.1709 13.3418 41.1709 13.2739H39.1709C39.1709 13.377 39.1736 13.4799 39.1791 13.5825L41.1763 13.4769ZM40.1664 14.5296L40.1731 14.5297L40.1822 12.5297L40.1754 12.5297L40.1664 14.5296ZM41.1724 21.702C41.1724 20.9988 41.172 18.9556 41.1717 17.0883C41.1715 16.1547 41.1713 15.2649 41.1711 14.6086C41.1711 14.2805 41.171 14.0107 41.171 13.8229C41.1709 13.729 41.1709 13.6557 41.1709 13.6058C41.1709 13.5808 41.1709 13.5617 41.1709 13.5489C41.1709 13.5425 41.1709 13.5376 41.1709 13.5343C41.1709 13.5327 41.1709 13.5315 41.1709 13.5307C41.1709 13.5302 41.1709 13.5299 41.1709 13.5297C41.1709 13.5296 41.1709 13.5296 41.1709 13.5295C41.1709 13.5295 41.1709 13.5294 40.1709 13.5296C39.1709 13.5299 39.1709 13.5299 39.1709 13.53C39.1709 13.53 39.1709 13.5301 39.1709 13.5302C39.1709 13.5304 39.1709 13.5307 39.1709 13.5311C39.1709 13.5319 39.1709 13.5332 39.1709 13.5348C39.1709 13.538 39.1709 13.5429 39.1709 13.5493C39.1709 13.5622 39.1709 13.5813 39.1709 13.6062C39.1709 13.6561 39.1709 13.7295 39.171 13.8234C39.171 14.0111 39.1711 14.2809 39.1711 14.6091C39.1713 15.2654 39.1715 16.1551 39.1717 17.0887C39.172 18.9561 39.1724 20.999 39.1724 21.702H41.1724ZM65.5868 31.8038C58.6732 31.8038 52.4619 30.5777 48.0164 28.6358C45.7922 27.6642 44.0551 26.533 42.888 25.3277C41.7256 24.1272 41.1724 22.9034 41.1724 21.702H39.1724C39.1724 23.5662 40.0415 25.263 41.4512 26.7189C42.8562 28.17 44.841 29.4311 47.2158 30.4686C51.9685 32.5447 58.4644 33.8038 65.5868 33.8038V31.8038ZM90.0012 21.702C90.0012 22.9034 89.4481 24.1272 88.2856 25.3277C87.1186 26.533 85.3815 27.6642 83.1572 28.6358C78.7117 30.5777 72.5004 31.8038 65.5868 31.8038V33.8038C72.7092 33.8038 79.2051 32.5447 83.9578 30.4686C86.3327 29.4311 88.3174 28.17 89.7225 26.7189C91.1321 25.263 92.0012 23.5662 92.0012 21.702H90.0012ZM90.0012 13.7579V21.702H92.0012V13.7579H90.0012ZM90.9725 14.7577L90.9968 14.7579L91.0057 12.7579L90.9815 12.7578L90.9725 14.7577Z" fill="#0B2C44" fill-opacity="0.76" mask="url(#path-72-inside-3_11073_15790)"/>
<path d="M90.5276 13.2739C90.5276 14.6227 89.8972 15.9485 88.673 17.1992C87.4467 18.4521 85.6476 19.6034 83.3853 20.581C78.8624 22.5356 72.5791 23.7568 65.6124 23.7568C58.6458 23.7568 52.3625 22.5356 47.8395 20.581C45.5772 19.6034 43.7782 18.4521 42.5518 17.1992C41.3277 15.9485 40.6973 14.6227 40.6973 13.2739C40.6973 11.9251 41.3277 10.5993 42.5518 9.34861C43.7782 8.09568 45.5772 6.94444 47.8395 5.96681C52.3625 4.01226 58.6458 2.79102 65.6124 2.79102C72.5791 2.79102 78.8624 4.01226 83.3853 5.96681C85.6476 6.94444 87.4467 8.09568 88.673 9.34861C89.8972 10.5993 90.5276 11.9251 90.5276 13.2739Z" stroke="#0B2C44" stroke-opacity="0.76"/>
<ellipse cx="65.6126" cy="13.4892" rx="23.0095" ry="8.88961" fill="#F6C544"/>
<path d="M88.1221 13.4892C88.1221 14.5282 87.5791 15.5734 86.4767 16.5803C85.3741 17.5874 83.7508 18.5174 81.7026 19.3087C77.6094 20.8901 71.9209 21.8788 65.6126 21.8788C59.3042 21.8788 53.6157 20.8901 49.5226 19.3087C47.4744 18.5174 45.8511 17.5874 44.7484 16.5803C43.6461 15.5734 43.103 14.5282 43.103 13.4892C43.103 12.4503 43.6461 11.4051 44.7484 10.3982C45.8511 9.391 47.4744 8.46103 49.5226 7.66972C53.6157 6.08836 59.3042 5.09961 65.6126 5.09961C71.9209 5.09961 77.6094 6.08836 81.7026 7.66972C83.7508 8.46103 85.3741 9.391 86.4767 10.3982C87.5791 11.4051 88.1221 12.4503 88.1221 13.4892Z" stroke="#0B2C44" stroke-opacity="0.76"/>
<path d="M65.4305 4.98828C53.0341 4.98828 42.9849 8.87076 42.9849 13.66C52.8745 7.13728 61.0578 5.57617 80.845 7.35653C76.8242 5.88843 71.3994 4.98828 65.4305 4.98828Z" fill="#FF5B15" fill-opacity="0.29"/>
<line x1="44.8384" y1="19.1983" x2="44.7552" y2="27.6099" stroke="black"/>
<line x1="42.3027" y1="17.1436" x2="42.2195" y2="25.5552" stroke="black"/>
<line x1="44.8384" y1="19.1983" x2="44.7552" y2="27.6099" stroke="black"/>
<line x1="47.789" y1="20.8643" x2="47.7058" y2="29.2759" stroke="black"/>
<line x1="51.3896" y1="22.1221" x2="51.3064" y2="30.5337" stroke="black"/>
<line x1="55.9082" y1="23.2823" x2="55.825" y2="31.6939" stroke="black"/>
<line x1="60.5722" y1="23.9092" x2="60.489" y2="32.3208" stroke="black"/>
<line x1="65.0893" y1="24.1026" x2="65.0061" y2="32.5142" stroke="black"/>
<line x1="69.416" y1="24.1026" x2="69.3328" y2="32.5142" stroke="black"/>
<line x1="74.2485" y1="23.5245" x2="74.1653" y2="31.9361" stroke="black"/>
<line x1="78.3081" y1="22.6768" x2="78.2249" y2="31.0884" stroke="black"/>
<line x1="82.3667" y1="21.5167" x2="82.2835" y2="29.9283" stroke="black"/>
<line x1="86.1606" y1="19.753" x2="86.0774" y2="28.1646" stroke="black"/>
<line x1="89.3506" y1="17.3116" x2="89.2674" y2="25.7232" stroke="black"/>
<line x1="42.3027" y1="17.1436" x2="42.2195" y2="25.5552" stroke="#445044"/>
<line x1="44.8384" y1="19.1983" x2="44.7552" y2="27.6099" stroke="#445044"/>
<line x1="47.789" y1="20.8643" x2="47.7058" y2="29.2759" stroke="#445044"/>
<line x1="51.3896" y1="22.1221" x2="51.3064" y2="30.5337" stroke="#445044"/>
<line x1="55.9082" y1="23.2823" x2="55.825" y2="31.6939" stroke="#445044"/>
<line x1="60.5722" y1="23.9092" x2="60.489" y2="32.3208" stroke="#445044"/>
<line x1="65.0893" y1="24.1026" x2="65.0061" y2="32.5142" stroke="#445044"/>
<line x1="69.416" y1="24.1026" x2="69.3328" y2="32.5142" stroke="#445044"/>
<line x1="74.2485" y1="23.5245" x2="74.1653" y2="31.9361" stroke="#445044"/>
<line x1="74.2485" y1="23.5245" x2="74.1653" y2="31.9361" stroke="#445044"/>
<line x1="78.3081" y1="22.6768" x2="78.2249" y2="31.0884" stroke="#445044"/>
<line x1="82.3667" y1="21.5167" x2="82.2835" y2="29.9283" stroke="#445044"/>
<line x1="86.1606" y1="19.753" x2="86.0774" y2="28.1646" stroke="#445044"/>
<line x1="89.3506" y1="17.3116" x2="89.2674" y2="25.7232" stroke="#445044"/>
<ellipse cx="33.0955" cy="27.1599" rx="22.0175" ry="11.482" transform="rotate(-51.2263 33.0955 27.1599)" fill="black" fill-opacity="0.2"/>
<mask id="path-107-inside-4_11073_15790" fill="white">
<path fill-rule="evenodd" clip-rule="evenodd" d="M37.2702 6.77949C37.1422 6.6815 37.0093 6.58981 36.8714 6.5046C31.7111 3.31642 21.5471 10.4121 14.1695 22.3533C6.79181 34.2944 4.99423 46.5591 10.1545 49.7473C10.2272 49.7922 10.3009 49.8351 10.3756 49.876L10.3721 49.8815C10.3721 49.8815 16.1291 53.4366 17.3253 54.1757C22.5414 57.3984 32.7506 50.331 40.128 38.3902C47.5055 26.4494 49.2575 14.157 44.0414 10.9342L37.2831 6.75877L37.2702 6.77949Z"/>
</mask>
<path fill-rule="evenodd" clip-rule="evenodd" d="M37.2702 6.77949C37.1422 6.6815 37.0093 6.58981 36.8714 6.5046C31.7111 3.31642 21.5471 10.4121 14.1695 22.3533C6.79181 34.2944 4.99423 46.5591 10.1545 49.7473C10.2272 49.7922 10.3009 49.8351 10.3756 49.876L10.3721 49.8815C10.3721 49.8815 16.1291 53.4366 17.3253 54.1757C22.5414 57.3984 32.7506 50.331 40.128 38.3902C47.5055 26.4494 49.2575 14.157 44.0414 10.9342L37.2831 6.75877L37.2702 6.77949Z" fill="#F6C544"/>
<path d="M37.2702 6.77949L36.6623 7.57351L37.536 8.24239L38.1186 7.30891L37.2702 6.77949ZM10.3756 49.876L11.2239 50.4054L11.7846 49.507L10.8555 48.9987L10.3756 49.876ZM10.3721 49.8815L9.52376 49.3521L8.9918 50.2045L9.84668 50.7324L10.3721 49.8815ZM44.0414 10.9342L44.567 10.0835L44.0414 10.9342ZM37.2831 6.75877L37.8087 5.90804L36.9618 5.38479L36.4348 6.22935L37.2831 6.75877ZM36.3457 7.35533C36.4552 7.42293 36.5607 7.49569 36.6623 7.57351L37.8781 5.98546C37.7237 5.86731 37.5634 5.75668 37.397 5.65387L36.3457 7.35533ZM15.0202 22.8789C18.6548 16.996 22.9524 12.3483 26.9244 9.57539C28.9118 8.1879 30.777 7.29832 32.4041 6.93234C34.0251 6.56775 35.3409 6.73447 36.3457 7.35533L37.397 5.65387C35.8217 4.68064 33.9319 4.53875 31.9653 4.98109C30.0048 5.42204 27.9003 6.45491 25.7795 7.93548C21.535 10.8987 17.0618 15.7693 13.3187 21.8276L15.0202 22.8789ZM10.6801 48.8966C9.6752 48.2757 8.93734 47.1737 8.53805 45.5609C8.13725 43.942 8.09819 41.8759 8.44969 39.4777C9.15216 34.6848 11.3856 28.7617 15.0202 22.8789L13.3187 21.8276C9.57571 27.886 7.22151 34.0658 6.47083 39.1876C6.09576 41.7467 6.11375 44.091 6.59666 46.0415C7.0811 47.9982 8.05363 49.6248 9.62886 50.598L10.6801 48.8966ZM10.8555 48.9987C10.7963 48.9663 10.7378 48.9322 10.6801 48.8966L9.62886 50.598C9.71657 50.6522 9.8055 50.704 9.89561 50.7533L10.8555 48.9987ZM11.2204 50.411L11.2239 50.4054L9.52722 49.3465L9.52376 49.3521L11.2204 50.411ZM17.8509 53.325C17.2527 52.9554 15.5143 51.8818 13.9256 50.9006C13.1312 50.41 12.3742 49.9426 11.8157 49.5977C11.5365 49.4253 11.307 49.2835 11.1472 49.1849C11.0674 49.1356 11.0049 49.097 10.9625 49.0708C10.9412 49.0577 10.925 49.0477 10.9141 49.0409C10.9086 49.0375 10.9045 49.035 10.9017 49.0333C10.9003 49.0324 10.8993 49.0318 10.8986 49.0313C10.8982 49.0311 10.898 49.031 10.8978 49.0308C10.8977 49.0308 10.8976 49.0308 10.8976 49.0307C10.8975 49.0307 10.8975 49.0307 10.3721 49.8815C9.84668 50.7324 9.8467 50.7324 9.84675 50.7324C9.84679 50.7324 9.84686 50.7325 9.84695 50.7325C9.84712 50.7326 9.84738 50.7328 9.84773 50.733C9.84843 50.7335 9.84947 50.7341 9.85086 50.735C9.85363 50.7367 9.85777 50.7392 9.86323 50.7426C9.87416 50.7493 9.8904 50.7594 9.91163 50.7725C9.95408 50.7987 10.0165 50.8372 10.0964 50.8866C10.2561 50.9852 10.4857 51.127 10.7649 51.2994C11.3233 51.6442 12.0803 52.1117 12.8747 52.6023C14.4635 53.5835 16.2017 54.6569 16.7997 55.0264L17.8509 53.325ZM39.2773 37.8646C35.6434 43.7462 31.3356 48.3859 27.347 51.1471C25.3513 52.5286 23.476 53.4118 21.8372 53.7712C20.2049 54.129 18.873 53.9564 17.8509 53.325L16.7997 55.0264C18.3856 56.0063 20.286 56.1588 22.2655 55.7248C24.2385 55.2922 26.3545 54.2665 28.4853 52.7915C32.7497 49.8394 37.2351 44.975 40.9787 38.9158L39.2773 37.8646ZM43.5158 11.785C44.5379 12.4165 45.2882 13.5303 45.6985 15.1502C46.1105 16.7766 46.1598 18.8489 45.8173 21.2518C45.1328 26.0544 42.9111 31.983 39.2773 37.8646L40.9787 38.9158C44.7223 32.8566 47.0654 26.6686 47.7973 21.5341C48.163 18.9684 48.1333 16.6171 47.6373 14.6591C47.1397 12.6946 46.1529 11.0634 44.567 10.0835L43.5158 11.785ZM36.7575 7.60949L43.5158 11.785L44.567 10.0835L37.8087 5.90804L36.7575 7.60949ZM38.1186 7.30891L38.1315 7.28819L36.4348 6.22935L36.4218 6.25006L38.1186 7.30891Z" fill="#0B2C44" fill-opacity="0.76" mask="url(#path-107-inside-4_11073_15790)"/>
<path d="M36.6222 6.90848C37.7697 7.61743 38.5662 8.85063 38.9868 10.5494C39.4081 12.2512 39.4419 14.3868 39.0845 16.8253C38.37 21.7004 36.1064 27.6877 32.4447 33.6144C28.7829 39.5411 24.4414 44.2446 20.4013 47.065C18.3805 48.4758 16.4556 49.4012 14.7451 49.7859C13.0377 50.1699 11.5784 50.0094 10.4309 49.3005C9.28348 48.5915 8.48695 47.3583 8.06638 45.6596C7.64504 43.9577 7.61126 41.8221 7.96865 39.3837C8.68317 34.5085 10.9468 28.5213 14.6085 22.5946C18.2702 16.6679 22.6117 11.9644 26.6518 9.14392C28.6726 7.73317 30.5976 6.80777 32.3081 6.42304C34.0155 6.03902 35.4747 6.19953 36.6222 6.90848Z" stroke="#0B2C44" stroke-opacity="0.76"/>
<ellipse cx="23.7099" cy="28.2187" rx="23.0095" ry="8.88961" transform="rotate(-58.2908 23.7099 28.2187)" fill="#F6C544"/>
<path d="M35.5411 9.06927C36.4249 9.61535 37.0287 10.6267 37.3059 12.0938C37.5832 13.5612 37.5211 15.4309 37.1177 17.5893C36.3116 21.9026 34.1629 27.2617 30.8471 32.6284C27.5314 37.9951 23.7003 42.3147 20.2036 44.9657C18.4539 46.2922 16.8095 47.1844 15.3731 47.5931C13.9371 48.0016 12.7625 47.9143 11.8787 47.3682C10.9948 46.8221 10.3911 45.8108 10.1138 44.3437C9.83658 42.8763 9.89865 41.0065 10.302 38.8481C11.1081 34.5348 13.2569 29.1758 16.5726 23.8091C19.8883 18.4424 23.7194 14.1227 27.2161 11.4718C28.9659 10.1452 30.6102 9.25304 32.0466 8.84438C33.4826 8.43582 34.6572 8.5232 35.5411 9.06927Z" stroke="#0B2C44" stroke-opacity="0.76"/>
<path d="M16.3821 23.9049C9.86645 34.4508 7.8874 45.0407 11.9618 47.5579C11.6108 35.7162 14.5839 27.9339 26.4988 12.0362C23.1365 14.6851 19.5194 18.827 16.3821 23.9049Z" fill="#FF5B15" fill-opacity="0.29"/>
<line x1="17.6469" y1="48.8917" x2="24.7591" y2="53.3837" stroke="black"/>
<line x1="14.5663" y1="49.9679" x2="21.6786" y2="54.4599" stroke="black"/>
<line x1="17.6469" y1="48.8917" x2="24.7591" y2="53.3837" stroke="black"/>
<line x1="20.6171" y1="47.2569" x2="27.7293" y2="51.7489" stroke="black"/>
<line x1="23.5771" y1="44.8546" x2="30.6893" y2="49.3466" stroke="black"/>
<line x1="26.9398" y1="41.6202" x2="34.0521" y2="46.1122" stroke="black"/>
<line x1="29.9252" y1="37.9816" x2="37.0374" y2="42.4735" stroke="black"/>
<line x1="32.4638" y1="34.2413" x2="39.576" y2="38.7333" stroke="black"/>
<line x1="34.7387" y1="30.5597" x2="41.8509" y2="35.0517" stroke="black"/>
<line x1="36.7851" y1="26.1456" x2="43.8973" y2="30.6376" stroke="black"/>
<line x1="38.1991" y1="22.2452" x2="45.3114" y2="26.7372" stroke="black"/>
<line x1="39.3456" y1="18.1847" x2="46.4579" y2="22.6767" stroke="black"/>
<line x1="39.8393" y1="14.0304" x2="46.9515" y2="18.5224" stroke="black"/>
<line x1="39.4384" y1="10.0323" x2="46.5506" y2="14.5243" stroke="black"/>
<line x1="14.5663" y1="49.9679" x2="21.6786" y2="54.4599" stroke="#445044"/>
<line x1="17.6469" y1="48.8917" x2="24.7591" y2="53.3837" stroke="#445044"/>
<line x1="20.6171" y1="47.2569" x2="27.7293" y2="51.7489" stroke="#445044"/>
<line x1="23.5771" y1="44.8546" x2="30.6893" y2="49.3466" stroke="#445044"/>
<line x1="26.9398" y1="41.6202" x2="34.0521" y2="46.1122" stroke="#445044"/>
<line x1="29.9252" y1="37.9816" x2="37.0374" y2="42.4735" stroke="#445044"/>
<line x1="32.4638" y1="34.2413" x2="39.576" y2="38.7333" stroke="#445044"/>
<line x1="34.7387" y1="30.5597" x2="41.8509" y2="35.0517" stroke="#445044"/>
<line x1="36.7851" y1="26.1456" x2="43.8973" y2="30.6376" stroke="#445044"/>
<line x1="36.7851" y1="26.1456" x2="43.8973" y2="30.6376" stroke="#445044"/>
<line x1="38.1991" y1="22.2452" x2="45.3114" y2="26.7372" stroke="#445044"/>
<line x1="39.3456" y1="18.1847" x2="46.4579" y2="22.6767" stroke="#445044"/>
<line x1="39.8393" y1="14.0304" x2="46.9515" y2="18.5224" stroke="#445044"/>
<line x1="39.4384" y1="10.0323" x2="46.5506" y2="14.5243" stroke="#445044"/>
</svg>
