<svg width="5" height="6" viewBox="0 0 5 6" fill="none" xmlns="http://www.w3.org/2000/svg">
<path d="M4.44444 2.1H3.05555V0.6H0.555555V2.9571L0.972221 3.375L1.94444 2.25L2.77777 3.75L3.33333 3L4.16666 3.9L3.33333 3.75L2.77777 4.5L1.94444 3.3L1.11111 4.35L0.555555 3.975V5.4H4.44444V2.1ZM4.99999 1.8V5.6979C5.00025 5.7373 4.99332 5.77636 4.97959 5.81287C4.96587 5.84937 4.94562 5.8826 4.92001 5.91065C4.8944 5.9387 4.86392 5.96103 4.83031 5.97636C4.79671 5.99169 4.76064 5.99973 4.72416 6H0.275833C0.202726 6 0.132609 5.96866 0.0808878 5.91285C0.029167 5.85705 7.36227e-05 5.78136 0 5.7024V0.2976C0 0.1365 0.124722 0 0.278333 0H3.3325L4.99999 1.8Z" fill="white"/>
</svg>
