<svg width="36" height="36" viewBox="0 0 36 36" fill="none" xmlns="http://www.w3.org/2000/svg">
<path d="M9.25 26.9166C8.81735 26.9166 8.39442 27.0193 8.03469 27.2116C7.67496 27.4038 7.39458 27.6772 7.22901 27.9969C7.06345 28.3167 7.02013 28.6686 7.10453 29.008C7.18894 29.3475 7.39728 29.6593 7.7032 29.9041C8.00913 30.1488 8.39891 30.3155 8.82324 30.383C9.24757 30.4505 9.68741 30.4159 10.0871 30.2834C10.4868 30.151 10.8285 29.9267 11.0688 29.6389C11.3092 29.3511 11.4375 29.0127 11.4375 28.6666C11.4375 28.2025 11.207 27.7574 10.7968 27.4292C10.3866 27.101 9.83016 26.9166 9.25 26.9166ZM9.25 16.4166C8.81735 16.4166 8.39442 16.5193 8.03469 16.7116C7.67496 16.9038 7.39458 17.1772 7.22901 17.4969C7.06345 17.8167 7.02013 18.1686 7.10453 18.508C7.18894 18.8475 7.39728 19.1593 7.7032 19.4041C8.00913 19.6488 8.39891 19.8155 8.82324 19.883C9.24757 19.9505 9.68741 19.9159 10.0871 19.7834C10.4868 19.651 10.8285 19.4267 11.0688 19.1389C11.3092 18.8511 11.4375 18.5127 11.4375 18.1666C11.4375 17.7025 11.207 17.2574 10.7968 16.9292C10.3866 16.601 9.83016 16.4166 9.25 16.4166ZM26.75 0.666626H9.25C6.92936 0.666626 4.70376 1.40412 3.06282 2.71688C1.42187 4.02963 0.5 5.81011 0.5 7.66663V28.6666C0.5 30.5231 1.42187 32.3036 3.06282 33.6164C4.70376 34.9291 6.92936 35.6666 9.25 35.6666H26.75C29.0706 35.6666 31.2962 34.9291 32.9372 33.6164C34.5781 32.3036 35.5 30.5231 35.5 28.6666V7.66663C35.5 5.81011 34.5781 4.02963 32.9372 2.71688C31.2962 1.40412 29.0706 0.666626 26.75 0.666626ZM31.125 28.6666C31.125 29.5949 30.6641 30.4851 29.8436 31.1415C29.0231 31.7979 27.9103 32.1666 26.75 32.1666H9.25C8.08968 32.1666 6.97688 31.7979 6.15641 31.1415C5.33594 30.4851 4.875 29.5949 4.875 28.6666V24.1866C6.19623 24.8228 7.7079 25.1615 9.25 25.1666H26.75C28.2921 25.1615 29.8038 24.8228 31.125 24.1866V28.6666ZM31.125 18.1666C31.125 19.0949 30.6641 19.9851 29.8436 20.6415C29.0231 21.2979 27.9103 21.6666 26.75 21.6666H9.25C8.08968 21.6666 6.97688 21.2979 6.15641 20.6415C5.33594 19.9851 4.875 19.0949 4.875 18.1666V13.6866C6.19623 14.3228 7.7079 14.6615 9.25 14.6666H26.75C28.2921 14.6615 29.8038 14.3228 31.125 13.6866V18.1666ZM26.75 11.1666H9.25C8.08968 11.1666 6.97688 10.7979 6.15641 10.1415C5.33594 9.48512 4.875 8.59488 4.875 7.66663C4.875 6.73837 5.33594 5.84813 6.15641 5.19175C6.97688 4.53538 8.08968 4.16663 9.25 4.16663H26.75C27.9103 4.16663 29.0231 4.53538 29.8436 5.19175C30.6641 5.84813 31.125 6.73837 31.125 7.66663C31.125 8.59488 30.6641 9.48512 29.8436 10.1415C29.0231 10.7979 27.9103 11.1666 26.75 11.1666Z" fill="#646D8D"/>
</svg>
