<svg width="34" height="34" viewBox="0 0 34 34" fill="none" xmlns="http://www.w3.org/2000/svg">
<path d="M2.27393 19.3167V9.06332M2.27393 19.3167C2.27393 19.3167 2.2 24.3221 17.237 24.2402C32.2739 24.1583 32.2739 19.3167 32.2739 19.3167M2.27393 19.3167V24.9083V24.9083C2.27393 28.825 5.44897 32 9.36559 32H25.1823C29.0989 32 32.2739 28.825 32.2739 24.9083V24.9083V19.3167M32.2739 19.3167V9.06332M2.27393 9.06332V9.06332C2.27393 5.16235 5.43629 2 9.33725 2H25.2106C29.1116 2 32.2739 5.16235 32.2739 9.06332V9.06332M2.27393 9.06332C2.27393 9.06332 2.2 15.4718 17.237 15.2769C32.2739 15.0821 32.2739 9.06332 32.2739 9.06332M9.29862 19.3167H11.4887M9.29862 27.9162H11.4887" stroke="white" stroke-width="3" stroke-linecap="round" stroke-linejoin="round"/>
</svg>
