<svg width="19" height="22" viewBox="0 0 19 22" fill="none" xmlns="http://www.w3.org/2000/svg">
<path d="M5.50424 18.6376C5.50424 18.8115 5.43511 18.9794 5.3121 19.1025C5.18908 19.2255 5.02221 19.2939 4.8482 19.2939C4.67422 19.2939 4.50735 19.2255 4.38433 19.1025C4.26132 18.9794 4.1922 18.8115 4.1922 18.6376L4.19546 18.5732L4.20166 18.5263C4.22448 18.3935 4.28784 18.2685 4.38433 18.1728C4.46075 18.0966 4.55407 18.04 4.65548 18.0087L4.70327 17.997L4.77023 17.9872L4.8482 17.9814C5.02221 17.9814 5.18908 18.0497 5.3121 18.1728C5.43511 18.2958 5.50424 18.4638 5.50424 18.6376Z" fill="white"/>
<path d="M14.0378 13.4883C15.23 13.5312 16.3422 13.5723 17.4544 15.6855C18.2416 17.1289 18.6352 21.8535 18.504 21.8535H0.52887C0.52887 21.8535 0.922485 17.1289 1.70972 15.6855C2.62814 13.9785 3.6778 13.584 4.59622 13.4531C4.53333 13.7051 4.47043 13.957 4.422 14.2227L4.38275 14.4668C4.36813 14.5723 4.35623 14.6797 4.34781 14.7891C4.33881 14.9082 4.33383 15.0312 4.33383 15.1602V16.7344C3.5466 16.998 3.02176 17.6543 3.02176 18.5723C3.02176 19.623 3.94022 20.541 4.98984 20.541C6.03949 20.541 6.95795 19.623 6.95795 18.7031C6.95795 17.916 6.43311 17.1289 5.64587 16.8652V15.291C5.64587 14.2402 5.90829 13.7168 6.17072 13.4531C6.95795 13.3223 7.61395 13.0605 7.61395 12.4043C7.61395 12.2969 7.59949 12.2051 7.57266 12.125C7.56863 12.1133 7.56436 12.1016 7.55981 12.0898C7.54614 12.0566 7.53006 12.0254 7.51175 11.9941C7.47067 11.9258 7.4184 11.8672 7.35709 11.8145C7.25221 11.7218 7.12087 11.6444 6.97385 11.5578L6.96854 11.5547C6.61121 11.3438 6.16266 11.0781 5.77707 10.4355C5.77707 10.4355 4.72745 7.41602 4.98984 4.79102L5.25226 3.47852C5.77707 2.03516 7.08914 0.853516 9.58203 0.853516C12.075 0.853516 13.387 2.03516 13.7806 3.34766L14.043 4.66016C14.4366 7.28516 13.2558 10.3027 13.2558 10.3027C12.8403 11.0664 12.3517 11.3535 11.9829 11.5703L11.9579 11.584C11.8556 11.6445 11.7632 11.6992 11.6849 11.7598C11.5964 11.8281 11.526 11.9004 11.4799 11.9902C11.4406 12.0664 11.4189 12.1582 11.4189 12.2715C11.4189 12.457 11.4767 12.6133 11.5651 12.7402C11.6651 12.8828 11.8044 12.9902 11.9437 13.0605C12.075 13.3223 12.2061 13.9785 12.2061 14.7656C10.1069 15.1602 9.58203 17.7852 9.58203 19.2285V20.541H12.2061V19.2285H10.8941C10.8941 19.0977 10.8941 15.9473 12.8622 15.9473C14.8303 15.9473 14.8303 19.2285 14.8303 19.2285H13.5182V20.541H16.1423V19.2285C16.1423 17.7852 15.6175 15.291 13.5182 14.7656C13.5182 14.2402 13.5182 13.8477 13.387 13.4531C13.5165 13.4648 13.645 13.4727 13.7726 13.4766L14.0378 13.4883Z" fill="white"/>
</svg>
