<svg width="18" height="22" viewBox="0 0 18 22" fill="none" xmlns="http://www.w3.org/2000/svg">
<path d="M16.9255 15.3313C15.6134 12.8375 14.3014 13.2313 12.8581 13.1C12.9893 13.4938 12.9893 13.8875 12.9893 14.4125C15.0886 14.9375 15.6134 17.4312 15.6134 18.875V20.1875H12.9893V18.875H14.3014C14.3014 18.875 14.3014 15.5938 12.3333 15.5938C10.3652 15.5938 10.3652 18.7437 10.3652 18.875H11.6773V20.1875H9.05317V18.875C9.05317 17.4312 9.57799 14.8063 11.6773 14.4125C11.6773 13.625 11.5461 12.9688 11.4149 12.7063C11.1525 12.575 10.89 12.3125 10.89 11.9187C10.89 11.1312 11.9397 11.3938 12.7269 9.95C12.7269 9.95 13.9078 6.93125 13.5142 4.30625H12.2021C12.2021 4.04375 12.3333 3.9125 12.3333 3.65C12.3333 3.3875 12.3333 3.25625 12.2021 2.99375H13.2517C12.8581 1.68125 11.5461 0.5 9.05317 0.5C6.56027 0.5 5.24821 1.68125 4.72339 3.125H5.77304C5.77304 3.3875 5.64183 3.51875 5.64183 3.78125C5.64183 4.04375 5.64183 4.175 5.77304 4.4375H4.46098C4.19857 7.0625 5.24821 10.0813 5.24821 10.0813C6.03545 11.3938 7.08509 11.1313 7.08509 12.05C7.08509 12.7063 6.42906 12.9688 5.64183 13.1C5.37942 13.3625 5.11701 13.8875 5.11701 14.9375V16.5125C5.90424 16.775 6.42906 17.5625 6.42906 18.35C6.42906 19.2688 5.51063 20.1875 4.46098 20.1875C3.41134 20.1875 2.4929 19.2687 2.4929 18.2188C2.4929 17.3 3.01772 16.6438 3.80496 16.3813V14.8062C3.80496 14.15 3.93616 13.625 4.06737 13.1C3.14893 13.2313 2.09929 13.625 1.18085 15.3313C0.393616 16.775 0 21.5 0 21.5H17.9751C18.1063 21.5 17.7127 16.775 16.9255 15.3313ZM7.08509 3.78125C7.08509 2.73125 8.00353 1.8125 9.05317 1.8125C10.1028 1.8125 11.0213 2.73125 11.0213 3.78125C11.0213 4.83125 10.1028 5.75 9.05317 5.75C8.00353 5.75 7.08509 4.83125 7.08509 3.78125Z" fill="white"/>
<path d="M5.11701 18.2188C5.11701 18.3928 5.04789 18.5597 4.92486 18.6828C4.80183 18.8059 4.63497 18.875 4.46098 18.875C4.28699 18.875 4.12013 18.8059 3.9971 18.6828C3.87407 18.5597 3.80496 18.3928 3.80496 18.2188C3.80496 18.0447 3.87407 17.8778 3.9971 17.7547C4.12013 17.6316 4.28699 17.5625 4.46098 17.5625C4.63497 17.5625 4.80183 17.6316 4.92486 17.7547C5.04789 17.8778 5.11701 18.0447 5.11701 18.2188Z" fill="white"/>
</svg>
