<svg width="165" height="211" viewBox="0 0 165 211" fill="none" xmlns="http://www.w3.org/2000/svg">
<path d="M154.294 131.017C141.634 120.369 130.374 114.095 110.223 102.899H51.4608C33.3529 113.958 22.5831 119.327 6.57317 133.207C2.49763 149.841 0.973086 160.154 0.452133 181.408C-1.89912 197.295 48.0483 209.266 82.27 209.497C116.269 209.726 167.85 194.77 164.088 182.869C161.002 152.437 159.08 136.681 154.294 131.017Z" fill="white"/>
<path d="M140.012 152.926L140.828 198.936L135.115 200.396C135.74 172.106 136.752 161.193 140.012 152.926Z" fill="#D3D3D3"/>
<path d="M22.8962 151.83L20.6714 198.136L30.0757 201.082C27.7504 163.184 25.1053 154.055 22.8962 151.83Z" fill="#D3D3D3"/>
<path d="M112.672 107.281C115.936 110.811 121.656 117.287 121.649 117.871C121.638 118.774 118.299 122.796 115.936 123.713C119.745 125.645 121.559 127.048 124.098 130.286C117.355 140.763 115.645 147.379 111.447 158.768M48.6047 158.768C46.0579 152.595 39.2711 136.988 36.7707 133.207C35.5025 131.29 42.2204 125.44 45.7482 123.713C41.8565 123.221 40.5547 122.577 40.0352 120.792C46.5027 114.24 47.9014 111.788 50.645 107.281M140.828 198.936L140.012 152.926C136.752 161.193 135.74 172.106 135.115 200.396L140.828 198.936ZM20.6714 198.136L22.8962 151.83C25.1053 154.055 27.7504 163.184 30.0757 201.082L20.6714 198.136Z" stroke="#D3D3D3" stroke-width="2"/>
<path d="M80.842 123.714L110.223 103.63L108.999 206.239C84.9673 210.484 71.7919 209.75 48.6045 205.144L52.6852 103.63L80.842 123.714Z" fill="#01B9CA" stroke="#01B9CA"/>
<path d="M55.1336 205.874C54.3109 156.427 53.398 130.061 52.2771 102.899L50.2368 105.09L48.6045 205.143L55.1336 205.874Z" fill="#00A1B1"/>
<path d="M110.631 102.899L112.671 105.821V205.874L102.47 206.969C103.705 159.749 105.881 132.731 110.631 102.899Z" fill="#00A1B1"/>
<path d="M123.281 159.499C107.385 151.84 87.8978 190.567 87.7789 193.458L89.8193 190.902C92.625 193.922 95.1242 197.84 95.1242 199.301C95.1242 200.762 93.5132 200.379 92.2677 200.031C91.0222 199.683 87.4644 194.006 87.7789 193.458C87.8978 190.567 107.385 151.84 123.281 159.499C128.2 148.103 130.207 143.744 130.626 131.382C130.434 114.71 125.604 107.25 108.182 98.8828H53.0931C42.9295 103.619 35.5654 108.069 31.4655 118.236C25.3305 133.098 25.3305 150.845 31.4655 165.707C35.4476 162.856 40.5416 162.856 44.5236 165.707C49.5013 169.27 49.5013 176.75 44.5236 180.313C40.5416 183.163 35.4476 183.163 31.4655 180.313C26.4879 176.75 26.1585 170.267 31.4655 165.707C25.3305 150.845 25.3305 133.098 31.4655 118.236C35.5654 108.069 42.9295 103.619 53.0931 98.8828H108.182C125.604 107.25 130.434 114.71 130.626 131.382C130.207 143.744 128.2 148.103 123.281 159.499C136.225 167.949 133.501 184.932 111.376 207.36C111.291 207.467 111.179 207.579 111.039 207.7C111.039 207.7 110.429 209.163 108.182 208.065C105.936 206.967 104.102 205.509 104.102 205.509C103.296 204.987 103.192 202.395 106.55 202.953C108.82 204.211 109.899 205.058 111.039 205.874C111.605 206.514 111.737 206.9 111.376 207.36C133.501 184.932 136.225 167.949 123.281 159.499Z" fill="#484E68"/>
<path d="M87.7789 193.458C87.8978 190.567 107.385 151.84 123.281 159.499M87.7789 193.458L89.8193 190.902C92.625 193.922 95.1242 197.84 95.1242 199.301C95.1242 200.762 93.5132 200.379 92.2677 200.031C91.0222 199.683 87.4644 194.006 87.7789 193.458ZM123.281 159.499C136.291 167.991 133.473 185.103 111.039 207.7M123.281 159.499C128.2 148.103 130.207 143.744 130.626 131.382C130.434 114.71 125.604 107.25 108.182 98.8828H53.0931C42.9295 103.619 35.5654 108.069 31.4655 118.236C25.3305 133.098 25.3305 150.845 31.4655 165.707M111.039 207.7C111.775 207.067 111.737 206.665 111.039 205.874C109.899 205.058 108.82 204.211 106.55 202.953C103.192 202.395 103.296 204.987 104.102 205.509C104.102 205.509 105.936 206.967 108.182 208.065C110.429 209.163 111.039 207.7 111.039 207.7ZM31.4655 165.707C35.4476 162.856 40.5416 162.856 44.5236 165.707C49.5013 169.27 49.5013 176.75 44.5236 180.313C40.5416 183.163 35.4476 183.163 31.4655 180.313C26.4879 176.75 26.1585 170.267 31.4655 165.707Z" stroke="#474E69" stroke-width="4"/>
<path d="M113.488 53.6042C113.927 53.2424 111.595 47.7356 105.734 47.3965H56.766C51.5324 47.9517 49.5898 49.1036 49.0127 53.6042C49.4187 58.7616 52.1956 59.3991 57.1182 60.5293L57.1741 60.5421V71.1317C55.9521 83.8967 55.304 89.9552 52.2772 102.9L70.2323 115.681C95.3122 96.082 100.017 86.5074 105.734 76.6091V60.5421C111.237 59.4306 113.513 57.6385 113.488 53.6042Z" fill="#F5CBB3"/>
<path d="M56.7656 70.0359V22.9307H105.734V70.0359C97.5679 86.9908 89.3563 90.7974 80.4336 91.5802C68.7115 87.5458 63.9807 82.0314 56.7656 70.0359Z" fill="#FFD7C2"/>
<path d="M43.7075 37.5368C45.1896 46.1604 48.7545 49.1909 57.1738 53.2386V32.0594C71.2796 34.5046 76.1767 32.7262 82.066 26.5821C90.6203 33.1464 96.0847 34.4171 105.734 30.9639V47.396C107.881 46.1254 108.405 46.4869 109.815 48.1264C124.055 41.5268 119.345 16.5413 108.999 15.6274C110.142 15.1611 107.751 6.8913 104.102 6.13332C100.232 3.79874 97.5562 4.48615 92.6758 6.13332C90.2359 1.51378 87.8199 -0.0319718 80.0257 0.655961C69.343 2.38005 67.3684 4.3254 64.519 7.9591C59.422 7.74683 56.4648 8.31164 50.6447 13.0713C47.068 18.1251 46.9 21.1062 48.6044 26.5821C45.1915 29.2598 44.2859 31.838 43.7075 37.5368Z" fill="#474E69"/>
<path d="M64.9276 22.565C59.017 20.9769 42.4836 32.0591 54.3174 48.8563L57.174 53.2382V32.0591C57.174 32.0591 66.5948 34.0493 71.4564 33.1545C76.9174 32.1495 82.0662 27.312 82.0662 27.312C82.0662 27.312 88.701 32.3406 93.9002 33.1545C98.3207 33.8466 105.734 30.9636 105.734 30.9636V47.3957C107.443 47.392 107.469 47.6184 108.999 48.126C112.253 45.3497 113.701 43.9364 113.488 39.7274C113.293 35.9049 112.941 33.3284 108.999 30.2333C109.591 25.8352 108.884 24.0521 106.142 21.8347C101.083 19.3164 98.3161 19.1759 93.4924 20.7392C88.9773 15.2781 85.6284 13.1988 79.2097 13.4361C75.2773 13.5814 72.8847 14.5078 69.8244 16.7225C67.3462 18.5159 64.9276 22.565 64.9276 22.565Z" fill="#384054"/>
<path d="M80.842 124.079L54.7256 103.631L71.8645 106.187L100.429 82.8166L105.734 70.0361C106.195 82.9063 106.513 90.1354 109.815 103.631L80.842 124.079Z" fill="#FFD7C2"/>
<path d="M94.3082 53.6036C94.3082 55.822 93.0293 57.6204 91.4517 57.6204C89.8741 57.6204 88.5952 55.822 88.5952 53.6036C88.5952 51.3853 89.8741 49.5869 91.4517 49.5869C93.0293 49.5869 94.3082 51.3853 94.3082 53.6036Z" fill="#474E69"/>
<ellipse cx="71.0479" cy="53.6036" rx="2.85648" ry="4.01673" fill="#474E69"/>
<path d="M86.1466 41.5539L86.9627 45.9358C90.7552 45.7478 92.5699 44.8737 97.1645 46.6661L98.3887 43.0145C93.3781 40.423 90.6977 40.1036 86.1466 41.5539Z" fill="#474E69"/>
<path d="M76.3529 41.6642L75.5368 45.9512C71.7443 45.7674 69.9296 44.9121 65.335 46.6658L64.1108 43.0932C69.1214 40.5578 71.8018 40.2453 76.3529 41.6642Z" fill="#474E69"/>
<path d="M79.6178 53.6035C79.6033 57.359 79.4206 59.5183 77.5774 63.8279C79.1888 65.1142 80.1564 65.5573 82.0662 65.6537M91.8599 71.8614C87.9792 76.4903 85.169 77.4924 78.8017 75.8781" stroke="#474E69"/>
</svg>
