<svg width="168" height="102" viewBox="0 0 168 102" fill="none" xmlns="http://www.w3.org/2000/svg">
<rect y="0.951172" width="167.703" height="100.309" rx="8" fill="#303030"/>
<rect x="5" y="5.95117" width="16.7734" height="90.3086" rx="8.38672" fill="#969FBF" fill-opacity="0.15"/>
<rect x="26.7734" y="40.7461" width="82.5293" height="20.7188" rx="4" fill="#262626"/>
<rect x="29.9648" y="43.5898" width="34.7129" height="4.87891" rx="2.43945" fill="white"/>
<rect x="33.4355" y="51.1055" width="22.3027" height="1.66797" rx="0.833984" fill="#7D7F88"/>
<rect x="57.7305" y="51.1055" width="7.52344" height="1.66797" rx="0.833984" fill="#7D7F88"/>
<rect x="86.9102" y="52.0996" width="6" height="6" rx="3" fill="#C13E34"/>
<rect x="96.0605" y="52.0996" width="6" height="6" rx="3" fill="#AE7441"/>
<rect x="77.7598" y="52.0996" width="6" height="6" rx="3" fill="#6BBBC2"/>
<rect x="114.303" y="5.95117" width="48.4004" height="90.3086" rx="8" fill="#404040"/>
<rect x="117.256" y="11.8301" width="42.4927" height="34.209" rx="8.5" stroke="#4A4A4A"/>
<rect x="117.256" y="51.7773" width="42.4927" height="41.291" rx="8.5" stroke="#4A4A4A"/>
</svg>
