<svg width="10" height="10" viewBox="0 0 10 10" fill="none" xmlns="http://www.w3.org/2000/svg">
<path d="M8.08763 3.36538L6.57704 2.27905C6.40746 2.15619 6.20121 2.0931 5.99118 2.09986C5.73502 2.10618 5.4872 2.19137 5.2822 2.34358C5.07719 2.49578 4.92517 2.70744 4.84728 2.94914C4.75962 3.22119 4.67949 3.40504 4.60691 3.5007C4.3876 3.79039 4.1031 4.02548 3.77601 4.18732C3.44891 4.34916 3.08822 4.43329 2.72256 4.43304V5.36631C3.20929 5.36683 3.69009 5.26051 4.13035 5.055C4.57061 4.84949 4.95937 4.5499 5.26865 4.17779L5.59716 6.02333L4.62576 6.83061L3.57801 9.68082L4.4641 10L5.4256 7.38497L7.02338 6.0574C7.15451 5.95257 7.25484 5.81485 7.31395 5.65859C7.37305 5.50233 7.38876 5.33324 7.35944 5.16892L7.11953 3.82268L7.43862 4.05226L8.44112 5.41857L9.20373 4.86981L8.09564 3.35978L8.08763 3.36538ZM5.31484 1.86654C5.56484 1.86654 5.80461 1.76822 5.98139 1.59319C6.15817 1.41817 6.25748 1.18079 6.25748 0.933271C6.25748 0.685752 6.15817 0.448371 5.98139 0.273349C5.80461 0.0983265 5.56484 0 5.31484 0C5.06483 0 4.82506 0.0983265 4.64828 0.273349C4.4715 0.448371 4.37219 0.685752 4.37219 0.933271C4.37219 1.18079 4.4715 1.41817 4.64828 1.59319C4.82506 1.76822 5.06483 1.86654 5.31484 1.86654ZM6.71561 8.01727L8.23044 9.80448L8.95251 9.20485L7.54985 7.55016L7.19824 6.5329L6.3541 7.23285L6.71561 8.01727Z" fill="white"/>
<path d="M0.742188 0H1.46232V10H0.742188V0Z" fill="white"/>
</svg>
