<svg width="4" height="13" viewBox="0 0 4 13" fill="none" xmlns="http://www.w3.org/2000/svg">
<path d="M0.500977 10.7509C0.500977 10.5541 0.539751 10.3591 0.615086 10.1773C0.690421 9.99539 0.800841 9.83014 0.940042 9.69094C1.07924 9.55174 1.2445 9.44132 1.42637 9.36598C1.60825 9.29065 1.80318 9.25187 2.00004 9.25187C2.1969 9.25187 2.39183 9.29065 2.57371 9.36598C2.75558 9.44132 2.92084 9.55174 3.06004 9.69094C3.19924 9.83014 3.30966 9.99539 3.38499 10.1773C3.46033 10.3591 3.4991 10.5541 3.4991 10.7509C3.4991 11.1485 3.34117 11.5298 3.06004 11.8109C2.77891 12.0921 2.39762 12.25 2.00004 12.25C1.60246 12.25 1.22117 12.0921 0.940042 11.8109C0.658913 11.5298 0.500977 11.1485 0.500977 10.7509ZM0.647885 1.74906C0.627922 1.55994 0.647943 1.36874 0.706649 1.18786C0.765354 1.00697 0.861432 0.840453 0.98865 0.6991C1.11587 0.557747 1.27138 0.444719 1.4451 0.36735C1.61882 0.289981 1.80687 0.25 1.99704 0.25C2.18721 0.25 2.37526 0.289981 2.54898 0.36735C2.7227 0.444719 2.87822 0.557747 3.00543 0.6991C3.13265 0.840453 3.22873 1.00697 3.28743 1.18786C3.34614 1.36874 3.36616 1.55994 3.3462 1.74906L2.82153 7.00628C2.80021 7.21009 2.70415 7.39879 2.5519 7.53596C2.39964 7.67312 2.20197 7.74903 1.99704 7.74903C1.79211 7.74903 1.59445 7.67312 1.44219 7.53596C1.28993 7.39879 1.19387 7.21009 1.17256 7.00628L0.647885 1.74906Z" fill="white"/>
</svg>
