<svg width="23" height="21" viewBox="0 0 23 21" fill="none" xmlns="http://www.w3.org/2000/svg">
<path d="M11.437 7.58984C12.2327 7.58984 12.9957 7.90591 13.5583 8.46852C14.1209 9.03113 14.437 9.79419 14.437 10.5898C14.437 11.3855 14.1209 12.1486 13.5583 12.7112C12.9957 13.2738 12.2327 13.5898 11.437 13.5898C10.6414 13.5898 9.8783 13.2738 9.31569 12.7112C8.75308 12.1486 8.43701 11.3855 8.43701 10.5898C8.43701 9.79419 8.75308 9.03113 9.31569 8.46852C9.8783 7.90591 10.6414 7.58984 11.437 7.58984ZM11.437 3.08984C16.437 3.08984 20.707 6.19984 22.437 10.5898C20.707 14.9798 16.437 18.0898 11.437 18.0898C6.43701 18.0898 2.16701 14.9798 0.437012 10.5898C2.16701 6.19984 6.43701 3.08984 11.437 3.08984ZM2.61701 10.5898C3.42527 12.2402 4.68032 13.6306 6.23949 14.6031C7.79866 15.5756 9.59941 16.0912 11.437 16.0912C13.2746 16.0912 15.0754 15.5756 16.6345 14.6031C18.1937 13.6306 19.4488 12.2402 20.257 10.5898C19.4488 8.93954 18.1937 7.5491 16.6345 6.57659C15.0754 5.60408 13.2746 5.08852 11.437 5.08852C9.59941 5.08852 7.79866 5.60408 6.23949 6.57659C4.68032 7.5491 3.42527 8.93954 2.61701 10.5898Z" fill="white"/>
</svg>
