<svg width="23" height="16" viewBox="0 0 23 16" fill="none" xmlns="http://www.w3.org/2000/svg">
<path d="M11.5537 5.17871C12.3494 5.17871 13.1124 5.49478 13.675 6.05739C14.2376 6.62 14.5537 7.38306 14.5537 8.17871C14.5537 8.97436 14.2376 9.73742 13.675 10.3C13.1124 10.8626 12.3494 11.1787 11.5537 11.1787C10.7581 11.1787 9.995 10.8626 9.43239 10.3C8.86978 9.73742 8.55371 8.97436 8.55371 8.17871C8.55371 7.38306 8.86978 6.62 9.43239 6.05739C9.995 5.49478 10.7581 5.17871 11.5537 5.17871ZM11.5537 0.678711C16.5537 0.678711 20.8237 3.78871 22.5537 8.17871C20.8237 12.5687 16.5537 15.6787 11.5537 15.6787C6.55371 15.6787 2.28371 12.5687 0.553711 8.17871C2.28371 3.78871 6.55371 0.678711 11.5537 0.678711ZM2.73371 8.17871C3.54197 9.82902 4.79702 11.2195 6.35619 12.192C7.91536 13.1645 9.71611 13.68 11.5537 13.68C13.3913 13.68 15.1921 13.1645 16.7512 12.192C18.3104 11.2195 19.5655 9.82902 20.3737 8.17871C19.5655 6.5284 18.3104 5.13796 16.7512 4.16546C15.1921 3.19295 13.3913 2.67739 11.5537 2.67739C9.71611 2.67739 7.91536 3.19295 6.35619 4.16546C4.79702 5.13796 3.54197 6.5284 2.73371 8.17871Z" fill="white"/>
</svg>
