<svg width="90" height="118" viewBox="0 0 90 118" fill="none" xmlns="http://www.w3.org/2000/svg">
<path d="M75.8443 102.586C71.3572 102.041 68.9381 101.112 64.8661 97.8916H63.6899L60.9453 105.716L68.7869 106.89C72.5633 106.077 74.0623 105.094 75.8443 102.586Z" fill="#FEC492"/>
<path fill-rule="evenodd" clip-rule="evenodd" d="M57.8089 38.8178C49.1832 34.9057 29.5792 36.0793 25.6583 38.8178C21.7375 41.5562 0.173156 67.7677 0.173156 67.7677C-0.579717 75.108 1.02943 77.3682 6.83851 78.7218L24.482 69.7238L27.6186 115.496C47.3641 118.602 55.7436 117.974 65.6505 112.366L64.1381 97.9803C74.3628 90.7203 88.0325 80.0453 89.9594 73.636C91.1356 69.7238 66.4345 42.7299 57.8089 38.8178ZM73.8841 72.0711L63.1993 89.0503L59.7692 56.4225L73.8841 72.0711Z" fill="#0ACF83"/>
<path d="M38.2048 56.0312L8.01465 66.2029L18.9929 60.7258L23.6978 56.0312L24.482 59.161L38.2048 56.0312Z" fill="#008F9C"/>
<path d="M6.83852 78.7225L38.597 62.6826C29.8127 65.9839 22.4576 67.7632 2.91772 77.1576C4.22586 77.8594 5.07831 78.2018 6.83852 78.7225Z" fill="#008F9C"/>
<path d="M50.5758 65.8569C51.8016 64.9971 53.32 67.4217 52.9279 70.9427C52.8159 71.9489 54.3075 70.0489 54.423 68.9866C54.9189 64.4287 50.6006 55.8147 39.2055 57.2502C36.6326 59.7135 37.1609 61.077 38.0293 63.5096L43.9101 63.5096C47.7011 63.5096 50.43 69.5439 50.9679 69.3779C51.5058 69.2118 50.7206 66.081 50.5758 65.8569Z" fill="#FFC491"/>
<path d="M40.5574 56.4227H44.4782V55.249H40.5574V56.4227Z" stroke="black"/>
<path d="M44.0861 63.0731V56.0312H40.9495V63.0731H44.0861Z" fill="#DE6A26"/>
<path d="M39.7731 36.0798C40.9013 33.1741 40.5573 29.8203 40.5573 29.8203L51.5355 34.5149C51.5355 34.5149 51.6849 36.9066 51.5355 38.4271C51.3831 39.9777 50.7513 42.3392 50.7513 42.3392C45.3409 44.5622 43.6731 43.723 37.9224 40.8295L37.8127 40.7744C37.8127 40.7744 39.1548 37.6726 39.7731 36.0798Z" fill="#FFC491"/>
<path d="M37.029 16.1276C37.8134 14.5628 38.2052 16.9101 38.2052 16.9101L42.126 7.91211L62.9062 9.47697L62.1221 21.2134C62.1221 21.2134 62.9772 23.2014 62.5142 24.3432C62.0656 25.4493 60.1617 26.2993 60.1617 26.2993C60.1617 26.2993 54.3594 35.153 48.7914 34.906C43.1626 34.6563 41.7336 32.9499 38.2049 25.1256C36.6366 24.7344 36.2446 17.6925 37.029 16.1276Z" fill="#FFC491"/>
<path d="M37.4207 16.5187C37.4206 15.7363 37.8127 2.04376 40.9494 0.870099C42.383 0.33365 44.8702 0.870099 44.8702 0.870099C56.5823 -1.22966 62.3032 -0.365061 67.6108 12.9978C68.787 14.5627 62.5138 20.0397 61.7296 21.6045C60.9454 23.1694 62.5137 17.3012 61.7296 16.5187C60.9455 15.7363 57.4167 16.1275 57.4167 18.4748C57.4167 20.8221 48.5965 17.23 44.8702 10.2593C41.2468 12.1441 40.6181 14.6038 39.7731 20.8221C39.4636 18.2731 38.9715 17.2951 37.4207 16.5187Z" fill="#7A7779"/>
<path d="M55.8486 25.1258L54.6723 25.5171L55.0644 24.7346H54.2802L55.4565 23.561L55.8486 25.1258Z" fill="#B97B45"/>
<path d="M46.0466 23.9522L47.2228 23.561L46.8307 21.9961L45.6545 23.1698H46.4387L46.0466 23.9522Z" fill="#B97B45"/>
<path d="M44.0862 18.8664C46.8497 18.2735 48.1121 18.5026 49.5753 20.4313M54.2802 21.6049C55.5849 20.3632 56.2612 20.5844 57.4169 21.9961M46.4387 29.4292C47.0887 31.2328 47.9205 31.8812 51.5357 31.3853M46.0466 23.9522L47.2228 23.561L46.8307 21.9961L45.6545 23.1698H46.4387L46.0466 23.9522ZM54.6723 25.5171L55.8486 25.1258L55.4565 23.561L54.2802 24.7346H55.0644L54.6723 25.5171Z" stroke="#B97B45"/>
</svg>
