<svg width="20" height="19" viewBox="0 0 20 19" fill="none" xmlns="http://www.w3.org/2000/svg">
<path d="M18 0.280273H2C1.46957 0.280273 0.960859 0.490987 0.585786 0.86606C0.210714 1.24113 0 1.74984 0 2.28027V6.28027C0 6.81071 0.210714 7.31941 0.585786 7.69449C0.960859 8.06956 1.46957 8.28027 2 8.28027H18C18.5304 8.28027 19.0391 8.06956 19.4142 7.69449C19.7893 7.31941 20 6.81071 20 6.28027V2.28027C20 1.74984 19.7893 1.24113 19.4142 0.86606C19.0391 0.490987 18.5304 0.280273 18 0.280273ZM2 6.28027V2.28027H18V6.28027H2ZM18 10.2803H2C1.46957 10.2803 0.960859 10.491 0.585786 10.8661C0.210714 11.2411 0 11.7498 0 12.2803V16.2803C0 16.8107 0.210714 17.3194 0.585786 17.6945C0.960859 18.0696 1.46957 18.2803 2 18.2803H18C18.5304 18.2803 19.0391 18.0696 19.4142 17.6945C19.7893 17.3194 20 16.8107 20 16.2803V12.2803C20 11.7498 19.7893 11.2411 19.4142 10.8661C19.0391 10.491 18.5304 10.2803 18 10.2803ZM2 16.2803V12.2803H18V16.2803H2Z" fill="white"/>
<path d="M15 3.28027H17V5.28027H15V3.28027ZM12 3.28027H14V5.28027H12V3.28027ZM15 13.2803H17V15.2803H15V13.2803ZM12 13.2803H14V15.2803H12V13.2803Z" fill="white"/>
</svg>
