<svg width="15" height="15" viewBox="0 0 15 15" fill="none" xmlns="http://www.w3.org/2000/svg">
<path d="M1.25 2H13.75C14.4062 2 15 2.58056 15 3.22222V11.7778C15 12.4194 14.4062 13 13.75 13H1.25C0.59375 13 0 12.4194 0 11.7778V3.22222C0 2.58056 0.59375 2 1.25 2ZM8.75 3.83333V4.44444H13.75V3.83333H8.75ZM8.75 5.05556V5.66667H13.75V5.05556H8.75ZM8.75 6.27778V6.88889H13.125V6.27778H8.75ZM5 8.66722C3.75 8.66722 1.25 9.33333 1.25 10.5556V11.1667H8.75V10.5556C8.75 9.33333 6.25 8.66722 5 8.66722ZM5 3.83333C4.50272 3.83333 4.02581 4.02649 3.67417 4.3703C3.32254 4.71412 3.125 5.18044 3.125 5.66667C3.125 6.1529 3.32254 6.61921 3.67417 6.96303C4.02581 7.30685 4.50272 7.5 5 7.5C5.49728 7.5 5.97419 7.30685 6.32583 6.96303C6.67746 6.61921 6.875 6.1529 6.875 5.66667C6.875 5.18044 6.67746 4.71412 6.32583 4.3703C5.97419 4.02649 5.49728 3.83333 5 3.83333Z" fill="white"/>
</svg>
