<svg width="15" height="11" viewBox="0 0 15 11" fill="none" xmlns="http://www.w3.org/2000/svg">
<path d="M1.25 0H13.75C14.4062 0 15 0.580556 15 1.22222V9.77778C15 10.4194 14.4062 11 13.75 11H1.25C0.59375 11 0 10.4194 0 9.77778V1.22222C0 0.580556 0.59375 0 1.25 0ZM8.75 1.83333V2.44444H13.75V1.83333H8.75ZM8.75 3.05556V3.66667H13.75V3.05556H8.75ZM8.75 4.27778V4.88889H13.125V4.27778H8.75ZM5 6.66722C3.75 6.66722 1.25 7.33333 1.25 8.55556V9.16667H8.75V8.55556C8.75 7.33333 6.25 6.66722 5 6.66722ZM5 1.83333C4.50272 1.83333 4.02581 2.02649 3.67417 2.3703C3.32254 2.71412 3.125 3.18044 3.125 3.66667C3.125 4.1529 3.32254 4.61921 3.67417 4.96303C4.02581 5.30685 4.50272 5.5 5 5.5C5.49728 5.5 5.97419 5.30685 6.32583 4.96303C6.67746 4.61921 6.875 4.1529 6.875 3.66667C6.875 3.18044 6.67746 2.71412 6.32583 2.3703C5.97419 2.02649 5.49728 1.83333 5 1.83333Z" fill="white"/>
</svg>
