<svg width="21" height="21" viewBox="0 0 21 21" fill="none" xmlns="http://www.w3.org/2000/svg">
<path d="M5.40148 16.0517H16.5126C16.7348 16.0517 16.9015 15.9498 17.0126 15.7461C17.1237 15.5424 17.1052 15.3479 16.957 15.1628L13.9015 11.0794C13.7904 10.9313 13.6422 10.8572 13.457 10.8572C13.2718 10.8572 13.1237 10.9313 13.0126 11.0794L10.1237 14.9405L8.06814 12.1905C7.95703 12.0424 7.80888 11.9683 7.6237 11.9683C7.43851 11.9683 7.29037 12.0424 7.17925 12.1905L4.95703 15.1628C4.80888 15.3479 4.79036 15.5424 4.90148 15.7461C5.01259 15.9498 5.17925 16.0517 5.40148 16.0517ZM3.17925 20.4961C2.56814 20.4961 2.04481 20.2787 1.60925 19.8439C1.17444 19.4083 0.957031 18.885 0.957031 18.2739V2.71832C0.957031 2.1072 1.17444 1.58387 1.60925 1.14832C2.04481 0.713501 2.56814 0.496094 3.17925 0.496094H18.7348C19.3459 0.496094 19.8693 0.713501 20.3048 1.14832C20.7396 1.58387 20.957 2.1072 20.957 2.71832V18.2739C20.957 18.885 20.7396 19.4083 20.3048 19.8439C19.8693 20.2787 19.3459 20.4961 18.7348 20.4961H3.17925ZM3.17925 18.2739H18.7348V2.71832H3.17925V18.2739ZM3.17925 2.71832V18.2739V2.71832Z" fill="#BDBDBD"/>
</svg>
