<svg width="15" height="13" viewBox="0 0 15 13" fill="none" xmlns="http://www.w3.org/2000/svg">
<path d="M8.19229 0.5H10.9615V1.91176H8.19229V0.5ZM1.26921 4.02941H4.03844V5.44118H1.26921V4.02941ZM1.26921 9.67647H4.03844V11.0882H1.26921V9.67647ZM0.576904 6.85294H3.33921V8.26471H0.576904V6.85294ZM14.2202 3.11671L13.2413 2.11859L12.0595 3.32353C11.3105 2.86199 10.4521 2.61791 9.5769 2.61765C6.90529 2.61765 4.73075 4.83482 4.73075 7.55882C4.73075 10.2828 6.90529 12.5 9.5769 12.5C12.2485 12.5 14.4231 10.2828 14.4231 7.55882C14.4224 6.32075 13.9638 5.12848 13.1388 4.22L14.2202 3.11671ZM10.2692 8.26471H8.8846V4.70565H10.2692V8.26471Z" fill="white"/>
</svg>
