<svg width="13" height="8" viewBox="0 0 13 8" fill="none" xmlns="http://www.w3.org/2000/svg">
<path d="M12.997 3.24202C12.9906 3.17197 12.9582 3.10688 12.9061 3.0596C12.854 3.01232 12.7861 2.98629 12.7158 2.98665L6.8179 2.98665C6.42925 1.4972 5.07652 0.393555 3.46693 0.393555C1.55505 0.393555 0 1.94861 0 3.86048C0 5.7728 1.55505 7.32741 3.46693 7.32741C5.17708 7.32741 6.5978 6.08241 6.87976 4.4522H8.19319L8.19319 6.32253H8.19529C8.20038 6.39382 8.23228 6.46054 8.28456 6.50927C8.33684 6.558 8.40563 6.58514 8.4771 6.58522C8.48098 6.58522 8.48442 6.58432 8.4883 6.58417V6.58582H9.39979C9.47128 6.58581 9.54011 6.55825 9.5924 6.5095C9.6447 6.46075 9.67657 6.394 9.6816 6.32268H9.68399L9.68399 4.45235H10.428L10.428 7.34414H10.4302C10.4354 7.41545 10.4673 7.48216 10.5196 7.53092C10.5719 7.57968 10.6407 7.6069 10.7122 7.60713L10.7153 7.60683H11.6286L11.6317 7.60713C11.7032 7.60687 11.772 7.57964 11.8242 7.53088C11.8765 7.48212 11.9085 7.41543 11.9137 7.34414H11.9159L11.9159 4.4522H12.7161C12.7914 4.45208 12.8635 4.42181 12.9168 4.36856C12.97 4.31531 12.9999 4.24313 13 4.16784L12.9999 3.24187L12.997 3.24202ZM3.46693 5.87292C2.37046 5.87292 1.4784 4.98026 1.4784 3.88394C1.4784 2.78747 2.37046 1.89496 3.46693 1.89496C4.56325 1.89496 5.45486 2.78747 5.45486 3.88394C5.45501 4.98041 4.56325 5.87292 3.46693 5.87292Z" fill="#646D8D"/>
</svg>
