<svg width="12" height="10" viewBox="0 0 12 10" fill="none" xmlns="http://www.w3.org/2000/svg">
<path d="M10.9697 2.3407C11.1475 2.36537 11.3148 2.43952 11.4524 2.5547C11.5905 2.66801 11.694 2.81786 11.751 2.98715C11.808 3.15644 11.8162 3.33835 11.7748 3.5121L10.548 8.72731C10.5178 8.85348 10.4625 8.97226 10.3853 9.07651C10.3081 9.18076 10.2107 9.26832 10.0987 9.33393C9.98685 9.39954 9.86283 9.44185 9.73417 9.45831C9.6055 9.47478 9.35001 9.42972 9.35001 9.42972H2.64818C2.64818 9.42972 2.47959 9.46756 2.3932 9.46821C2.17558 9.46883 1.96411 9.39603 1.79299 9.26158C1.62188 9.12713 1.50111 8.93889 1.45023 8.72731L0.228213 3.5121C0.185815 3.33751 0.193397 3.15452 0.250093 2.98404C0.306789 2.81356 0.41031 2.66247 0.548823 2.54804C0.687336 2.43362 0.855249 2.36048 1.03337 2.33698C1.21149 2.31349 1.39262 2.34059 1.55607 2.41518L3.8269 3.4255L5.15956 1.02959C5.24278 0.879192 5.36475 0.753831 5.51282 0.666537C5.66088 0.579243 5.82962 0.533203 6.0015 0.533203C6.17338 0.533203 6.34213 0.579243 6.49019 0.666537C6.63825 0.753831 6.76023 0.879192 6.84344 1.02959L8.17611 3.4255L10.4469 2.41518C10.6108 2.34184 10.7919 2.31603 10.9697 2.3407Z" fill="white"/>
</svg>
