<svg width="19" height="10" viewBox="0 0 19 10" fill="none" xmlns="http://www.w3.org/2000/svg">
<path d="M6.03351 5.00067C6.03351 5.22165 6.12429 5.43357 6.28588 5.58983C6.44748 5.74608 6.66664 5.83386 6.89517 5.83386H12.0651C12.2936 5.83386 12.5128 5.74608 12.6744 5.58983C12.836 5.43357 12.9268 5.22165 12.9268 5.00067C12.9268 4.77969 12.836 4.56777 12.6744 4.41151C12.5128 4.25526 12.2936 4.16747 12.0651 4.16747H6.89517C6.66664 4.16747 6.44748 4.25526 6.28588 4.41151C6.12429 4.56777 6.03351 4.77969 6.03351 5.00067Z" fill="white"/>
<path d="M6.89517 8.33345H5.3528C4.46733 8.3563 3.60487 8.05901 2.93402 7.49969C2.26317 6.94036 1.83216 6.15922 1.72524 5.30895C1.68076 4.84608 1.73692 4.37933 1.8901 3.93869C2.04329 3.49806 2.2901 3.09329 2.6147 2.75038C2.93929 2.40748 3.33448 2.13402 3.77487 1.9476C4.21526 1.76117 4.69112 1.6659 5.17186 1.66789H6.89517C7.12369 1.66789 7.34286 1.58011 7.50445 1.42385C7.66604 1.2676 7.75682 1.05567 7.75682 0.834694C7.75682 0.613717 7.66604 0.401791 7.50445 0.245537C7.34286 0.0892822 7.12369 0.00149926 6.89517 0.00149926H5.3528C4.07559 -0.0150048 2.83519 0.415141 1.85992 1.21276C0.884642 2.01038 0.240129 3.1218 0.0450096 4.34244C-0.0519732 5.04849 0.00818747 5.76643 0.221462 6.44817C0.434737 7.12991 0.796201 7.75971 1.28165 8.29539C1.76709 8.83107 2.36531 9.26026 3.03623 9.55421C3.70715 9.84817 4.43528 10.0001 5.17186 9.99984H6.89517C7.12369 9.99984 7.34286 9.91206 7.50445 9.7558C7.66604 9.59955 7.75682 9.38762 7.75682 9.16664C7.75682 8.94567 7.66604 8.73374 7.50445 8.57748C7.34286 8.42123 7.12369 8.33345 6.89517 8.33345ZM18.9583 4.36744C18.7656 3.13141 18.1131 2.00586 17.1232 1.20202C16.1332 0.398178 14.8739 -0.0286989 13.5816 0.00149926H12.2805C11.5826 0.00149926 11.2034 0.376437 11.2034 0.834694C11.2034 1.05567 11.2942 1.2676 11.4558 1.42385C11.6174 1.58011 11.8366 1.66789 12.0651 1.66789H13.6075C14.4929 1.64503 15.3554 1.94233 16.0262 2.50165C16.6971 3.06097 17.1281 3.84212 17.235 4.69239C17.2795 5.15526 17.2233 5.62201 17.0702 6.06264C16.917 6.50328 16.6702 6.90805 16.3456 7.25096C16.021 7.59386 15.6258 7.86731 15.1854 8.05374C14.745 8.24016 14.2691 8.33544 13.7884 8.33345H12.0651C11.8366 8.33345 11.6174 8.42123 11.4558 8.57748C11.2942 8.73374 11.2034 8.94567 11.2034 9.16664C11.2034 9.38762 11.2942 9.59955 11.4558 9.7558C11.6174 9.91206 11.8366 9.99984 12.0651 9.99984H13.7884C14.5261 10.0056 15.2566 9.8586 15.9307 9.56874C16.6048 9.27889 17.2069 8.85288 17.6966 8.31935C18.1864 7.78582 18.5523 7.15711 18.77 6.47548C18.9876 5.79385 19.0518 5.07507 18.9583 4.36744Z" fill="white"/>
</svg>
