<svg width="52" height="52" viewBox="0 0 52 52" fill="none" xmlns="http://www.w3.org/2000/svg">
<path d="M21.7141 11.7316C22.3288 9.4428 23.6201 7.33567 25.5879 5.41022C27.3196 3.71582 29.1381 2.56926 31.0433 1.97052C32.2643 1.60289 33.457 1.47126 34.6213 1.57564C35.8133 1.68248 36.5409 2.80989 36.447 3.97894C36.322 5.53339 34.7745 6.55813 33.2196 6.8907C31.8375 7.1863 30.5363 7.93113 29.316 9.12518C27.6827 10.7233 27.0203 12.5027 27.3288 14.4633C27.6373 16.424 28.9071 18.4986 31.1382 20.6872C33.3888 22.895 35.5047 24.1417 37.486 24.4272C39.5065 24.7127 41.3531 24.0372 43.0257 22.4005C44.197 21.2544 44.9271 20.0034 45.216 18.6473C45.5408 17.1227 46.5922 15.6293 48.1771 15.5091C49.3834 15.4175 50.5475 16.1399 50.6481 17.3211C50.7441 18.4493 50.599 19.6007 50.2128 20.7752C49.6188 22.6603 48.4559 24.45 46.7242 26.1444C44.7564 28.0698 42.604 29.3322 40.2671 29.9316C38.2967 30.4369 36.2998 30.4503 34.2764 29.9716L31.9353 29.6068C30.4213 29.3709 29.113 30.651 29.3519 32.1346L29.7005 34.2993C29.7022 34.3098 29.6949 34.3196 29.6841 34.3213C29.6727 34.3231 29.6653 34.3341 29.6681 34.3451C30.1817 36.3654 30.1746 38.3581 29.6468 40.3232C29.032 42.612 27.7407 44.7191 25.7729 46.6446C24.0412 48.339 22.213 49.4759 20.2882 50.0555C19.0888 50.4324 17.9134 50.5731 16.762 50.4775C15.5565 50.3775 14.8206 49.2361 14.9156 48.0544C15.0404 46.5017 16.566 45.4736 18.1226 45.1573C19.5071 44.8761 20.785 44.1624 21.9563 43.0163C23.629 41.3796 24.3209 39.5714 24.0321 37.5915C23.7431 35.65 22.4733 33.5754 20.2227 31.3676C17.9917 29.179 15.8757 27.9323 13.8749 27.6276C11.874 27.3228 10.057 27.9695 8.4237 29.5676C7.20338 30.7617 6.44147 32.0355 6.13798 33.3892C5.79653 34.9122 4.74861 36.427 3.16182 36.5474C1.96846 36.638 0.818642 35.9236 0.71111 34.7557C0.606063 33.6148 0.741939 32.4465 1.11874 31.2508C1.73231 29.3849 2.90493 27.6048 4.63661 25.9104C6.60443 23.985 8.75682 22.7226 11.0938 22.1232C13.0575 21.6196 15.0406 21.5978 17.0432 22.058L17.4069 22.1147C19.9365 22.5089 22.1224 20.3701 21.7233 17.8913C21.5031 17.063 21.3336 16.0105 21.2882 15.1893C21.2473 14.0311 21.4067 12.8759 21.7141 11.7316Z" fill="white"/>
<path d="M6.04897 39.4893C5.56818 37.9767 3.95849 37.1422 2.45362 37.6254C0.948745 38.1087 0.118559 39.7267 0.599344 41.2394C1.39612 43.7462 2.37711 45.8602 4.07214 47.5273C5.76611 49.1932 7.89743 50.1416 10.4325 50.8973C11.9471 51.3488 13.5391 50.4807 13.9883 48.9582C14.4375 47.4358 13.5738 45.8356 12.0592 45.3841C9.88104 44.7347 8.79161 44.1235 8.0731 43.4168C7.35565 42.7112 6.73243 41.6396 6.04897 39.4893Z" fill="#1EA7FD"/>
<path d="M45.9507 12.5118C46.4315 14.0245 48.0412 14.8589 49.5461 14.3757C51.051 13.8924 51.8812 12.2744 51.4004 10.7617C50.6036 8.25487 49.6226 6.14086 47.9276 4.47386C46.2336 2.80789 44.1023 1.85956 41.5672 1.10381C40.0526 0.652286 38.4606 1.52044 38.0114 3.04288C37.5622 4.56532 38.4259 6.16553 39.9405 6.61705C42.1187 7.2664 43.2081 7.87765 43.9266 8.58428C44.6441 9.28988 45.2673 10.3615 45.9507 12.5118Z" fill="#1EA7FD"/>
</svg>
