<svg width="50" height="49" viewBox="-10 -10 70 70"  fill="none" xmlns="http://www.w3.org/2000/svg">
<path d="M2.45443 24.6643C-1.35507 28.901 -0.239224 35.2353 3.7603 40.6761C6.45394 44.3404 9.95372 47.1131 14.0311 48.1979C16.9011 48.9615 19.2848 48.7241 21.2954 47.903C23.1584 47.1422 23.283 44.747 21.9141 43.2767L21.6258 42.967C20.1794 41.4134 17.426 41.6095 15.3007 41.4926C13.8788 41.4143 12.0867 40.6677 10.0185 38.4463C8.02224 36.3022 7.39816 34.5341 7.40202 33.1588C7.40807 31.0022 7.87781 28.2005 6.40432 26.6178L4.66535 24.75C4.06785 24.1083 3.04042 24.0126 2.45443 24.6643Z" fill="white"/>
<path d="M21.3873 40.11C20.9923 39.6912 20.7862 39.1303 20.8166 38.557L21.2486 30.4063C21.3119 29.2118 20.3637 28.204 19.1612 28.1877L10.7924 28.0743C10.2123 28.0664 9.66068 27.8222 9.2664 27.3987L6.81649 24.7673C5.54843 23.4053 6.54136 21.1966 8.40699 21.2294L21.2233 21.4544C21.4755 21.4588 21.6864 21.2747 21.721 21.0331C21.1517 20.0145 20.7096 18.9787 20.3948 17.9256C19.6653 15.4402 19.6561 13.0228 20.3673 10.6736C21.0785 8.32435 22.4744 6.19161 24.5549 4.27539C26.3858 2.58911 28.295 1.48518 30.2827 0.963582C31.5275 0.620623 32.7389 0.523999 33.9169 0.673708C35.1374 0.828818 35.8402 2.03359 35.701 3.24945C35.5166 4.8591 33.9127 5.86989 32.3063 6.13708C30.8858 6.37334 29.5579 7.06028 28.3228 8.19789C26.5544 9.82668 25.7818 11.6741 26.005 13.7403C26.2297 15.7666 27.4518 17.9716 29.6712 20.3555C31.8714 22.7186 33.9881 24.0997 36.0213 24.4987C38.0546 24.8977 39.9347 24.302 41.6615 22.7116C42.9483 21.5264 43.7721 20.2399 44.1328 18.8521C44.5409 17.282 45.6745 15.7466 47.304 15.6872C48.5204 15.6429 49.6599 16.4234 49.7292 17.6322C49.7977 18.8254 49.6167 20.0372 49.1864 21.2677C48.4918 23.1782 47.229 24.9765 45.3982 26.6628C43.3177 28.579 41.0726 29.7997 38.6631 30.3248C36.2535 30.8499 33.8406 30.6657 31.4244 29.7723C30.4513 29.3962 29.5035 28.9124 28.5809 28.321C28.3631 28.3515 28.1917 28.5313 28.1789 28.7562L27.4605 41.3482C27.355 43.1971 25.075 44.0201 23.8009 42.6691L21.3873 40.11Z" fill="white"/>
<rect width="5.5622" height="12.2388" rx="2.7811" transform="matrix(0.698576 -0.715536 0.719292 0.694708 29.0569 12.8164)" fill="white"/>
<ellipse cx="15.1222" cy="34.3637" rx="2.78881" ry="2.77381" fill="white"/>
</svg>
