<svg width="11" height="10" viewBox="0 0 11 10" fill="none" xmlns="http://www.w3.org/2000/svg">
<path d="M7.84827 7.53676C7.74537 7.42378 7.69392 7.2955 7.69392 7.15192C7.69392 7.00869 7.74537 6.88927 7.84827 6.79367L8.88662 5.82895H4.85953C4.7005 5.82895 4.5673 5.77889 4.45991 5.67877C4.35214 5.57899 4.29826 5.45523 4.29826 5.30748C4.29826 5.15973 4.35214 5.0358 4.45991 4.93567C4.5673 4.8359 4.7005 4.78601 4.85953 4.78601H8.88662L7.84827 3.82129C7.73602 3.717 7.67989 3.59324 7.67989 3.45001C7.67989 3.30643 7.73602 3.18249 7.84827 3.0782C7.95117 2.97391 8.07989 2.92176 8.23442 2.92176C8.38859 2.92176 8.51712 2.96956 8.62001 3.06516L10.6406 4.94245C10.6967 4.9946 10.7366 5.05109 10.7601 5.11193C10.7833 5.17277 10.7949 5.23795 10.7949 5.30748C10.7949 5.37701 10.7833 5.4422 10.7601 5.50303C10.7366 5.56387 10.6967 5.62036 10.6406 5.67251L8.62001 7.5498C8.49841 7.66279 8.3652 7.71267 8.22039 7.69946C8.07521 7.6866 7.95117 7.63237 7.84827 7.53676ZM2.0532 10.0007C1.7445 10.0007 1.48014 9.89867 1.26013 9.6946C1.04049 9.49019 0.930664 9.24458 0.930664 8.95777V1.6572C0.930664 1.37039 1.04049 1.12478 1.26013 0.92036C1.48014 0.716292 1.7445 0.614258 2.0532 0.614258H5.4208C5.57982 0.614258 5.71322 0.664145 5.82098 0.76392C5.92837 0.864042 5.98206 0.987978 5.98206 1.13573C5.98206 1.28348 5.92837 1.40724 5.82098 1.50701C5.71322 1.60714 5.57982 1.6572 5.4208 1.6572H2.0532V8.95777H5.4208C5.57982 8.95777 5.71322 9.00783 5.82098 9.10795C5.92837 9.20773 5.98206 9.33149 5.98206 9.47924C5.98206 9.62699 5.92837 9.75075 5.82098 9.85052C5.71322 9.95065 5.57982 10.0007 5.4208 10.0007H2.0532Z" fill="white"/>
</svg>
