<svg width="20" height="25" viewBox="0 0 20 25" fill="none" xmlns="http://www.w3.org/2000/svg">
<path d="M13.5033 17.825C17.2286 18.5375 19.8684 20.3625 19.8684 22.5V25H0.131592V22.5C0.131592 20.3625 2.77139 18.5375 6.49672 17.825L10 23.75L13.5033 17.825ZM5.0658 7.50001H14.9342V10C14.9342 11.3261 14.4144 12.5979 13.489 13.5355C12.5637 14.4732 11.3086 15 10 15C8.69138 15 7.43634 14.4732 6.511 13.5355C5.58565 12.5979 5.0658 11.3261 5.0658 10V7.50001ZM5.0658 6.25001L5.57156 1.12502C5.60224 0.815611 5.74563 0.528905 5.97373 0.320882C6.20182 0.112859 6.49824 -0.00154261 6.80511 1.57129e-05H13.2072C13.8364 1.57129e-05 14.3668 0.487516 14.4285 1.12502L14.9342 6.25001H5.0658ZM10 1.25001H8.76646V2.50001H7.53291V3.75001H8.76646V5.00001H10V3.75001H11.2336V2.50001H10V1.25001Z" fill="white"/>
</svg>
