<svg width="2" height="8" viewBox="0 0 2 8" fill="none" xmlns="http://www.w3.org/2000/svg">
<path d="M1.09091 3C0.590915 3 0.181824 3.45 0.181824 4C0.181824 4.55 0.590915 5 1.09091 5C1.59091 5 2.00001 4.55 2.00001 4C2.00001 3.45 1.59091 3 1.09091 3ZM1.09091 0C0.590915 0 0.181824 0.45 0.181824 1C0.181824 1.55 0.590915 2 1.09091 2C1.59091 2 2.00001 1.55 2.00001 1C2.00001 0.45 1.59091 0 1.09091 0ZM1.09091 6C0.590915 6 0.181824 6.45 0.181824 7C0.181824 7.55 0.590915 8 1.09091 8C1.59091 8 2.00001 7.55 2.00001 7C2.00001 6.45 1.59091 6 1.09091 6Z" fill="white"/>
</svg>
