<svg width="3" height="10" viewBox="0 0 3 10" fill="none" xmlns="http://www.w3.org/2000/svg">
<path d="M1.36366 3.75C0.738659 3.75 0.227295 4.3125 0.227295 5C0.227295 5.6875 0.738659 6.25 1.36366 6.25C1.98866 6.25 2.50002 5.6875 2.50002 5C2.50002 4.3125 1.98866 3.75 1.36366 3.75ZM1.36366 0C0.738659 0 0.227295 0.5625 0.227295 1.25C0.227295 1.9375 0.738659 2.5 1.36366 2.5C1.98866 2.5 2.50002 1.9375 2.50002 1.25C2.50002 0.5625 1.98866 0 1.36366 0ZM1.36366 7.5C0.738659 7.5 0.227295 8.0625 0.227295 8.75C0.227295 9.4375 0.738659 10 1.36366 10C1.98866 10 2.50002 9.4375 2.50002 8.75C2.50002 8.0625 1.98866 7.5 1.36366 7.5Z" fill="white"/>
</svg>
