<svg width="15" height="15" viewBox="0 0 15 15" fill="none" xmlns="http://www.w3.org/2000/svg">
<path d="M14.4161 4.59376C14.0397 3.69732 13.4922 2.88252 12.8039 2.19477C12.1177 1.50582 11.3026 0.958065 10.4049 0.582604C9.48523 0.196106 8.49711 -0.00201286 7.49921 1.54174e-05H7.46566C6.45069 0.00503773 5.46927 0.20593 4.54488 0.601019C3.65485 0.98033 2.8474 1.52906 2.16766 2.21653C1.48609 2.90274 0.944783 3.71469 0.573903 4.60715C0.188909 5.53521 -0.00616922 6.53075 0.000148692 7.53516C0.00518162 8.69699 0.28367 9.85045 0.80374 10.8817V13.4263C0.80374 13.8516 1.14933 14.1964 1.57378 14.1964H4.12044C5.15869 14.7192 6.30441 14.9943 7.46734 15H7.50257C8.5058 15 9.47716 14.8058 10.3932 14.4258C11.2863 14.0548 12.0984 13.5134 12.7838 12.832C13.475 12.1473 14.0185 11.3471 14.3994 10.4548C14.7936 9.5307 14.9949 8.548 15 7.53349C15.0033 6.51396 14.8054 5.52456 14.4161 4.59376ZM4.15064 8.30358C3.70774 8.30358 3.34705 7.94365 3.34705 7.50001C3.34705 7.05637 3.70774 6.69644 4.15064 6.69644C4.59354 6.69644 4.95423 7.05637 4.95423 7.50001C4.95423 7.94365 4.59521 8.30358 4.15064 8.30358ZM7.49921 8.30358C7.05632 8.30358 6.69562 7.94365 6.69562 7.50001C6.69562 7.05637 7.05632 6.69644 7.49921 6.69644C7.94211 6.69644 8.30281 7.05637 8.30281 7.50001C8.30281 7.94365 7.94211 8.30358 7.49921 8.30358ZM10.8478 8.30358C10.4049 8.30358 10.0442 7.94365 10.0442 7.50001C10.0442 7.05637 10.4049 6.69644 10.8478 6.69644C11.2907 6.69644 11.6514 7.05637 11.6514 7.50001C11.6514 7.94365 11.2907 8.30358 10.8478 8.30358Z" fill="white"/>
</svg>
