<svg width="38" height="39" viewBox="0 0 38 39" fill="none" xmlns="http://www.w3.org/2000/svg">
<path fill-rule="evenodd" clip-rule="evenodd" d="M35.1377 12.8854C34.2594 10.7937 32.9817 8.8925 31.3758 7.28775C29.7747 5.68021 27.8728 4.40211 25.7781 3.52604C23.6322 2.62421 21.3266 2.16193 18.9982 2.16666H18.9199C16.5516 2.17838 14.2616 2.64713 12.1047 3.569C10.028 4.45406 8.14392 5.73442 6.55788 7.33853C4.96754 8.93968 3.70449 10.8342 2.83911 12.9167C1.94079 15.0821 1.48561 17.405 1.50035 19.7487C1.51209 22.4596 2.1619 25.151 3.37539 27.5573V33.4948C3.37539 34.4869 4.18178 35.2916 5.17215 35.2916H11.1144C13.5369 36.5115 16.2103 37.1533 18.9238 37.1666H19.006C21.3469 37.1666 23.6134 36.7135 25.7507 35.8268C27.8348 34.9612 29.7296 33.698 31.3288 32.108C32.9416 30.5104 34.2099 28.6432 35.0985 26.5612C36.0184 24.4049 36.4882 22.112 36.4999 19.7448C36.5077 17.3659 36.0458 15.0573 35.1377 12.8854ZM9.30978 19.6666C9.30978 20.7018 10.1514 21.5416 11.1848 21.5416C12.2222 21.5416 13.0599 20.7018 13.0599 19.6666C13.0599 18.6315 12.2183 17.7916 11.1848 17.7916C10.1514 17.7916 9.30978 18.6315 9.30978 19.6666ZM17.1231 19.6666C17.1231 20.7018 17.9647 21.5416 18.9982 21.5416C20.0316 21.5416 20.8732 20.7018 20.8732 19.6666C20.8732 18.6315 20.0316 17.7916 18.9982 17.7916C17.9647 17.7916 17.1231 18.6315 17.1231 19.6666ZM24.9365 19.6666C24.9365 20.7018 25.7781 21.5416 26.8115 21.5416C27.8449 21.5416 28.6866 20.7018 28.6866 19.6666C28.6866 18.6315 27.8449 17.7916 26.8115 17.7916C25.7781 17.7916 24.9365 18.6315 24.9365 19.6666Z" stroke="white" stroke-width="3"/>
</svg>
