<svg width="10" height="10" viewBox="0 0 10 10" fill="none" xmlns="http://www.w3.org/2000/svg">
<path d="M0.72009 1.94C0.575238 1.78005 0.496379 1.5685 0.500128 1.34991C0.503876 1.13132 0.589939 0.922765 0.740185 0.768176C0.890431 0.613586 1.09313 0.525035 1.30558 0.521178C1.51802 0.517321 1.72363 0.59846 1.87908 0.7475L5.4326 4.40375C5.58616 4.56195 5.67242 4.77641 5.67242 5C5.67242 5.22359 5.58616 5.43805 5.4326 5.59625L1.87908 9.2525C1.72363 9.40154 1.51802 9.48268 1.30558 9.47882C1.09313 9.47497 0.890431 9.38641 0.740185 9.23182C0.589939 9.07723 0.503876 8.86868 0.500128 8.65009C0.496379 8.4315 0.575238 8.21995 0.72009 8.06L3.69411 5L0.72009 1.94ZM8.67996 9.5C8.89745 9.5 9.10603 9.4111 9.25982 9.25287C9.4136 9.09464 9.5 8.88003 9.5 8.65625V1.34375C9.5 1.11997 9.4136 0.905362 9.25982 0.747129C9.10603 0.588895 8.89745 0.5 8.67996 0.5C8.46247 0.5 8.25389 0.588895 8.1001 0.747129C7.94631 0.905362 7.85992 1.11997 7.85992 1.34375V8.65625C7.85992 9.122 8.2273 9.5 8.67996 9.5Z" fill="white"/>
</svg>
