<svg width="22" height="15" viewBox="0 0 22 15" fill="none" xmlns="http://www.w3.org/2000/svg">
<path d="M1 1.05833L2.28 0L19 13.9333L17.73 15L14.65 12.4333C13.5 12.75 12.28 12.9167 11 12.9167C6 12.9167 1.73 10.325 0 6.66667C0.69 5.2 1.79 3.90833 3.19 2.88333L1 1.05833ZM11 4.16667C11.7956 4.16667 12.5587 4.43006 13.1213 4.8989C13.6839 5.36774 14 6.00363 14 6.66667C14.0005 6.95047 13.943 7.23228 13.83 7.5L10 4.30833C10.3213 4.21415 10.6594 4.16625 11 4.16667ZM11 0.416667C16 0.416667 20.27 3.00833 22 6.66667C21.1839 8.39434 19.7969 9.89393 18 10.9917L16.58 9.8C17.9629 9.00282 19.0782 7.92421 19.82 6.66667C19.0116 5.29162 17.7564 4.13314 16.1973 3.32292C14.6381 2.5127 12.8375 2.08323 11 2.08333C9.91 2.08333 8.84 2.23333 7.84 2.5L6.3 1.225C7.74 0.708333 9.33 0.416667 11 0.416667ZM2.18 6.66667C2.98844 8.04172 4.24357 9.20019 5.80273 10.0104C7.36189 10.8206 9.16254 11.2501 11 11.25C11.69 11.25 12.37 11.1917 13 11.075L10.72 9.16667C10.0242 9.10451 9.37482 8.84573 8.87997 8.43335C8.38512 8.02098 8.07458 7.47986 8 6.9L4.6 4.05833C3.61 4.76667 2.78 5.65 2.18 6.66667Z" fill="white"/>
</svg>
