<svg width="23" height="21" viewBox="0 0 23 21" fill="none" xmlns="http://www.w3.org/2000/svg">
<path d="M1.43701 3.83348L2.71701 2.56348L19.437 19.2835L18.167 20.5635L15.087 17.4835C13.937 17.8635 12.717 18.0635 11.437 18.0635C6.43701 18.0635 2.16701 14.9535 0.437012 10.5635C1.12701 8.80348 2.22701 7.25348 3.62701 6.02348L1.43701 3.83348ZM11.437 7.56348C12.2327 7.56348 12.9957 7.87955 13.5583 8.44216C14.1209 9.00476 14.437 9.76783 14.437 10.5635C14.4375 10.904 14.38 11.2422 14.267 11.5635L10.437 7.73348C10.7583 7.62046 11.0964 7.56297 11.437 7.56348M11.437 3.06348C16.437 3.06348 20.707 6.17348 22.437 10.5635C21.6209 12.6367 20.234 14.4362 18.437 15.7535L17.017 14.3235C18.3999 13.3669 19.5152 12.0725 20.257 10.5635C19.4486 8.91342 18.1934 7.52325 16.6343 6.55098C15.0751 5.57872 13.2745 5.06336 11.437 5.06348C10.347 5.06348 9.27701 5.24348 8.27701 5.56348L6.73701 4.03348C8.17701 3.41348 9.76701 3.06348 11.437 3.06348ZM2.61701 10.5635C3.42545 12.2135 4.68058 13.6037 6.23974 14.576C7.7989 15.5482 9.59955 16.0636 11.437 16.0635C12.127 16.0635 12.807 15.9935 13.437 15.8535L11.157 13.5635C10.4612 13.4889 9.81184 13.1784 9.31699 12.6835C8.82214 12.1887 8.5116 11.5393 8.43701 10.8435L5.03701 7.43348C4.04701 8.28348 3.21701 9.34348 2.61701 10.5635V10.5635Z" fill="white"/>
</svg>
