<svg width="60" height="69" viewBox="0 0 60 69" fill="none" xmlns="http://www.w3.org/2000/svg">
<path d="M55.498 68.5737L55.498 4.85352L6.54039 4.85352L6.54039 68.5737H55.498Z" fill="black" fill-opacity="0.2"/>
<path d="M49.798 68.5737L49.798 26.1582L58.0157 20.3058C58.8061 19.7429 59.2754 18.8325 59.2754 17.8622V7.85352C59.2754 6.19666 57.9322 4.85352 56.2754 4.85352L0.840332 4.85352L0.840332 68.5737H49.798Z" fill="#626ED4"/>
<path d="M29.7269 25.2125V25.7125H30.2269H35.832C36.6605 25.7125 37.332 26.3841 37.332 27.2125V29.9843C37.332 30.8127 36.6605 31.4843 35.832 31.4843H30.2269H29.7269V31.9843V37.5859C29.7269 38.4144 29.0553 39.0859 28.2269 39.0859H25.4551C24.6267 39.0859 23.9551 38.4144 23.9551 37.5859V31.9843V31.4843H23.4551H17.8535C17.0251 31.4843 16.3535 30.8127 16.3535 29.9843V27.2125C16.3535 26.3841 17.0251 25.7125 17.8535 25.7125H23.4551H23.9551V25.2125V19.6074C23.9551 18.779 24.6267 18.1074 25.4551 18.1074H28.2269C29.0553 18.1074 29.7269 18.779 29.7269 19.6074V25.2125Z" fill="#FF4B59" stroke="#18191C"/>
<rect x="4.81641" y="44.834" width="10.6777" height="2.64844" fill="white" fill-opacity="0.2"/>
<rect x="4.81641" y="49.9414" width="22.0762" height="2.64844" fill="white" fill-opacity="0.2"/>
<rect x="4.81641" y="55.0488" width="31.2559" height="2.64844" fill="white" fill-opacity="0.2"/>
<path d="M11.1928 9.01757V11.9553C11.1928 13.2399 10.1515 14.2812 8.86691 14.2812V14.2812C7.58236 14.2812 6.54102 13.2399 6.54102 11.9553V4.73174C6.54102 2.90591 8.02127 1.42578 9.84711 1.42578V1.42578C11.6728 1.42578 13.1529 2.90579 13.1529 4.73148V4.73148" stroke="black" stroke-width="2" stroke-linecap="round"/>
</svg>
