<svg width="18" height="22" viewBox="0 0 18 22" fill="none" xmlns="http://www.w3.org/2000/svg">
<path fill-rule="evenodd" clip-rule="evenodd" d="M9.39534 3.35058H8.76668V3.93733H8.13803V4.52407H8.76668V5.11082H9.39534V4.52407H10.024V3.93733H9.39534V3.35058Z" fill="white"/>
<path fill-rule="evenodd" clip-rule="evenodd" d="M16.9255 15.7531C15.6134 13.2594 14.3014 13.6531 12.8581 13.5219C12.3149 13.4549 11.9952 13.3478 11.4149 13.1281C11.1525 12.9969 10.89 12.7344 10.89 12.3406C10.89 11.5531 11.9397 11.8156 12.7269 10.3719C12.7269 10.3719 13.9078 7.35313 13.5142 4.72813H12.2021C12.2021 4.46563 12.3333 4.33438 12.3333 4.07188C12.3333 3.80938 12.3333 3.67813 12.2021 3.41563H13.2517C13.2517 3.41563 13.0599 2.1125 12.6003 1.69931C11.8984 1.06828 10.5596 0.921875 9.05317 0.921875C7.56885 0.921875 6.10392 1.05568 5.37379 1.69931C4.87767 2.13664 4.72339 3.54688 4.72339 3.54688H5.77304C5.77304 3.80938 5.64183 3.94063 5.64183 4.20313C5.64183 4.46563 5.64183 4.59687 5.77304 4.85938H4.46098C4.19857 7.48438 5.24821 10.5031 5.24821 10.5031C6.03545 11.8156 7.08509 11.5531 7.08509 12.4719C7.08509 13.1281 6.42906 13.3906 5.64183 13.5219C5.10253 13.514 4.81858 13.507 4.06737 13.5219C3.14893 13.6531 2.09929 14.0469 1.18085 15.7531C0.393616 17.1969 0 21.9219 0 21.9219H17.9751C18.1063 21.9219 17.7127 17.1969 16.9255 15.7531ZM9.05317 2.23437C8.00353 2.23437 7.08509 3.15313 7.08509 4.20313C7.08509 5.25313 8.00353 6.17187 9.05317 6.17187C10.1028 6.17187 11.0213 5.25313 11.0213 4.20313C11.0213 3.15313 10.1028 2.23437 9.05317 2.23437Z" fill="white"/>
</svg>
