<svg width="17" height="22" viewBox="0 0 17 22" fill="none" xmlns="http://www.w3.org/2000/svg">
<path d="M11.5175 15.473C14.7262 16.0715 17 17.6045 17 19.4V21.5H0V19.4C0 17.6045 2.27375 16.0715 5.4825 15.473L8.5 20.45L11.5175 15.473ZM4.25 6.80001H12.75V8.90001C12.75 10.0139 12.3022 11.0822 11.5052 11.8699C10.7082 12.6575 9.62717 13.1 8.5 13.1C7.37283 13.1 6.29183 12.6575 5.4948 11.8699C4.69777 11.0822 4.25 10.0139 4.25 8.90001V6.80001ZM4.25 5.75001L4.68563 1.44501C4.71205 1.18511 4.83556 0.94428 5.03203 0.769541C5.22849 0.594802 5.48381 0.498704 5.74813 0.500013H11.2625C11.8044 0.500013 12.2613 0.909513 12.3144 1.44501L12.75 5.75001H4.25ZM8.5 1.55001H7.4375V2.60001H6.375V3.65001H7.4375V4.70001H8.5V3.65001H9.5625V2.60001H8.5V1.55001Z" fill="#BDBDBD"/>
</svg>
