<svg width="25" height="25" viewBox="0 0 25 25" fill="none" xmlns="http://www.w3.org/2000/svg">
<path d="M10.0325 8.00594C11.0067 8.08893 11.9714 7.74818 12.715 7.05845C13.4585 6.36873 13.9202 5.38634 13.9988 4.32679C14.0742 3.26637 13.7601 2.21667 13.1251 1.40787C12.4901 0.599075 11.5862 0.0971984 10.6116 0.0122994C9.63717 -0.0708626 8.67224 0.270166 7.9288 0.960459C7.18537 1.65075 6.72426 2.63385 6.64676 3.69375C6.60873 4.21878 6.66613 4.74681 6.81569 5.2477C6.96526 5.74859 7.20406 6.21253 7.51845 6.61303C7.83285 7.01353 8.21669 7.34274 8.64805 7.58187C9.07941 7.82099 9.54985 7.96536 10.0325 8.00671V8.00594Z" fill="white"/>
<path d="M11.0431 16.0426C11.6113 16.1615 12.1235 16.4924 12.4912 16.9783C12.859 17.4641 13.0592 18.0745 13.0573 18.7038C13.0572 19.4226 12.7946 20.1119 12.3274 20.6201C11.8601 21.1284 11.2265 21.414 10.5657 21.4142H2.49193C2.23233 21.4143 1.97669 21.3449 1.74757 21.2121C1.51845 21.0793 1.32289 20.8872 1.17815 20.6528C1.03341 20.4184 0.943923 20.1488 0.917595 19.8678C0.891267 19.5869 0.928902 19.3032 1.02718 19.0418L1.9001 16.8254L11.6222 9.2505H6.99C5.21097 9.19673 3.96092 9.86895 3.24408 11.3932C2.75818 12.4188 0.177571 18.69 0.177571 18.69C0.0266316 19.1013 -0.0293577 19.5466 0.0145013 19.9869C0.0583603 20.4271 0.200732 20.849 0.42916 21.2156C0.657588 21.5822 0.965113 21.8823 1.32484 22.0897C1.68456 22.2971 2.08552 22.4054 2.49264 22.4052H5.64602L5.28326 25H13.9543L14.5659 16.4997C14.5659 16.4997 15.5242 20.0421 15.5956 20.2979C15.8011 21.0293 16.2644 21.554 16.7397 21.9727C17.018 22.214 20.2248 22.1304 22.4591 22.1379C22.7508 22.1389 23.2061 22.1379 23.2061 22.1379C23.2061 22.1379 23.6425 22.1291 23.8501 22.0561C24.0578 21.983 24.2502 21.8662 24.4164 21.7122C24.5825 21.5583 24.7191 21.3702 24.8184 21.1588C24.9177 20.9473 24.9777 20.7167 24.995 20.48C25.0166 20.1781 24.9684 19.8751 24.8549 19.5986C24.7415 19.3221 24.5663 19.0808 24.3452 18.8967C24.3452 18.8967 18.9333 19.2232 18.7419 19.0703C18.6013 18.9476 18.4941 18.7856 18.4319 18.6016L16.5695 11.3048C16.2665 10.2008 15.2439 9.25127 13.9507 9.25127H13.3935L11.0424 16.0434L11.0431 16.0426Z" fill="white"/>
<path d="M10.5657 20.4232C10.9715 20.427 11.363 20.2605 11.6587 19.9583C11.9545 19.6562 12.1317 19.2415 12.1536 18.8008C12.1754 18.36 12.0401 17.9271 11.776 17.5921C11.5118 17.257 11.139 17.0457 10.7352 17.0021L9.5805 20.4339L10.5657 20.4232Z" fill="white"/>
</svg>
