<svg width="873" height="216" viewBox="0 0 873 216" fill="none" xmlns="http://www.w3.org/2000/svg">
<g clip-path="url(#clip0_7862_4849)">
<rect width="873" height="216" rx="17" fill="#2C3964"/>
<rect x="-43.3989" y="-28.5" width="959" height="285" fill="#2C3964"/>
<path d="M345 -36.5C391.833 -28 485.2 33.1 406 67.5C307 110.5 547.5 197 496 221M423 -50C468 32 536.5 12 496 54.5C455.5 97 476.939 133.271 505.5 171C527.109 199.545 604.606 227.424 616 221M519 -21.5C569.5 55.5 616.5 16 574 78C531.526 139.963 563.462 159.976 600.932 183.458L601 183.5C638.5 207 657 213.5 641.5 221C629.1 227 648.333 229.833 659.5 230.5C633.5 159.833 592.3 10.5 635.5 -21.5C689.5 -61.5 722.5 -36 718.5 -6.99997C714.5 22 654.965 54.1461 659.5 86.5C668.465 150.461 672.075 209.267 691 225M287 -41C329 6 362 -17.5 353.5 38C345 93.5 343 133.5 394.5 158.5C446 183.5 476 170.5 441 205C413 232.6 429.333 240.833 441 241.5M753.5 -36.5C691 121.5 663.5 -12 691 129.5C718.5 271 773 68 732 269C699.2 429.8 718.333 435.667 732 418.5M698.894 -35.7636C827.196 -26.8 1082.98 37.6326 866.006 73.9089C594.791 119.254 1253.65 210.472 1112.57 235.781M912.579 -50C1035.86 36.4726 1223.52 15.3817 1112.57 60.1998C1001.61 105.018 1060.35 143.267 1138.59 183.054C1197.79 213.156 1410.1 242.555 1441.31 235.781M1175.58 -19.9455C1313.92 61.2544 1442.68 19.5999 1326.25 84.9816C1209.89 150.324 1297.38 171.429 1400.03 196.191L1400.22 196.236C1502.95 221.018 1553.63 227.872 1511.17 235.781C1477.2 242.109 1529.89 245.096 1560.48 245.799C1489.25 171.278 1376.38 13.7999 1494.73 -19.9455C1642.67 -62.1272 1733.07 -35.2363 1722.12 -4.65459C1711.16 25.9272 1548.06 59.8266 1560.48 93.9452C1585.04 161.394 1594.93 223.408 1646.78 239.999M540 -40.5091C655.061 9.05444 745.466 -15.7273 722.18 42.7998C698.894 101.327 693.415 143.509 834.502 169.872C975.589 196.236 1057.77 182.527 961.891 218.909C885.183 248.014 929.929 256.696 961.891 257.399M1818 -35.7636C1646.78 130.854 1571.44 -9.92734 1646.78 139.291C1722.12 288.508 1871.42 74.4361 1759.1 286.399C1669.24 455.97 1721.66 462.157 1759.1 444.054M-45 -49.5C1.83333 -41 95.2 20.1 16 54.5C-83 97.5 157.5 184 106 208M33 -63C78 19 146.5 -1 106 41.5C65.5 84 86.9387 120.271 115.5 158C137.109 186.545 214.606 214.424 226 208M129 -34.5C179.5 42.5 226.5 3.00002 184 65C141.526 126.963 173.462 146.976 210.932 170.458L211 170.5C248.5 194 267 200.5 251.5 208C239.1 214 258.333 216.833 269.5 217.5C243.5 146.833 202.3 -2.49996 245.5 -34.5C299.5 -74.5 332.5 -49 328.5 -20C324.5 9.00002 264.965 41.1461 269.5 73.5C278.465 137.461 282.075 196.267 301 212M-103 -54C-61 -7 -28 -30.5 -36.5 25C-45 80.5 -47 120.5 4.5 145.5C56 170.5 86 157.5 51 192C23 219.6 39.3333 227.833 51 228.5M363.5 -49.5C301 108.5 273.5 -25 301 116.5C328.5 258 383 55 342 256C309.2 416.8 328.333 422.667 342 405.5" stroke="#3C4B7E"/>
<path d="M70.4163 -45.1808C15.9658 -36.8122 47.8771 385.43 94.3847 262.896C140.892 140.361 402.729 305.467 305.436 159.833C208.143 14.1988 124.867 -53.5494 70.4163 -45.1808Z" fill="#2C3964" stroke="#3C4B7E"/>
</g>
<defs>
<clipPath id="clip0_7862_4849">
<rect width="873" height="216" rx="17" fill="white"/>
</clipPath>
</defs>
</svg>
