<svg width="367" height="167" viewBox="0 0 367 167" fill="none" xmlns="http://www.w3.org/2000/svg">
<path d="M128.594 152.099C132.331 128.362 133.897 116.523 133.98 111.087C134.001 109.728 133.93 108.745 133.768 108.07C133.605 107.391 133.336 106.977 132.943 106.853C132.572 106.736 132.146 106.901 131.704 107.178C131.255 107.458 130.75 107.881 130.207 108.349C130.117 108.426 130.027 108.505 129.935 108.584C128.905 109.475 127.736 110.487 126.479 111.106C125.117 111.778 123.673 111.979 122.212 111.069C120.745 110.154 119.228 108.099 117.762 104.161C116.298 100.225 114.894 94.432 113.642 86.0831C111.133 69.3533 109.883 60.7841 109.77 56.1529C109.713 53.8373 109.944 52.5627 110.404 51.7483C110.866 50.9332 111.582 50.5335 112.613 50.0508C112.724 49.9989 112.838 49.9462 112.956 49.892C113.92 49.4469 115.1 48.9017 116.474 47.8884C118.015 46.7509 119.797 45.0266 121.803 42.1946C123.798 39.3787 126.016 35.4673 128.443 29.9475C130.117 31.3449 131.366 32.9422 132.113 35.3447C133.026 38.2789 133.203 42.4508 132.43 48.9954C130.88 62.104 129.916 73.4317 131.703 82.9646C133.496 92.5228 138.05 100.255 147.483 106.189C152.191 109.15 156.407 110.985 159.879 112.328C160.936 112.736 161.928 113.1 162.842 113.436C163.426 113.65 163.979 113.853 164.497 114.049C165.831 114.553 166.939 115.009 167.799 115.497C168.663 115.987 169.25 116.495 169.568 117.084C169.877 117.655 169.949 118.332 169.725 119.228C169.497 120.136 168.968 121.253 168.087 122.661C167.207 124.067 165.987 125.747 164.394 127.783C161.833 131.053 160.274 133.764 159.451 136.003C158.626 138.243 158.531 140.03 158.925 141.429C159.319 142.828 160.188 143.79 161.212 144.419C162.237 145.049 163.431 145.356 164.511 145.436L164.532 144.964C163.485 144.886 162.339 144.589 161.369 143.993C160.399 143.396 159.619 142.512 159.268 141.267C158.918 140.025 158.982 138.374 159.78 136.206C160.578 134.037 162.105 131.37 164.65 128.119C166.247 126.079 167.478 124.385 168.37 122.959C169.26 121.537 169.823 120.366 170.072 119.374C170.323 118.368 170.254 117.53 169.867 116.813C169.49 116.114 168.826 115.563 167.946 115.064C167.062 114.562 165.933 114.099 164.599 113.595C164.076 113.398 163.521 113.194 162.936 112.979C162.025 112.645 161.04 112.283 159.984 111.875C156.521 110.537 152.326 108.71 147.643 105.764C138.294 99.8832 133.821 92.2568 132.058 82.853C130.29 73.4238 131.24 62.1861 132.79 49.0669C133.567 42.4975 133.402 38.2221 132.451 35.168C131.664 32.6362 130.344 30.9687 128.623 29.5357C130.3 25.6845 132.076 21.0665 133.946 15.5148C137.182 16.8269 140.716 18.7544 144.168 21.1211C149.3 24.6391 154.237 29.1183 157.737 33.9697C161.243 38.8283 163.278 44.0161 162.688 48.9633C162.1 53.9 158.883 58.7038 151.684 62.7553C147.155 65.3048 144.527 68.1972 143.406 71.3594C142.28 74.5344 142.692 77.9235 144.134 81.3963C145.575 84.8649 148.054 88.4453 151.105 92.0385C154.159 95.634 157.797 99.2544 161.565 102.8C163.911 105.008 166.306 107.185 168.644 109.31L168.645 109.311C173.827 114.022 178.726 118.476 182.178 122.428C183.428 123.859 184.483 125.219 185.291 126.497C186.1 127.777 186.652 128.962 186.907 130.042C187.161 131.115 187.12 132.077 186.751 132.937C186.379 133.804 185.658 134.601 184.504 135.298L184.658 135.726C185.85 135.006 186.646 134.154 187.07 133.167C187.497 132.172 187.533 131.073 187.256 129.903C186.981 128.74 186.396 127.5 185.573 126.198C184.749 124.893 183.677 123.514 182.419 122.073C178.952 118.103 174.024 113.624 168.832 108.904C166.498 106.782 164.111 104.612 161.78 102.418C158.015 98.8754 154.39 95.2669 151.351 91.6888C148.31 88.1085 145.867 84.5708 144.455 81.1723C143.046 77.778 142.675 74.551 143.737 71.5567C144.803 68.5497 147.333 65.7195 151.83 63.1888C159.073 59.112 162.432 54.2104 163.049 49.0354C163.664 43.871 161.535 38.5411 158.004 33.647C154.467 28.7456 149.493 24.2372 144.339 20.7034C140.885 18.3356 137.344 16.4014 134.092 15.079C134.855 12.8009 135.633 10.3676 136.427 7.76786L136.087 7.59403C135.29 10.2077 134.507 12.6519 133.741 14.9384C132.267 14.3551 130.855 13.9007 129.543 13.5919L129.477 14.0569C130.764 14.3594 132.148 14.804 133.595 15.3745C131.738 20.8839 129.976 25.4651 128.314 29.284C128.045 29.0694 127.766 28.8594 127.479 28.6518C126.559 27.9869 125.548 27.3443 124.458 26.6512C123.913 26.305 123.349 25.9461 122.766 25.5655C123.221 24.2534 123.535 22.949 123.673 21.6542C124.413 14.7012 121.727 8.14768 116.349 5.74448C110.98 3.34543 102.984 5.10583 93.1132 14.5797C89.1094 18.4226 87.0875 25.7573 86.4275 35.039C85.9474 41.7913 86.1857 49.606 86.9225 57.9248C74.3607 39.0194 62.8017 25.666 52.5649 17.8152C52.0071 16.8061 51.4471 15.7487 50.8859 14.64L50.581 14.8991C50.9893 15.706 51.3971 16.4858 51.804 17.2399C43.3435 10.9369 35.8035 8.44047 29.3676 9.72217C27.3561 10.1228 25.6678 12.5301 24.2754 16.4733C21.3899 12.4142 18.5245 7.42808 15.8815 1.1875L15.5618 1.41485C18.2529 7.76901 21.1744 12.8316 24.1136 16.9425C22.4841 21.7769 21.2722 28.7603 20.4321 37.0993C19.6537 33.8281 17.988 30.5797 15.7683 27.5035C12.2316 22.6022 7.25815 18.0937 2.1037 14.56M128.237 152.005C131.977 128.248 133.534 116.46 133.616 111.078C133.636 109.733 133.564 108.812 133.42 108.211C133.276 107.614 133.075 107.381 132.857 107.312C132.617 107.237 132.292 107.334 131.862 107.603C131.44 107.868 130.954 108.273 130.409 108.743C130.319 108.82 130.227 108.9 130.134 108.98C129.109 109.867 127.906 110.908 126.609 111.548C125.188 112.249 123.634 112.479 122.054 111.495C120.481 110.515 118.917 108.352 117.434 104.366C115.95 100.379 114.539 94.5417 113.284 86.1732C110.778 69.4685 109.52 60.8478 109.406 56.1678C109.348 53.8278 109.574 52.4165 110.11 51.4689C110.646 50.522 111.469 50.0836 112.489 49.6064C112.536 49.5843 112.584 49.5622 112.632 49.5399C112.698 49.5092 112.765 49.4782 112.833 49.4467C113.797 49.0016 114.949 48.4695 116.293 47.4778C117.8 46.366 119.552 44.6733 121.534 41.875C123.51 39.0861 125.715 35.1991 128.134 29.6954C127.867 29.4819 127.589 29.2724 127.301 29.0645C126.397 28.4107 125.397 27.7752 124.314 27.0873C123.767 26.7398 123.2 26.3789 122.612 25.9956C121.843 28.0817 120.731 30.187 119.425 32.3049C117.649 35.183 115.499 38.1074 113.33 41.0573C112.785 41.7975 112.24 42.5393 111.699 43.2825C108.997 46.9937 106.404 50.7392 104.589 54.5056C102.773 58.2722 101.75 62.0309 102.155 65.7747C102.76 71.3631 103.297 76.864 103.815 82.1667C103.955 83.5978 104.093 85.0151 104.231 86.4151C107.789 92.7516 111.407 99.4817 115.081 106.606C132.965 141.295 117.575 138.678 95.7382 134.963C74.2509 131.308 46.5214 126.591 38.1091 155.311C30.833 180.151 24.5366 157.617 21.2857 123.47C19.4062 126.055 18.2171 128.235 17.5445 130.063C16.7468 132.23 16.6825 133.881 17.0327 135.124C17.3833 136.368 18.1633 137.253 19.1335 137.849C20.1039 138.445 21.2496 138.743 22.2968 138.821L22.276 139.292C21.1958 139.212 20.0012 138.905 18.9772 138.276C17.9528 137.647 17.0841 136.684 16.6901 135.286C16.2957 133.886 16.3909 132.099 17.2154 129.859C17.9342 127.906 19.2127 125.593 21.2283 122.862C20.7545 117.809 20.3471 112.508 20.0128 107.074C19.2677 106.8 18.4762 106.506 17.6441 106.184C14.1712 104.842 9.95557 103.007 5.24793 100.045M5.4072 99.6202C10.0907 102.566 14.2861 104.393 17.7483 105.731C18.5327 106.035 19.2776 106.312 19.9821 106.572C19.7868 103.35 19.6172 100.082 19.4747 96.793C19.4264 96.7476 19.3782 96.7023 19.33 96.6569C15.5614 93.1109 11.9237 89.4905 8.87015 85.8951C5.81846 82.3019 3.33951 78.7214 1.89888 75.2528C0.456524 71.78 0.0446061 68.3909 1.1704 65.216C2.29168 62.0537 4.91919 59.1613 9.44903 56.6119C15.1181 53.4213 18.3177 49.7641 19.7089 45.9429C19.8797 43.3135 20.0799 40.7737 20.3106 38.3424C19.6974 34.8062 17.9616 31.2352 15.5019 27.8263C12.0012 22.9749 7.06454 18.4956 1.93315 14.9777M366.085 114.421C359.688 112.183 353.14 109.891 346.737 107.572C336.419 103.835 326.475 100.025 318.135 96.2451C309.79 92.4628 303.07 88.7188 299.187 85.1196C297.241 83.316 296.041 81.5785 295.677 79.9278C295.497 79.1105 295.52 78.3102 295.765 77.5196C296.01 76.7251 296.483 75.9271 297.216 75.1307C298.687 73.5346 301.174 71.9782 304.853 70.4853C308.528 68.994 313.377 67.5721 319.554 66.2338C329.451 64.0898 336.662 61.7357 341.61 59.2457C344.084 58.0007 345.998 56.7186 347.401 55.4064C348.802 54.0949 349.704 52.743 350.134 51.3539C351.005 48.5405 349.912 45.7195 347.471 43.0058C345.024 40.2854 341.167 37.6019 336.341 35.0278C321.843 27.2934 298.466 20.4745 277.809 16.6613C278.091 15.766 278.376 14.8495 278.662 13.9113L278.323 13.7375C278.025 14.7126 277.73 15.6642 277.436 16.5928C272.021 15.6011 266.798 14.8175 261.978 14.2798C261.008 13.2785 259.873 12.464 258.584 11.8879C253.215 9.48888 245.219 11.2493 235.348 20.7231C234.263 21.7645 233.324 23.0624 232.518 24.5859C223.033 21.9125 212.206 18.1354 200.7 11.7128L200.555 12.1468C212.029 18.551 222.834 22.3325 232.301 25.0083C230.268 29.0742 229.128 34.6454 228.663 41.1825C228.002 50.4754 228.702 61.7804 230.189 73.6429C233.144 97.2094 239.212 123.025 243.942 139.743C241.941 139.571 239.36 139.164 237.762 138.478C237.344 138.299 237.004 138.104 236.761 137.898C236.514 137.688 236.397 137.49 236.369 137.317C236.344 137.16 236.382 136.95 236.592 136.671C236.804 136.391 237.167 136.075 237.725 135.725C238.439 135.277 238.974 134.827 239.326 134.352C239.681 133.873 239.857 133.356 239.827 132.793C239.798 132.241 239.572 131.688 239.201 131.123C238.828 130.555 238.294 129.952 237.617 129.297C236.264 127.989 234.306 126.447 231.841 124.543C231.465 124.254 231.078 123.955 230.68 123.648C228.455 121.935 225.869 119.943 222.971 117.59M366.006 114.883C359.606 112.644 353.052 110.35 346.639 108.027C336.319 104.289 326.366 100.476 318.015 96.6912C309.67 92.9088 302.905 89.1464 298.975 85.5039C297.014 83.6866 295.725 81.8695 295.326 80.0576C295.125 79.1436 295.151 78.2356 295.426 77.344C295.7 76.4565 296.218 75.5985 296.982 74.7685C298.508 73.1117 301.051 71.5329 304.744 70.0343C308.441 68.5341 313.307 67.1079 319.494 65.7677C329.38 63.6259 336.564 61.2782 341.478 58.8052C343.935 57.5687 345.818 56.3039 347.187 55.0232C348.557 53.7417 349.4 52.4546 349.796 51.1779C350.575 48.6598 349.642 46.0421 347.234 43.3645C344.831 40.6936 341.017 38.0331 336.203 35.4648C321.718 27.7377 298.323 20.9181 277.666 17.1123C274.257 27.8599 271.143 35.5244 268.348 41.0409C268.447 41.5395 268.517 42.0605 268.556 42.6055C268.73 45.0291 268.307 47.9107 267.239 51.3868C262.988 65.2317 260.411 77.0151 265.226 86.8987C267.635 91.8447 271.909 96.3436 278.807 100.386C285.704 104.428 295.211 108.005 308.068 111.118C320.926 114.232 332.442 116.162 341.94 117.575C344.829 118.005 347.533 118.387 350.032 118.74M350.008 119.212L350.006 119.212C347.505 118.858 344.796 118.476 341.898 118.044C332.396 116.631 320.87 114.699 308.001 111.583C295.13 108.466 285.591 104.88 278.656 100.816C271.722 96.7524 267.379 92.2031 264.917 87.151C259.991 77.0383 262.659 65.0255 266.9 51.212C267.956 47.7735 268.36 44.9708 268.193 42.6494C268.166 42.2827 268.126 41.9276 268.071 41.5835C266.641 44.3553 265.295 46.5641 264.038 48.3381C262.032 51.1701 260.251 52.8943 258.709 54.0319C257.336 55.0452 256.155 55.5903 255.191 56.0355C255.073 56.0897 254.959 56.1424 254.848 56.1943C253.817 56.6769 253.101 57.0766 252.64 57.8918C252.179 58.7062 251.949 59.9808 252.005 62.2963C252.119 66.9275 253.368 75.4967 255.877 92.2266C257.129 100.575 258.533 106.368 259.998 110.304C261.463 114.243 262.98 116.298 264.448 117.212C265.908 118.122 267.353 117.922 268.715 117.25C269.971 116.63 271.14 115.619 272.171 114.727C272.262 114.648 272.353 114.57 272.442 114.493C272.985 114.025 273.49 113.602 273.939 113.321C274.381 113.044 274.808 112.879 275.179 112.996C275.571 113.12 275.84 113.534 276.003 114.214C276.165 114.888 276.236 115.871 276.216 117.23C276.133 122.666 274.567 134.506 270.83 158.243M270.472 158.148C274.212 134.392 275.769 122.603 275.851 117.221C275.872 115.876 275.799 114.955 275.655 114.354C275.512 113.758 275.311 113.524 275.092 113.456C274.853 113.38 274.527 113.478 274.098 113.747C273.675 114.011 273.19 114.416 272.644 114.886C272.554 114.964 272.462 115.043 272.369 115.124C271.344 116.011 270.141 117.052 268.844 117.692C267.423 118.393 265.869 118.622 264.289 117.638C262.717 116.658 261.152 114.495 259.669 110.51C258.186 106.522 256.774 100.685 255.519 92.3167C253.014 75.6119 251.755 66.9913 251.641 62.3113C251.584 59.9713 251.809 58.5599 252.346 57.6123C252.882 56.6655 253.704 56.2271 254.725 55.7498C254.835 55.6981 254.948 55.6459 255.064 55.5923L255.069 55.5902C256.032 55.1451 257.184 54.613 258.528 53.6212C260.035 52.5094 261.787 50.8168 263.77 48.0185C265.067 46.1874 266.463 43.883 267.954 40.9585C267.616 39.4074 266.973 38.0903 266.046 36.9442C265.402 36.1476 264.62 35.4322 263.707 34.7794C263.109 35.9973 262.417 37.2207 261.66 38.4484C259.884 41.3264 257.734 44.2507 255.565 47.2005C255.021 47.9407 254.475 48.6829 253.934 49.4259C251.232 53.1371 248.639 56.8826 246.824 60.649C245.009 64.4157 243.986 68.1744 244.391 71.9182C244.995 77.5064 245.532 83.0072 246.05 88.3099C246.935 97.3612 247.762 105.835 248.771 113.182C249.571 119.005 250.483 124.105 251.623 128.209C252.764 132.319 254.127 135.402 255.815 137.221L255.582 137.584C253.819 135.685 252.428 132.506 251.279 128.37C250.129 124.228 249.213 119.097 248.412 113.265C247.402 105.908 246.572 97.4128 245.687 88.3517L245.687 88.3507C245.169 83.0504 244.632 77.5561 244.029 71.9837C243.607 68.0827 244.678 64.2089 246.515 60.3987C248.351 56.5882 250.967 52.8125 253.669 49.1016C254.213 48.3548 254.76 47.6107 255.305 46.8694L255.307 46.8671C257.474 43.919 259.611 41.0135 261.375 38.1533C262.122 36.9417 262.801 35.7422 263.385 34.5553C262.605 34.0276 261.735 33.5412 260.781 33.0856C258.538 32.0154 255.835 31.1207 252.731 30.2571C250.238 29.5633 247.487 28.8904 244.514 28.163C240.883 27.2745 236.918 26.3047 232.682 25.1159C230.651 29.0958 229.495 34.6291 229.026 41.2258C228.369 50.4617 229.064 61.7221 230.549 73.5671C233.519 97.255 239.642 123.231 244.381 139.92L244.477 140.259L244.199 140.237C242.161 140.08 239.369 139.665 237.647 138.926C237.216 138.741 236.842 138.532 236.561 138.293C236.285 138.059 236.069 137.77 236.012 137.414C235.952 137.042 236.076 136.679 236.332 136.341C236.586 136.004 236.993 135.659 237.566 135.299C238.264 134.861 238.755 134.44 239.063 134.025C239.367 133.614 239.485 133.223 239.464 132.826C239.442 132.418 239.271 131.959 238.923 131.429C238.576 130.9 238.067 130.322 237.399 129.676C236.064 128.385 234.123 126.856 231.654 124.949C231.279 124.66 230.892 124.362 230.494 124.055C228.269 122.342 225.679 120.347 222.778 117.991L222.753 117.971M222.753 117.971L222.85 117.771M222.753 117.971L222.747 117.966C219.335 115.195 216.037 112.517 213.257 109.604C210.474 106.688 208.198 103.523 206.84 99.7721C204.115 92.2458 205.119 82.4659 212.877 67.8005C214.814 64.1403 216.237 61.2356 217.211 58.8823C218.186 56.526 218.703 54.7401 218.842 53.3139C218.978 51.9012 218.744 50.8416 218.203 49.9178C217.655 48.9807 216.785 48.1693 215.625 47.2854C215.01 46.8171 214.318 46.3306 213.557 45.7965C211.462 44.3259 208.852 42.4934 205.944 39.6804C201.972 35.8391 197.432 30.1628 192.816 21.0426L193.121 20.7834C197.714 29.8574 202.224 35.4933 206.162 39.3017C209.047 42.0922 211.619 43.8983 213.71 45.3662C214.478 45.9051 215.18 46.3984 215.81 46.8781C216.975 47.7663 217.9 48.6164 218.494 49.6323C219.096 50.6616 219.351 51.8467 219.203 53.3728C219.057 54.8855 218.514 56.7325 217.532 59.1056C216.549 61.4817 215.117 64.403 213.178 68.0677C205.446 82.6842 204.528 92.2742 207.17 99.5714C208.496 103.232 210.725 106.343 213.486 109.236C216.248 112.13 219.528 114.794 222.947 117.57L222.971 117.59M222.971 117.59L222.875 117.791M19.6332 47.145C18.0216 50.7362 14.8182 54.1053 9.59433 57.0453C5.0977 59.5761 2.56804 62.4062 1.5018 65.4133C0.440066 68.4076 0.810274 71.6346 2.22003 75.0289C3.63152 78.4273 6.07467 81.965 9.11542 85.5453C12.1285 89.0931 15.718 92.6708 19.4486 96.1845C18.7346 79.301 18.7344 61.8857 19.6332 47.145ZM103.786 85.6229C103.675 84.4943 103.564 83.3555 103.451 82.2076L103.451 82.2035C102.933 76.9041 102.397 71.4115 101.794 65.8403C101.372 61.9393 102.443 58.0655 104.279 54.2552C106.116 50.4448 108.732 46.6691 111.434 42.9582C111.977 42.2113 112.525 41.4671 113.07 40.7257L113.071 40.7234C115.239 37.7751 117.375 34.8702 119.14 32.0099C120.444 29.8963 121.536 27.8196 122.287 25.7821C118.297 23.1512 113.445 19.4295 108.221 11.8552L108.493 11.5404C113.674 19.0529 118.469 22.7322 122.44 25.3518C122.879 24.0822 123.18 22.8279 123.312 21.5896C124.03 14.8379 121.428 8.51378 116.23 6.19124C111.023 3.86456 103.154 5.53031 93.3302 14.9594C89.4564 18.6777 87.4482 25.8352 86.7907 35.0824C86.3002 41.9808 86.5638 50.0086 87.3474 58.5659C92.657 66.5952 98.1444 75.613 103.786 85.6229ZM181.949 38.6305C175.459 33.6398 165.648 26.0947 157.797 7.55831L158.117 7.33096C165.919 25.7535 175.659 33.2438 182.137 38.2259L182.141 38.2289C182.454 38.4693 182.759 38.704 183.056 38.9337C184.667 40.1806 186.048 41.2913 187.091 42.4127C188.135 43.5341 188.861 44.6871 189.136 46.028C189.412 47.375 189.224 48.8666 188.512 50.6387C187.802 52.4073 186.563 54.4752 184.713 56.9916C177.362 66.9868 175.65 76.2171 177.046 85.1546C178.448 94.1199 182.981 102.823 188.191 111.741C190.141 115.079 193.363 118.414 197.179 121.493C200.992 124.569 205.384 127.38 209.662 129.676C213.94 131.973 218.1 133.752 221.445 134.768C223.118 135.276 224.583 135.591 225.755 135.686C226.938 135.782 227.786 135.649 228.256 135.306L228.435 135.718C227.865 136.134 226.921 136.254 225.732 136.157C224.533 136.06 223.046 135.739 221.362 135.228C217.993 134.205 213.815 132.417 209.522 130.113C205.23 127.809 200.819 124.987 196.986 121.894C193.156 118.803 189.89 115.432 187.9 112.026C182.693 103.114 178.109 94.3319 176.689 85.2484C175.265 76.137 177.029 66.7548 184.449 56.6656C186.291 54.1609 187.502 52.1307 188.189 50.4205C188.874 48.7138 189.029 47.346 188.784 46.1493C188.537 44.9464 187.877 43.8712 186.859 42.7765C185.84 41.6818 184.483 40.5884 182.869 39.3395C182.57 39.1085 182.263 38.8725 181.949 38.6305ZM258.465 12.3347C253.258 10.008 245.389 11.6738 235.566 21.1029C234.554 22.0736 233.67 23.2787 232.904 24.6943C237.073 25.8611 240.98 26.817 244.567 27.6945C247.545 28.4234 250.304 29.0983 252.808 29.7951C255.917 30.6601 258.64 31.5603 260.907 32.6421C261.881 33.1072 262.774 33.607 263.579 34.1536C264.616 31.9697 265.324 29.8286 265.547 27.733C266.088 22.6512 264.747 17.8116 261.835 14.7382C260.722 14.6149 259.631 14.5047 258.564 14.4081L258.59 13.9367C259.475 14.0168 260.377 14.1063 261.294 14.205C260.461 13.4376 259.516 12.8043 258.465 12.3347ZM262.46 14.8087C265.2 18.0007 266.441 22.7958 265.908 27.7976C265.677 29.9672 264.95 32.1632 263.9 34.3781C264.829 35.0438 265.632 35.7783 266.298 36.6024C267.193 37.7093 267.839 38.9751 268.214 40.4442C270.938 35.0063 273.973 27.4986 277.293 17.0439C272.11 16.0965 267.104 15.3403 262.46 14.8087Z" stroke="white"/>
</svg>
