<svg width="10" height="13" viewBox="0 0 10 13" fill="none" xmlns="http://www.w3.org/2000/svg">
<path d="M7.22875 5.9126C7.88172 5.5404 8.42281 5.01178 8.79904 4.37851C9.17527 3.74524 9.37373 3.02903 9.375 2.3V1.7H10V0.5H0V1.7H0.625V2.3C0.626268 3.02903 0.824731 3.74524 1.20096 4.37851C1.57718 5.01178 2.11828 5.5404 2.77125 5.9126C2.9925 6.0374 3.125 6.2396 3.125 6.4526V6.5474C3.125 6.7598 2.9925 6.9614 2.77125 7.0874C2.11828 7.4596 1.57718 7.98822 1.20096 8.62149C0.824731 9.25476 0.626268 9.97097 0.625 10.7V11.3H0V12.5H10V11.3H9.375V10.7C9.37381 9.97111 9.17544 9.25501 8.79932 8.62184C8.4232 7.98867 7.88223 7.46013 7.22938 7.088C7.0075 6.962 6.875 6.7598 6.875 6.5474V6.4526C6.875 6.2396 7.0075 6.0374 7.22875 5.9126ZM8.125 10.7V11.3H1.875V10.7C1.87582 10.1796 2.01736 9.6683 2.28577 9.21616C2.55418 8.76402 2.94027 8.38652 3.40625 8.1206C3.81406 7.89247 4.12151 7.52971 4.27125 7.1H5.72875C5.8725 7.5146 6.16875 7.88 6.59437 8.1212C7.06023 8.38705 7.4462 8.76447 7.71451 9.21651C7.98282 9.66855 8.12426 10.1797 8.125 10.7Z" fill="white"/>
</svg>
