<svg width="92" height="94+" viewBox="0 0 92 90" fill="none" xmlns="http://www.w3.org/2000/svg">
<path fill-rule="evenodd" clip-rule="evenodd" d="M25.1621 -8.95283C25.3697 -9.63327 25.5804 -10.3157 25.7942 -11L26.5837 -10.626C26.7069 -10.754 26.831 -10.8787 26.956 -11L51.8413 -7.12576C51.8413 6.96475 62.9761 20.1484 70.0201 31.4915C80.97 49.1244 100.454 68.6689 87.9618 94.8649C76.7053 118.469 47.3847 122.302 0 106.364C0 93.6508 10.3783 80.8699 10.709 65.4113C11.0239 50.6954 13.7567 6.10877 25.1621 -8.95283Z" fill="#C1DEE2"/>
<path fill-rule="evenodd" clip-rule="evenodd" d="M56.1206 88.1722C57.7848 79.5247 58.8644 73.7515 59.3594 70.8526C72.6171 85.9368 80.2761 93.5664 82.3365 93.7414C86.2116 94.0705 89.0749 90.6106 89.8902 91.5833C91.2378 95.6115 87.4317 105.695 80.1565 107.161C76.6825 107.861 71.3066 100.648 69.0916 98.0921C68.2204 97.0868 63.8968 93.7802 56.1206 88.1722ZM81.6508 48.6875C85.0875 48.6875 86.9336 50.118 88.9656 53.0042C90.9977 55.8904 92.9205 69.5024 89.658 69.5024C86.3955 69.5024 72.7266 64.2404 72.7266 60.7029C72.7266 57.1654 82.0535 55.6674 82.0535 53.0042C82.0535 50.3411 78.2141 48.6875 81.6508 48.6875Z" fill="#F1BC8C"/>
<path fill-rule="evenodd" clip-rule="evenodd" d="M49.1824 101.331C48.9783 102.067 48.7701 102.817 48.558 103.58C9.62078 76.1798 9.6021 42.9747 21.1823 5.75586C12.454 42.3968 16.0099 73.2999 49.1824 101.331Z" fill="black" fill-opacity="0.2"/>
</svg>
