<svg width="9" height="9" viewBox="0 0 9 9" fill="none" xmlns="http://www.w3.org/2000/svg">
<path d="M1.8765 1.13032V1.63555H1.5C1.10218 1.63555 0.720644 1.80795 0.43934 2.11483C0.158035 2.4217 0 2.83792 0 3.27191V6.13555C0 6.46104 0.118526 6.7732 0.329505 7.00336C0.540483 7.23352 0.826631 7.36282 1.125 7.36282H1.875V7.77191C1.875 8.0974 1.99353 8.40957 2.2045 8.63972C2.41548 8.86988 2.70163 8.99918 3 8.99918H6C6.29837 8.99918 6.58452 8.86988 6.7955 8.63972C7.00647 8.40957 7.125 8.0974 7.125 7.77191V7.36282H7.875C8.17337 7.36282 8.45952 7.23352 8.6705 7.00336C8.88147 6.7732 9 6.46104 9 6.13555V3.27191C9 2.83792 8.84196 2.4217 8.56066 2.11483C8.27936 1.80795 7.89782 1.63555 7.5 1.63555H7.125V1.125C7.125 0.977126 7.09828 0.830702 7.04636 0.694104C6.99444 0.557506 6.91834 0.433414 6.82242 0.328927C6.7265 0.22444 6.61264 0.141607 6.48735 0.0851666C6.36206 0.0287264 6.2278 -0.000213901 6.09225 1.19019e-06L2.90625 0.00531938C2.63301 0.00575296 2.37109 0.124471 2.17802 0.335402C1.98494 0.546334 1.8765 0.832234 1.8765 1.13032ZM7.125 6.74918V5.72646C7.125 5.40096 7.00647 5.0888 6.7955 4.85864C6.58452 4.62848 6.29837 4.49918 6 4.49918H3C2.70163 4.49918 2.41548 4.62848 2.2045 4.85864C1.99353 5.0888 1.875 5.40096 1.875 5.72646V6.74918H1.125C0.975816 6.74918 0.832742 6.68453 0.727252 6.56945C0.621763 6.45437 0.5625 6.29829 0.5625 6.13555V3.27191C0.5625 3.00067 0.661272 2.74053 0.837087 2.54873C1.0129 2.35693 1.25136 2.24918 1.5 2.24918H7.5C7.74864 2.24918 7.9871 2.35693 8.16291 2.54873C8.33873 2.74053 8.4375 3.00067 8.4375 3.27191V6.13555C8.4375 6.29829 8.37824 6.45437 8.27275 6.56945C8.16726 6.68453 8.02418 6.74918 7.875 6.74918H7.125ZM6.5625 1.125V1.63555H2.439V1.13032C2.439 0.848047 2.64825 0.619365 2.907 0.618956L6.093 0.613638C6.15462 0.61353 6.21566 0.626677 6.27261 0.652328C6.32957 0.677978 6.38133 0.715628 6.42494 0.763123C6.46855 0.810618 6.50314 0.867027 6.52675 0.929122C6.55035 0.991217 6.5625 1.05778 6.5625 1.125ZM3 5.11282H6C6.14918 5.11282 6.29226 5.17747 6.39775 5.29255C6.50324 5.40763 6.5625 5.56371 6.5625 5.72646V7.77191C6.5625 7.93466 6.50324 8.09074 6.39775 8.20582C6.29226 8.3209 6.14918 8.38555 6 8.38555H3C2.85082 8.38555 2.70774 8.3209 2.60225 8.20582C2.49676 8.09074 2.4375 7.93466 2.4375 7.77191V5.72646C2.4375 5.56371 2.49676 5.40763 2.60225 5.29255C2.70774 5.17747 2.85082 5.11282 3 5.11282Z" fill="white"/>
</svg>
