<svg width="10" height="16" viewBox="0 0 10 16" fill="none" xmlns="http://www.w3.org/2000/svg">
<path d="M1.45125 4.21166C0.795672 3.95198 0.517052 3.19585 0.910398 2.64593C1.70528 1.5461 3.03283 0.744141 4.78649 0.744141C6.71225 0.744141 8.03159 1.56138 8.70356 2.58483C9.27719 3.46317 9.61317 5.10528 8.72814 6.32731C7.74478 7.67919 6.80239 8.09163 6.29432 8.96233C6.1714 9.16854 6.09764 9.33657 6.04848 9.68027C5.97472 10.2378 5.48304 10.6732 4.87663 10.6732C4.16369 10.6732 3.58187 10.1003 3.66382 9.43586C3.71299 9.04634 3.81132 8.64154 4.04077 8.25965C4.67177 7.19801 5.88458 6.57172 6.58933 5.63228C7.33504 4.64701 6.91711 2.80632 4.80288 2.80632C3.8441 2.80632 3.2213 3.27223 2.83615 3.82978C2.54934 4.26513 1.95113 4.40261 1.45125 4.21166ZM6.43363 13.7283C6.43363 14.5684 5.6961 15.2558 4.79469 15.2558C3.89327 15.2558 3.15575 14.5684 3.15575 13.7283C3.15575 12.8881 3.89327 12.2007 4.79469 12.2007C5.6961 12.2007 6.43363 12.8881 6.43363 13.7283Z" fill="white"/>
</svg>
