<svg width="67" height="89" viewBox="0 0 67 89" fill="none" xmlns="http://www.w3.org/2000/svg">
<path d="M62.9171 55.0128C57.742 50.5806 53.1394 47.9689 44.9025 43.3086H20.883C13.4812 47.912 9.07898 50.147 2.53476 55.9249C0.868842 62.849 0.245671 67.1418 0.0327265 75.9893C-0.92837 82.6023 19.4881 87.5857 33.4766 87.6817C47.3738 87.7771 68.458 81.5514 66.9204 76.5973C65.659 63.9293 64.8734 57.3706 62.9171 55.0128Z" fill="white"/>
<path d="M45.9039 45.1328C47.2383 46.6022 49.5765 49.2977 49.5736 49.5409C49.569 49.9171 48.2043 51.5912 47.2383 51.973C48.7952 52.777 49.5365 53.3612 50.5744 54.709C47.8183 59.0703 47.1192 61.8243 45.4035 66.5653M19.716 66.5653C18.6749 63.9956 15.9008 57.4987 14.8787 55.925C14.3603 55.1269 17.1063 52.6918 18.5483 51.973C16.9576 51.7682 16.4254 51.4998 16.2131 50.7569C18.8567 48.0297 19.4285 47.0089 20.55 45.1328" stroke="black" stroke-opacity="0.17" stroke-width="2"/>
<path d="M57.0797 64.1328L57.4133 83.2852L55.0781 83.8932C55.3333 72.1169 55.7472 67.5743 57.0797 64.1328Z" fill="black" fill-opacity="0.17"/>
<path d="M9.20726 63.6768L8.29785 82.9523L12.142 84.1784C11.1915 68.4029 10.1102 64.6027 9.20726 63.6768Z" fill="black" fill-opacity="0.17"/>
<path d="M32.8932 51.9725L44.9029 43.6123L44.4025 86.3252C34.5795 88.0921 29.1939 87.7869 19.7158 85.8692L21.3838 43.6123L32.8932 51.9725Z" fill="#01B9CA" stroke="#01B9CA"/>
<path d="M22.3847 86.7933C22.0483 65.9127 21.6752 54.7787 21.217 43.3086L20.383 44.2338L19.7158 86.4849L22.3847 86.7933Z" fill="#00A1B1"/>
<path d="M45.0697 43.3086L45.9038 44.5422V86.7933L41.7337 87.2559C42.2385 67.3152 43.1283 55.9062 45.0697 43.3086Z" fill="#00A1B1"/>
<path d="M50.2404 66.8692C43.7427 63.6811 35.7772 79.8019 35.7286 81.0055L36.5626 79.9415C37.7094 81.1984 38.731 82.8296 38.731 83.4376C38.731 84.0456 38.0725 83.8864 37.5634 83.7416C37.0543 83.5968 35.6 81.2333 35.7286 81.0055C35.7772 79.8019 43.7427 63.6811 50.2404 66.8692C52.2511 62.1255 53.0714 60.3108 53.2428 55.165C53.1644 48.2249 51.1899 45.1198 44.0687 41.6367H21.5504C17.3959 43.6084 14.3858 45.4605 12.7099 49.6929C10.2022 55.8793 10.2022 63.2669 12.7099 69.4533C14.3376 68.2667 16.4198 68.2667 18.0475 69.4533C20.0822 70.9366 20.0822 74.0501 18.0475 75.5334C16.4198 76.72 14.3376 76.72 12.7099 75.5334C10.6753 74.0501 10.5406 71.3516 12.7099 69.4533C10.2022 63.2669 10.2022 55.8793 12.7099 49.6929C14.3858 45.4605 17.3959 43.6084 21.5504 41.6367H44.0687C51.1899 45.1198 53.1644 48.2249 53.2428 55.165C53.0714 60.3108 52.2511 62.1255 50.2404 66.8692C55.5314 70.3866 54.4178 77.4561 45.3739 86.7921C45.3392 86.837 45.2935 86.8836 45.2363 86.9337C45.2363 86.9337 44.987 87.5426 44.0687 87.0857C43.1503 86.6287 42.4006 86.0216 42.4006 86.0216C42.0715 85.8044 42.0287 84.7255 43.4015 84.9576C44.3293 85.4816 44.7702 85.834 45.2363 86.1736C45.4675 86.4402 45.5215 86.6008 45.3739 86.7921C54.4178 77.4561 55.5314 70.3866 50.2404 66.8692Z" fill="#474E69"/>
<path d="M35.7286 81.0055C35.7772 79.8019 43.7427 63.6811 50.2404 66.8692M35.7286 81.0055L36.5626 79.9415C37.7094 81.1984 38.731 82.8296 38.731 83.4376C38.731 84.0456 38.0725 83.8864 37.5634 83.7416C37.0543 83.5968 35.6 81.2333 35.7286 81.0055ZM50.2404 66.8692C55.5581 70.4043 54.4064 77.5276 45.2363 86.9337M50.2404 66.8692C52.2511 62.1255 53.0714 60.3108 53.2428 55.165C53.1644 48.2249 51.1899 45.1198 44.0687 41.6367H21.5504C17.3959 43.6084 14.3858 45.4605 12.7099 49.6929C10.2022 55.8793 10.2022 63.2669 12.7099 69.4533M45.2363 86.9337C45.5371 86.6703 45.5218 86.5028 45.2363 86.1736C44.7702 85.834 44.3293 85.4816 43.4015 84.9576C42.0287 84.7255 42.0715 85.8044 42.4006 86.0216C42.4006 86.0216 43.1503 86.6287 44.0687 87.0857C44.987 87.5426 45.2363 86.9337 45.2363 86.9337ZM12.7099 69.4533C14.3376 68.2667 16.4198 68.2667 18.0475 69.4533C20.0822 70.9366 20.0822 74.0501 18.0475 75.5334C16.4198 76.72 14.3376 76.72 12.7099 75.5334C10.6753 74.0501 10.5406 71.3516 12.7099 69.4533Z" stroke="#474E69" stroke-width="2"/>
<path d="M43.0679 29.7596V25.8061L23.1956 25.8008L23.2184 25.8061V30.2142C22.7189 35.5279 22.454 38.0498 21.2168 43.4385L21.5121 43.6526L32.8937 52.2543L44.7366 43.7421C43.3868 38.1245 43.2569 35.1153 43.0686 29.7578L43.0679 29.7596Z" fill="#533D29"/>
<path d="M43.0493 32.4684V25.7803H23.1999V30.1884C22.7004 35.502 22.4354 38.024 21.1982 43.4126L28.4125 48.8553C38.6642 40.6969 40.7124 36.5888 43.0493 32.4684Z" fill="black" fill-opacity="0.25"/>
<path d="M45.308 22.9533C45.2404 21.7218 44.7063 21.0873 42.8428 20.9795V25.1592C44.5924 24.8058 45.3787 24.2432 45.308 22.9533Z" fill="#533D29"/>
<path d="M45.308 22.9533C45.2404 21.7218 44.7063 21.0873 42.8428 20.9795V25.1592C44.5924 24.8058 45.3787 24.2432 45.308 22.9533Z" fill="black" fill-opacity="0.17"/>
<path d="M20.811 23.1854C20.7858 24.4184 21.4127 25.0514 23.2762 25.1592L23.2764 21.2932C21.5268 21.6466 20.8359 21.972 20.811 23.1854Z" fill="#533D29"/>
<path d="M20.811 23.1854C20.7858 24.4184 21.4127 25.0514 23.2762 25.1592L23.2764 21.2932C21.5268 21.6466 20.8359 21.972 20.811 23.1854Z" fill="black" fill-opacity="0.17"/>
<path d="M23.2031 29.6279V10.0195H43.068V29.6279C39.7553 36.6857 36.4241 38.2703 32.8045 38.5961C28.0492 36.9167 26.1301 34.6213 23.2031 29.6279Z" fill="#533D29"/>
<path d="M17.7139 16.0999C18.3197 19.6896 19.7769 20.9511 23.2183 22.636V13.8198C28.9842 14.8376 30.9859 14.0974 33.3933 11.5398C36.8899 14.2723 39.1235 14.8012 43.0678 13.3638V21.3113C43.0678 21.3113 44.1245 20.8855 44.7358 20.5079C49.2322 17.7312 48.6315 7.36011 44.4022 6.97967C44.8695 6.78558 43.8924 3.34311 42.4006 3.02759C40.819 2.05578 39.725 2.34192 37.7301 3.02759C36.7328 1.10462 35.7452 0.461174 32.5593 0.747539C28.1926 1.46522 27.3855 2.27501 26.2208 3.7876C24.1373 3.69924 22.9285 3.93435 20.5495 5.91564C19.0875 8.01939 19.0188 9.2603 19.7155 11.5398C18.3205 12.6544 17.9503 13.7276 17.7139 16.0999Z" fill="#25272F"/>
<path d="M26.3876 9.86815C23.9716 9.20708 17.2134 13.8202 22.0505 20.8124L23.2182 22.6364V13.8202C23.2182 13.8202 27.0691 14.6487 29.0563 14.2762C31.2885 13.8579 33.3932 11.8442 33.3932 11.8442C33.3932 11.8442 36.1052 13.9374 38.2304 14.2762C40.0373 14.5643 43.0677 13.3642 43.0677 13.3642V21.2027C43.7662 21.2012 44.4021 20.5084 44.4021 20.5084C44.4021 20.5084 46.3243 18.7644 46.2369 17.0123C46.1576 15.4211 46.0134 14.3486 44.4022 13.0602C44.644 11.2294 44.3552 10.4872 43.2346 9.56415C41.1665 8.51587 40.0354 8.45739 38.0637 9.10814C36.2181 6.83485 34.8492 5.96931 32.2255 6.06808C30.6181 6.12859 29.6401 6.5142 28.3892 7.4361C27.3762 8.18265 26.3876 9.86815 26.3876 9.86815Z" fill="black" fill-opacity="0.17"/>
<path d="M38.3977 22.7882C38.3977 23.7117 37.875 24.4603 37.2301 24.4603C36.5853 24.4603 36.0625 23.7117 36.0625 22.7882C36.0625 21.8648 36.5853 21.1162 37.2301 21.1162C37.875 21.1162 38.3977 21.8648 38.3977 22.7882Z" fill="black" fill-opacity="0.48"/>
<ellipse cx="28.8893" cy="22.7882" rx="1.16761" ry="1.67203" fill="black" fill-opacity="0.48"/>
<path d="M35.6127 16.8571L35.2002 18.6649C36.6557 19.2042 37.4809 19.1622 38.9127 20.5882L39.9718 19.3886C38.5148 17.5898 37.5603 17.0357 35.6127 16.8571Z" fill="black" fill-opacity="0.48"/>
<path d="M30.5163 16.9041L30.9109 18.6762C29.4553 19.215 28.6334 19.1792 27.1933 20.5885L26.1487 19.4177C27.6172 17.6423 28.5736 17.0921 30.5163 16.9041Z" fill="black" fill-opacity="0.48"/>
<path d="M32.3927 22.7881C32.3868 24.3514 32.3121 25.2502 31.5587 27.0442C32.2174 27.5796 32.6129 27.7641 33.3936 27.8042" stroke="black" stroke-opacity="0.48"/>
<path d="M31.9092 31.7676C33.8703 30.2239 35.0817 30.0617 37.4808 31.2741" stroke="black" stroke-opacity="0.48"/>
</svg>
