<svg width="18" height="22" viewBox="0 0 18 22" fill="none" xmlns="http://www.w3.org/2000/svg">
<path d="M9 4.4V0L3.375 5.5L9 11V6.6C10.7902 6.6 12.5071 7.29536 13.773 8.5331C15.0388 9.77084 15.75 11.4496 15.75 13.2C15.75 14.9504 15.0388 16.6292 13.773 17.8669C12.5071 19.1046 10.7902 19.8 9 19.8C7.20979 19.8 5.4929 19.1046 4.22703 17.8669C2.96116 16.6292 2.25 14.9504 2.25 13.2H0C0 15.5339 0.948212 17.7722 2.63604 19.4225C4.32387 21.0729 6.61305 22 9 22C11.3869 22 13.6761 21.0729 15.364 19.4225C17.0518 17.7722 18 15.5339 18 13.2C18 10.8661 17.0518 8.62778 15.364 6.97746C13.6761 5.32714 11.3869 4.4 9 4.4V4.4Z" fill="white"/>
</svg>
