<svg width="10" height="11" viewBox="0 0 10 11" fill="none" xmlns="http://www.w3.org/2000/svg">
<path d="M4.0803 0.139648L2.15159 3.27393L5.33337 5.1652L4.90415 3.44391C5.44479 3.3531 6.00225 3.43553 6.49533 3.68283C7.04796 3.95993 7.48341 4.42564 7.72308 4.99568C7.96275 5.56525 7.99081 6.20236 7.80231 6.79102C7.61381 7.37969 7.22109 7.88173 6.69507 8.20634C6.16898 8.53141 5.54416 8.65715 4.93332 8.56168C4.32253 8.46621 3.76588 8.15604 3.36391 7.68613C2.96188 7.21669 2.74095 6.61871 2.74095 6.00023C2.74095 5.47351 2.31395 5.04645 1.78716 5.04645C1.26038 5.04645 0.833374 5.47351 0.833374 6.00023C0.833374 7.07371 1.21689 8.11133 1.91471 8.9268C2.61253 9.74181 3.57872 10.2811 4.63898 10.4464C5.69925 10.6122 6.78384 10.3933 7.697 9.82983C8.61015 9.26584 9.29185 8.39449 9.61907 7.3727C9.9463 6.35045 9.89751 5.24531 9.48145 4.25612C9.06545 3.26694 8.30965 2.45892 7.35033 1.97783C6.44981 1.52609 5.42558 1.39056 4.44181 1.58943L4.0803 0.139648Z" fill="white"/>
</svg>
