<svg width="161" height="109" viewBox="0 0 161 109" fill="none" xmlns="http://www.w3.org/2000/svg">
<path d="M20.4818 6.61523H131.437L160.961 94.8973H113.702L110.994 108.378H0.0390625L20.4818 6.61523Z" fill="var(--hot-purple)"/>
<path d="M160.96 94.8973L131.437 6.61523H20.7765H20.4912L20.3506 7.22305H131.191L113.702 94.8973H160.96Z" fill="var(--good-black)" fill-opacity="0.63"/>
<path d="M101.542 28.8555H118.451L115.336 45.5254H98.4268L101.542 28.8555Z" fill="var(--white)" fill-opacity="0.4"/>
<path d="M76.1642 28.8555H93.0732L89.9579 45.5254H73.0488L76.1642 28.8555Z" fill="var(--white)" fill-opacity="0.4"/>
<path d="M50.7863 28.8555H67.6953L64.5799 45.5254H47.6709L50.7863 28.8555Z" fill="var(--white)" fill-opacity="0.4"/>
<path d="M25.4084 28.8555H42.3174L39.202 45.5254H22.293L25.4084 28.8555Z" fill="var(--white)" fill-opacity="0.4"/>
<path d="M96.3918 52.3789H113.301L110.185 69.0488H93.2764L96.3918 52.3789Z" fill="var(--white)" fill-opacity="0.4"/>
<path d="M71.0128 52.3789H87.9219L84.8065 69.0488H67.8975L71.0128 52.3789Z" fill="var(--white)" fill-opacity="0.4"/>
<path d="M45.6359 52.3789H62.5449L59.4295 69.0488H42.5205L45.6359 52.3789Z" fill="var(--white)" fill-opacity="0.4"/>
<path d="M20.257 52.3789H37.166L34.0506 69.0488H17.1416L20.257 52.3789Z" fill="var(--white)" fill-opacity="0.4"/>
<path d="M91.5304 75.1064H108.439L105.324 91.7764H88.415L91.5304 75.1064Z" fill="var(--white)" fill-opacity="0.4"/>
<path d="M66.1515 75.1064H83.0605L79.9452 91.7764H63.0361L66.1515 75.1064Z" fill="var(--white)" fill-opacity="0.4"/>
<path d="M40.7746 75.1064H57.6836L54.5682 91.7764H37.6592L40.7746 75.1064Z" fill="var(--white)" fill-opacity="0.4"/>
<path d="M15.3957 75.1064H32.3047L29.1893 91.7764H12.2803L15.3957 75.1064Z" fill="var(--white)" fill-opacity="0.4"/>
<path d="M105.528 13.9855V7.58201C105.528 4.49915 108.027 2 111.11 2H111.867C114.532 2 116.692 4.16019 116.692 6.82493V6.82493" stroke="#646D8D" stroke-width="4" stroke-linecap="round"/>
<path d="M71.8975 13.9855V7.58201C71.8975 4.49915 74.3966 2 77.4795 2H78.2366C80.9013 2 83.0615 4.16019 83.0615 6.82493V6.82493" stroke="#646D8D" stroke-width="4" stroke-linecap="round"/>
<path d="M38.2666 13.9855V7.58201C38.2666 4.49915 40.7658 2 43.8486 2H44.6057C47.2704 2 49.4306 4.16019 49.4306 6.82493V6.82493" stroke="#646D8D" stroke-width="4" stroke-linecap="round"/>
</svg>
