<svg width="20" height="32" viewBox="0 0 20 32" fill="none" xmlns="http://www.w3.org/2000/svg">
<path d="M11.2 25.8C11.2 26.4627 10.6627 27 10 27C9.33726 27 8.8 26.4627 8.8 25.8C8.8 25.1373 9.33726 24.6 10 24.6C10.6627 24.6 11.2 25.1373 11.2 25.8Z" fill="white"/>
<path fill-rule="evenodd" clip-rule="evenodd" d="M1.5 0H18.5C19.3 0 20 0.7 20 1.5V29C20 30.6569 18.6569 32 17 32H3C1.34315 32 0 30.6569 0 29V1.5C0 0.7 0.699997 0 1.5 0ZM7.2 25.7C7.2 27.3 8.5 28.5 10 28.5C11.5 28.5 12.8 27.4 12.8 25.8C12.8 24.2 11.5 23 10 23C8.5 23 7.2 24.1 7.2 25.7ZM14.2 20.6C14.6418 20.6 15 20.2418 15 19.8C15 19.3582 14.6418 19 14.2 19H5.8C5.35817 19 5 19.3582 5 19.8C5 20.2418 5.35817 20.6 5.8 20.6H14.2ZM15.2 9.6C15.6418 9.6 16 9.24183 16 8.8C16 8.35817 15.6418 8 15.2 8H4.8C4.35817 8 4 8.35817 4 8.8C4 9.24183 4.35817 9.6 4.8 9.6H15.2ZM15.2 5.6C15.6418 5.6 16 5.24183 16 4.8C16 4.35817 15.6418 4 15.2 4H4.8C4.35817 4 4 4.35817 4 4.8C4 5.24183 4.35817 5.6 4.8 5.6H15.2Z" fill="white"/>
</svg>
