<svg width="34" height="34" viewBox="0 0 34 34" fill="none" xmlns="http://www.w3.org/2000/svg">
<path d="M29.1691 17C29.1691 17.3643 29.3041 17.7162 29.5488 17.9899L31.61 20.1496C31.8254 20.3855 31.9591 20.6824 31.992 20.9977C32.0249 21.3129 31.9554 21.6303 31.7933 21.9043L28.7396 27.0936C28.5792 27.3673 28.3349 27.5842 28.0415 27.7135C27.7482 27.8428 27.4207 27.8778 27.106 27.8135L24.2356 27.2436C23.8703 27.1695 23.4901 27.2292 23.1666 27.4116C22.8432 27.5939 22.5988 27.8863 22.4797 28.2335L21.5484 30.9781C21.446 31.276 21.2508 31.5347 20.9905 31.7177C20.7303 31.9007 20.418 31.9988 20.0979 31.998H13.9907C13.6578 32.015 13.3283 31.9246 13.0526 31.7404C12.7769 31.5563 12.5701 31.2885 12.4639 30.9781L11.5325 28.2335C11.4134 27.8863 11.1691 27.5939 10.8456 27.4116C10.5222 27.2292 10.1419 27.1695 9.77671 27.2436L6.90632 27.8135C6.59153 27.8778 6.26412 27.8428 5.97077 27.7135C5.67742 27.5842 5.4331 27.3673 5.27263 27.0936L2.21902 21.9043C2.05284 21.6334 1.97813 21.3178 2.00555 21.0026C2.03297 20.6875 2.16113 20.3889 2.3717 20.1496L4.31075 17.9899C4.55552 17.7162 4.69051 17.3643 4.69051 17C4.69051 16.6357 4.55552 16.2838 4.31075 16.0101L2.3717 13.8504C2.16113 13.6111 2.03297 13.3125 2.00555 12.9974C1.97813 12.6822 2.05284 12.3666 2.21902 12.0957L5.27263 6.90637C5.42639 6.65175 5.65341 6.44752 5.92511 6.31941C6.19681 6.1913 6.50103 6.14505 6.79944 6.18647L9.74617 6.75639C10.1114 6.83053 10.4916 6.77077 10.8151 6.58842C11.1386 6.40606 11.3829 6.11371 11.502 5.76653L12.357 3.0219C12.4632 2.71147 12.67 2.44373 12.9457 2.25958C13.2214 2.07542 13.5509 1.98497 13.8838 2.00204H19.991C20.3111 2.00123 20.6234 2.09925 20.8837 2.28226C21.1439 2.46527 21.3391 2.72401 21.4415 3.0219L22.3729 5.76653C22.4919 6.11371 22.7363 6.40606 23.0597 6.58842C23.3832 6.77077 23.7634 6.83053 24.1287 6.75639L26.9991 6.18647C27.3139 6.12222 27.6413 6.15722 27.9346 6.28649C28.228 6.41575 28.4723 6.63269 28.6328 6.90637L31.6864 12.0957C31.8485 12.3697 31.9181 12.6871 31.8852 13.0023C31.8522 13.3176 31.7185 13.6145 31.5032 13.8504L29.5488 16.0101C29.3041 16.2838 29.1691 16.6357 29.1691 17Z" stroke="white" stroke-width="3"/>
<path d="M21.928 17.0004C21.928 19.7221 19.7216 21.9285 16.9999 21.9285C14.2782 21.9285 12.0718 19.7221 12.0718 17.0004C12.0718 14.2787 14.2782 12.0723 16.9999 12.0723C19.7216 12.0723 21.928 14.2787 21.928 17.0004Z" stroke="white" stroke-width="3"/>
</svg>
