<svg width="37" height="35" viewBox="0 0 37 35" fill="none" xmlns="http://www.w3.org/2000/svg">
<path d="M31.5852 19.9857L31.6068 20.0098L33.8682 22.3793L30.4866 28.1261L27.275 27.4884L27.2698 27.4874C26.3759 27.3073 25.4443 27.4533 24.6479 27.9022C23.8491 28.3526 23.2369 29.0798 22.9369 29.9544L21.9051 32.9952H14.9807L13.9488 29.9544C13.6488 29.0798 13.0366 28.3525 12.2378 27.9022C11.4414 27.4533 10.5098 27.3073 9.61593 27.4874L9.6107 27.4884L6.39916 28.1261L3 22.3496L5.11977 19.9886L5.12235 19.9857C5.73299 19.3029 6.07463 18.4188 6.07463 17.4976C6.07463 16.5764 5.73299 15.6923 5.12235 15.0095L5.11976 15.0066L3 12.6456L6.38675 6.89022L9.58575 7.50893C10.4779 7.68737 11.4074 7.54104 12.2022 7.09298C13.001 6.64267 13.6132 5.91539 13.9132 5.04083L13.9224 5.01392L13.9309 4.98675L14.8613 2H21.7804L22.8101 5.03458L22.8122 5.04083C23.1122 5.91539 23.7244 6.64267 24.5232 7.09298C25.3197 7.542 26.2515 7.68799 27.1454 7.50777L27.1503 7.50678L30.3619 6.86914L33.7465 12.621L31.5931 15.0008L31.5852 15.0095C30.9746 15.6923 30.633 16.5764 30.633 17.4976C30.633 18.4188 30.9746 19.3029 31.5852 19.9857ZM15.286 22.0794C16.1998 22.6791 17.2704 22.9971 18.3627 22.9971C19.8266 22.9971 21.2375 22.4262 22.2833 21.3989C23.3304 20.3704 23.9252 18.9678 23.9252 17.4976C23.9252 16.4019 23.5943 15.3338 22.9785 14.4285C22.3631 13.5237 21.4921 12.8238 20.4798 12.4119C19.4678 12.0002 18.3562 11.893 17.2842 12.1024C16.2119 12.3119 15.2222 12.8299 14.4421 13.5963C13.6615 14.363 13.1258 15.3443 12.9084 16.4179C12.6909 17.4919 12.8029 18.6046 13.2285 19.6139C13.6539 20.6228 14.3719 21.4794 15.286 22.0794Z" stroke="#646D8D" stroke-width="4"/>
</svg>
