<svg width="38" height="39" viewBox="0 0 38 39" fill="none" xmlns="http://www.w3.org/2000/svg">
<path d="M5.14583 24.8333H2.22917C1.82646 24.8333 1.5 25.1131 1.5 25.4583V36.7083C1.5 37.0535 1.82646 37.3333 2.22917 37.3333H5.14583C5.54854 37.3333 5.875 37.0535 5.875 36.7083V25.4583C5.875 25.1131 5.54854 24.8333 5.14583 24.8333Z" stroke="white" stroke-width="3" stroke-linecap="round" stroke-linejoin="round"/>
<path d="M25.5625 17.3333H22.6458C22.2431 17.3333 21.9167 17.6131 21.9167 17.9583V36.7083C21.9167 37.0535 22.2431 37.3333 22.6458 37.3333H25.5625C25.9652 37.3333 26.2917 37.0535 26.2917 36.7083V17.9583C26.2917 17.6131 25.9652 17.3333 25.5625 17.3333Z" stroke="white" stroke-width="3" stroke-linecap="round" stroke-linejoin="round"/>
<path d="M35.7708 8.58331H32.8542C32.4515 8.58331 32.125 8.86314 32.125 9.20831V36.7083C32.125 37.0535 32.4515 37.3333 32.8542 37.3333H35.7708C36.1735 37.3333 36.5 37.0535 36.5 36.7083V9.20831C36.5 8.86314 36.1735 8.58331 35.7708 8.58331Z" stroke="white" stroke-width="3" stroke-linecap="round" stroke-linejoin="round"/>
<path d="M15.3542 2.33331H12.4375C12.0348 2.33331 11.7083 2.61314 11.7083 2.95831V36.7083C11.7083 37.0535 12.0348 37.3333 12.4375 37.3333H15.3542C15.7569 37.3333 16.0833 37.0535 16.0833 36.7083V2.95831C16.0833 2.61314 15.7569 2.33331 15.3542 2.33331Z" stroke="white" stroke-width="3" stroke-linecap="round" stroke-linejoin="round"/>
</svg>
