<svg width="10" height="10" viewBox="0 0 10 10" fill="none" xmlns="http://www.w3.org/2000/svg">
<path d="M9.90154 1.11063V2.82492C9.90154 2.99541 9.83438 3.15893 9.71485 3.27948C9.59531 3.40004 9.43318 3.46777 9.26413 3.46777C9.09508 3.46777 8.93295 3.40004 8.81341 3.27948C8.69388 3.15893 8.62672 2.99541 8.62672 2.82492V1.75349H5.65214V8.18206H6.71449C6.88354 8.18206 7.04567 8.24979 7.16521 8.37035C7.28475 8.49091 7.3519 8.65442 7.3519 8.82492C7.3519 8.99541 7.28475 9.15893 7.16521 9.27948C7.04567 9.40004 6.88354 9.46777 6.71449 9.46777H3.31498C3.14592 9.46777 2.9838 9.40004 2.86426 9.27948C2.74472 9.15893 2.67757 8.99541 2.67757 8.82492C2.67757 8.65442 2.74472 8.49091 2.86426 8.37035C2.9838 8.24979 3.14592 8.18206 3.31498 8.18206H4.37732V1.75349H1.40275V2.82492C1.40275 2.99541 1.33559 3.15893 1.21606 3.27948C1.09652 3.40004 0.93439 3.46777 0.765339 3.46777C0.596287 3.46777 0.43416 3.40004 0.314622 3.27948C0.195085 3.15893 0.12793 2.99541 0.12793 2.82492V1.11063C0.12793 0.940134 0.195085 0.776621 0.314622 0.656062C0.43416 0.535503 0.596287 0.467773 0.765339 0.467773H9.26413C9.43318 0.467773 9.59531 0.535503 9.71485 0.656062C9.83438 0.776621 9.90154 0.940134 9.90154 1.11063V1.11063Z" fill="white"/>
</svg>
