<svg width="8" height="10" viewBox="0 0 8 10" fill="none" xmlns="http://www.w3.org/2000/svg">
<path d="M5.64088 4.83277C6.26445 4.40206 6.70159 3.69492 6.70159 3.0392C6.70159 1.58634 5.57659 0.467773 4.13016 0.467773H0.755162C0.40159 0.467773 0.112305 0.757059 0.112305 1.11063V8.82492C0.112305 9.17849 0.40159 9.46777 0.755162 9.46777H4.47088C5.80159 9.46777 7.01659 8.38134 7.02302 7.0442C7.02945 6.06063 6.47659 5.21849 5.64088 4.83277V4.83277ZM2.04088 2.07492H3.96945C4.50302 2.07492 4.93373 2.50563 4.93373 3.0392C4.93373 3.57277 4.50302 4.00349 3.96945 4.00349H2.04088V2.07492ZM4.29088 7.86063H2.04088V5.93206H4.29088C4.82445 5.93206 5.25516 6.36277 5.25516 6.89634C5.25516 7.42992 4.82445 7.86063 4.29088 7.86063Z" fill="white"/>
</svg>
