<svg width="10" height="10" viewBox="0 0 10 10" fill="none" xmlns="http://www.w3.org/2000/svg">
<path d="M8.2553 7.75349H1.39816C0.92673 7.75349 0.541016 8.1392 0.541016 8.61063C0.541016 9.08206 0.92673 9.46777 1.39816 9.46777H8.2553C8.72673 9.46777 9.11244 9.08206 9.11244 8.61063C9.11244 8.1392 8.72673 7.75349 8.2553 7.75349ZM2.73102 6.46777C2.93673 6.46777 3.12102 6.3392 3.1853 6.14634L3.61816 4.93349H6.03959L6.46387 6.14206C6.53244 6.3392 6.71673 6.46777 6.92244 6.46777C7.26101 6.46777 7.49244 6.1292 7.37244 5.81634L5.55102 0.969202C5.43959 0.669202 5.14816 0.467773 4.82673 0.467773C4.5053 0.467773 4.21387 0.669202 4.10244 0.969202L2.28102 5.81634C2.16102 6.1292 2.39673 6.46777 2.73102 6.46777ZM4.80102 1.58206H4.85244L5.72244 4.06349H3.93102L4.80102 1.58206Z" fill="white"/>
</svg>
