<svg width="14" height="10" viewBox="0 0 14 10" fill="none" xmlns="http://www.w3.org/2000/svg">
<path d="M0.834891 9.46777C1.14346 9.46777 1.41989 9.27492 1.51632 8.98563L2.16561 7.16634H5.79775L6.43418 8.9792C6.53703 9.27492 6.81346 9.46777 7.12203 9.46777C7.62989 9.46777 7.97703 8.95992 7.79703 8.49063L5.06489 1.21992C4.89775 0.769916 4.46061 0.467773 3.97846 0.467773C3.49632 0.467773 3.05918 0.769916 2.89203 1.21992L0.159891 8.49063C-0.0201087 8.95992 0.333463 9.46777 0.834891 9.46777V9.46777ZM3.93989 2.1392H4.01703L5.32203 5.86135H2.63489L3.93989 2.1392ZM8.79989 4.96777C8.79989 4.6142 9.08918 4.32492 9.44275 4.32492H13.2999C13.6535 4.32492 13.9427 4.6142 13.9427 4.96777C13.9427 5.32134 13.6535 5.61063 13.2999 5.61063H9.44275C9.08918 5.61063 8.79989 5.32134 8.79989 4.96777Z" fill="#646D8D"/>
</svg>
