<svg width="10" height="10" viewBox="0 0 10 10" fill="none" xmlns="http://www.w3.org/2000/svg">
<path d="M8.41533 0.467773H3.71263C3.55135 0.467773 3.39667 0.527037 3.28263 0.632526C3.16859 0.738015 3.10452 0.881089 3.10452 1.03027C3.10452 1.17946 3.16859 1.32253 3.28263 1.42802C3.39667 1.53351 3.55135 1.59277 3.71263 1.59277H5.34236L2.5629 8.34277H0.631546C0.470265 8.34277 0.315591 8.40204 0.201548 8.50753C0.0875058 8.61302 0.0234375 8.75609 0.0234375 8.90527C0.0234375 9.05446 0.0875058 9.19753 0.201548 9.30302C0.315591 9.40851 0.470265 9.46777 0.631546 9.46777H5.33425C5.49553 9.46777 5.6502 9.40851 5.76425 9.30302C5.87829 9.19753 5.94236 9.05446 5.94236 8.90527C5.94236 8.75609 5.87829 8.61302 5.76425 8.50753C5.6502 8.40204 5.49553 8.34277 5.33425 8.34277H3.86506L6.64452 1.59277H8.41533C8.57661 1.59277 8.73128 1.53351 8.84533 1.42802C8.95937 1.32253 9.02344 1.17946 9.02344 1.03027C9.02344 0.881089 8.95937 0.738015 8.84533 0.632526C8.73128 0.527037 8.57661 0.467773 8.41533 0.467773V0.467773Z" fill="white"/>
</svg>
