<svg width="15" height="10" viewBox="0 0 15 10" fill="none" xmlns="http://www.w3.org/2000/svg">
<path d="M1.66595 9.46777C1.97452 9.46777 2.25095 9.27492 2.34737 8.98563L2.99666 7.16634H6.6288L7.26523 8.9792C7.36809 9.27492 7.64452 9.46777 7.95309 9.46777C8.46095 9.46777 8.80809 8.95992 8.62809 8.49063L5.89595 1.21992C5.7288 0.769916 5.29166 0.467773 4.80952 0.467773C4.32737 0.467773 3.89023 0.769916 3.72309 1.21992L0.990946 8.49063C0.810946 8.95992 1.16452 9.46777 1.66595 9.46777V9.46777ZM4.77095 2.1392H4.84809L6.15309 5.86135H3.46595L4.77095 2.1392ZM9.63095 4.96777C9.63095 4.6142 9.92023 4.32492 10.2738 4.32492H11.5595V3.0392C11.5595 2.68563 11.8488 2.39634 12.2024 2.39634C12.5559 2.39634 12.8452 2.68563 12.8452 3.0392V4.32492H14.1309C14.4845 4.32492 14.7738 4.6142 14.7738 4.96777C14.7738 5.32134 14.4845 5.61063 14.1309 5.61063H12.8452V6.89634C12.8452 7.24992 12.5559 7.5392 12.2024 7.5392C11.8488 7.5392 11.5595 7.24992 11.5595 6.89634V5.61063H10.2738C9.92023 5.61063 9.63095 5.32134 9.63095 4.96777Z" fill="#646D8D"/>
</svg>
