<svg width="13" height="10" viewBox="0 0 13 10" fill="none" xmlns="http://www.w3.org/2000/svg">
<path d="M0.12793 1.21777C0.12793 1.01886 0.203787 0.828096 0.338813 0.687443C0.473839 0.546791 0.656974 0.467773 0.84793 0.467773H11.4079C11.5989 0.467773 11.782 0.546791 11.917 0.687443C12.0521 0.828096 12.1279 1.01886 12.1279 1.21777C12.1279 1.41669 12.0521 1.60745 11.917 1.7481C11.782 1.88876 11.5989 1.96777 11.4079 1.96777H0.84793C0.656974 1.96777 0.473839 1.88876 0.338813 1.7481C0.203787 1.60745 0.12793 1.41669 0.12793 1.21777Z" fill="white"/>
<path d="M8.52793 4.46777H0.84793C0.656974 4.46777 0.473839 4.38876 0.338813 4.2481C0.203787 4.10745 0.12793 3.91669 0.12793 3.71777C0.12793 3.51886 0.203787 3.3281 0.338813 3.18744C0.473839 3.04679 0.656974 2.96777 0.84793 2.96777H8.52793C8.71889 2.96777 8.90202 3.04679 9.03705 3.18744C9.17207 3.3281 9.24793 3.51886 9.24793 3.71777C9.24793 3.91669 9.17207 4.10745 9.03705 4.2481C8.90202 4.38876 8.71889 4.46777 8.52793 4.46777Z" fill="white"/>
<path d="M0.84793 5.46777H11.4079C11.5989 5.46777 11.782 5.54679 11.917 5.68744C12.0521 5.8281 12.1279 6.01886 12.1279 6.21777C12.1279 6.41669 12.0521 6.60745 11.917 6.7481C11.782 6.88876 11.5989 6.96777 11.4079 6.96777H0.84793C0.656974 6.96777 0.473839 6.88876 0.338813 6.7481C0.203787 6.60745 0.12793 6.41669 0.12793 6.21777C0.12793 6.01886 0.203787 5.8281 0.338813 5.68744C0.473839 5.54679 0.656974 5.46777 0.84793 5.46777Z" fill="white"/>
<path d="M0.84793 7.96777H8.52793C8.71889 7.96777 8.90202 8.04679 9.03705 8.18744C9.17207 8.3281 9.24793 8.51886 9.24793 8.71777C9.24793 8.91669 9.17207 9.10745 9.03705 9.2481C8.90202 9.38876 8.71889 9.46777 8.52793 9.46777H0.84793C0.656974 9.46777 0.473839 9.38876 0.338813 9.2481C0.203787 9.10745 0.12793 8.91669 0.12793 8.71777C0.12793 8.51886 0.203787 8.3281 0.338813 8.18744C0.473839 8.04679 0.656974 7.96777 0.84793 7.96777Z" fill="white"/>
</svg>
