<svg width="8" height="10" viewBox="0 0 8 10" fill="none" xmlns="http://www.w3.org/2000/svg">
<path d="M6.41782 8.04672C6.60029 8.04681 6.77574 8.1171 6.9078 8.24302C7.03985 8.36894 7.11841 8.54084 7.12718 8.7231C7.13595 8.90536 7.07426 9.08401 6.9549 9.22203C6.83554 9.36004 6.66765 9.44685 6.48603 9.46446L6.41782 9.46777H0.733613C0.551142 9.46768 0.375699 9.3974 0.24364 9.27147C0.111581 9.14555 0.0330281 8.97365 0.0242591 8.79139C0.0154902 8.60913 0.0771772 8.43048 0.196538 8.29247C0.315898 8.15445 0.483783 8.06764 0.665402 8.05004L0.733613 8.04672H6.41782ZM5.94414 0.467773C6.12077 0.467782 6.29106 0.533578 6.42181 0.65233C6.55256 0.771082 6.63439 0.934276 6.65135 1.11009L6.65467 1.1783V4.49409C6.65529 5.30153 6.33871 6.07691 5.77313 6.65317C5.20755 7.22944 4.43822 7.56046 3.63091 7.57494C2.8236 7.58941 2.04291 7.28617 1.45703 6.73055C0.871152 6.17494 0.526981 5.4114 0.498665 4.60446L0.496771 4.49409V1.1783C0.496861 0.995829 0.567149 0.820386 0.69307 0.688327C0.818991 0.556268 0.990891 0.477715 1.17315 0.468946C1.35541 0.460177 1.53406 0.521864 1.67208 0.641225C1.81009 0.760586 1.8969 0.92847 1.91451 1.11009L1.91782 1.1783V4.49409C1.9172 4.92633 2.08541 5.34172 2.3866 5.65174C2.68779 5.96176 3.09815 6.14189 3.53023 6.15375C3.9623 6.16561 4.38193 6.00826 4.69967 5.71523C5.01742 5.4222 5.20816 5.01666 5.23124 4.58504L5.23361 4.49409V1.1783C5.23361 0.989856 5.30847 0.809131 5.44172 0.675882C5.57497 0.542632 5.7557 0.467773 5.94414 0.467773Z" fill="white"/>
</svg>
