<svg width="13" height="10" viewBox="0 0 13 10" fill="none" xmlns="http://www.w3.org/2000/svg">
<path d="M0.12793 1.21777C0.12793 1.01886 0.203787 0.828096 0.338813 0.687443C0.473839 0.546791 0.656974 0.467773 0.84793 0.467773H11.4079C11.5989 0.467773 11.782 0.546791 11.917 0.687443C12.0521 0.828096 12.1279 1.01886 12.1279 1.21777C12.1279 1.41669 12.0521 1.60745 11.917 1.7481C11.782 1.88876 11.5989 1.96777 11.4079 1.96777H0.84793C0.656974 1.96777 0.473839 1.88876 0.338813 1.7481C0.203787 1.60745 0.12793 1.41669 0.12793 1.21777Z" fill="white"/>
<path d="M9.96793 4.46777H2.28793C2.09697 4.46777 1.91384 4.38876 1.77881 4.2481C1.64379 4.10745 1.56793 3.91669 1.56793 3.71777C1.56793 3.51886 1.64379 3.3281 1.77881 3.18744C1.91384 3.04679 2.09697 2.96777 2.28793 2.96777H9.96793C10.1589 2.96777 10.342 3.04679 10.477 3.18744C10.6121 3.3281 10.6879 3.51886 10.6879 3.71777C10.6879 3.91669 10.6121 4.10745 10.477 4.2481C10.342 4.38876 10.1589 4.46777 9.96793 4.46777Z" fill="white"/>
<path d="M0.84793 5.46777H11.4079C11.5989 5.46777 11.782 5.54679 11.917 5.68744C12.0521 5.8281 12.1279 6.01886 12.1279 6.21777C12.1279 6.41669 12.0521 6.60745 11.917 6.7481C11.782 6.88876 11.5989 6.96777 11.4079 6.96777H0.84793C0.656974 6.96777 0.473839 6.88876 0.338813 6.7481C0.203787 6.60745 0.12793 6.41669 0.12793 6.21777C0.12793 6.01886 0.203787 5.8281 0.338813 5.68744C0.473839 5.54679 0.656974 5.46777 0.84793 5.46777Z" fill="white"/>
<path d="M2.28793 7.96777H9.96793C10.1589 7.96777 10.342 8.04679 10.477 8.18744C10.6121 8.3281 10.6879 8.51886 10.6879 8.71777C10.6879 8.91669 10.6121 9.10745 10.477 9.2481C10.342 9.38876 10.1589 9.46777 9.96793 9.46777H2.28793C2.09697 9.46777 1.91384 9.38876 1.77881 9.2481C1.64379 9.10745 1.56793 8.91669 1.56793 8.71777C1.56793 8.51886 1.64379 8.3281 1.77881 8.18744C1.91384 8.04679 2.09697 7.96777 2.28793 7.96777Z" fill="white"/>
</svg>
