<svg width="169" height="101" viewBox="0 0 169 101" fill="none" xmlns="http://www.w3.org/2000/svg">
<rect x="0.703125" y="0.691406" width="167.703" height="100.309" rx="8" fill="#131724"/>
<rect x="5.70312" y="5.69141" width="16.7734" height="90.3086" rx="8.38672" fill="#969FBF" fill-opacity="0.15"/>
<rect x="27.4766" y="40.4863" width="82.5293" height="20.7188" rx="4" fill="#454545"/>
<rect x="30.668" y="43.3301" width="34.7129" height="4.87891" rx="2.43945" fill="white"/>
<rect x="34.1387" y="50.8457" width="22.3027" height="1.66797" rx="0.833984" fill="#7D7F88"/>
<rect x="58.4336" y="50.8457" width="7.52344" height="1.66797" rx="0.833984" fill="#7D7F88"/>
<rect x="87.6133" y="51.8398" width="6" height="6" rx="3" fill="#FF4B59"/>
<rect x="96.7637" y="51.8398" width="6" height="6" rx="3" fill="#F2994A"/>
<rect x="78.4629" y="51.8398" width="6" height="6" rx="3" fill="#01B9CA"/>
<rect x="115.006" y="5.69141" width="48.4004" height="90.3086" rx="8" fill="#969FBF" fill-opacity="0.15"/>
<rect x="117.959" y="11.5703" width="42.4927" height="34.209" rx="8.5" stroke="black" stroke-opacity="0.13"/>
<rect x="117.959" y="51.5176" width="42.4927" height="41.291" rx="8.5" stroke="black" stroke-opacity="0.13"/>
</svg>
