<svg width="168" height="101" viewBox="0 0 168 101" fill="none" xmlns="http://www.w3.org/2000/svg">
<rect y="0.691406" width="167.703" height="100.309" rx="8" fill="#23315E"/>
<rect x="5" y="5.69141" width="16.7734" height="90.3086" rx="8.38672" fill="#344175"/>
<rect x="26.7734" y="40.4863" width="82.5293" height="20.7188" rx="4" fill="#29336A"/>
<rect x="29.9648" y="43.3301" width="34.7129" height="4.87891" rx="2.43945" fill="white"/>
<rect x="33.4355" y="50.8457" width="22.3027" height="1.66797" rx="0.833984" fill="#646D8D"/>
<rect x="57.7305" y="50.8457" width="7.52344" height="1.66797" rx="0.833984" fill="#646D8D"/>
<rect x="86.9102" y="51.8398" width="6" height="6" rx="3" fill="#FF4B59"/>
<rect x="96.0605" y="51.8398" width="6" height="6" rx="3" fill="#F2994A"/>
<rect x="77.7598" y="51.8398" width="6" height="6" rx="3" fill="#01B9CA"/>
<rect x="114.303" y="5.69141" width="48.4004" height="90.3086" rx="8" fill="#344175"/>
<rect x="117.256" y="11.5703" width="42.4927" height="34.209" rx="8.5" stroke="#3C4B7E"/>
<rect x="117.256" y="51.5176" width="42.4927" height="41.291" rx="8.5" stroke="#3C4B7E"/>
</svg>
