<svg width="4" height="14" viewBox="0 0 4 14" fill="none" xmlns="http://www.w3.org/2000/svg">
<path d="M3.5 11.7305C3.5 12.1283 3.34196 12.5098 3.06066 12.7911C2.77936 13.0724 2.39782 13.2305 2 13.2305C1.60218 13.2305 1.22064 13.0724 0.93934 12.7911C0.658035 12.5098 0.5 12.1283 0.5 11.7305C0.5 11.3326 0.658035 10.9511 0.93934 10.6698C1.22064 10.3885 1.60218 10.2305 2 10.2305C2.39782 10.2305 2.77936 10.3885 3.06066 10.6698C3.34196 10.9511 3.5 11.3326 3.5 11.7305ZM3.5 6.73047C3.5 7.12829 3.34196 7.50982 3.06066 7.79113C2.77936 8.07243 2.39782 8.23047 2 8.23047C1.60218 8.23047 1.22064 8.07243 0.93934 7.79113C0.658035 7.50982 0.5 7.12829 0.5 6.73047C0.5 6.33264 0.658035 5.95111 0.93934 5.66981C1.22064 5.3885 1.60218 5.23047 2 5.23047C2.39782 5.23047 2.77936 5.3885 3.06066 5.66981C3.34196 5.95111 3.5 6.33264 3.5 6.73047V6.73047ZM3.5 1.73047C3.5 2.12829 3.34196 2.50982 3.06066 2.79113C2.77936 3.07243 2.39782 3.23047 2 3.23047C1.60218 3.23047 1.22064 3.07243 0.93934 2.79113C0.658035 2.50982 0.5 2.12829 0.5 1.73047C0.5 1.33264 0.658035 0.951113 0.93934 0.669809C1.22064 0.388504 1.60218 0.230469 2 0.230469C2.39782 0.230469 2.77936 0.388504 3.06066 0.669809C3.34196 0.951113 3.5 1.33264 3.5 1.73047V1.73047Z" fill="white"/>
</svg>
