<svg width="6" height="7" viewBox="0 0 6 7" fill="none" xmlns="http://www.w3.org/2000/svg">
<path d="M3.00004 0.5C3.26927 0.499984 3.52831 0.59409 3.72401 0.763014C3.91971 0.931938 4.03724 1.16287 4.05248 1.40844L4.0541 1.46296H5.75683C5.81846 1.46298 5.87778 1.48437 5.92282 1.52281C5.96785 1.56124 5.99523 1.61387 5.99943 1.67004C6.00363 1.72621 5.98434 1.78175 5.94545 1.82542C5.90655 1.8691 5.85096 1.89766 5.78991 1.90533L5.75683 1.90741H5.49866L5.08352 5.76519C5.06272 5.95751 4.96777 6.13682 4.81562 6.2711C4.66347 6.40538 4.46403 6.48588 4.25292 6.49822L4.19584 6.5H1.80424C1.5926 6.49999 1.38786 6.43124 1.22661 6.30601C1.06536 6.18079 0.958104 6.00726 0.924011 5.81644L0.916552 5.76489L0.501087 1.90741H0.243246C0.184466 1.90741 0.127674 1.88796 0.0833749 1.85266C0.0390753 1.81737 0.0102644 1.76861 0.00227029 1.71541L0 1.68519C2.47881e-06 1.63149 0.0212898 1.5796 0.0599252 1.53913C0.0985606 1.49866 0.15193 1.47234 0.210165 1.46504L0.243246 1.46296H1.94597C1.94597 1.20757 2.05702 0.962636 2.2547 0.782045C2.45238 0.601455 2.72048 0.5 3.00004 0.5ZM5.0099 1.90741H0.98985L1.40077 5.72133C1.40987 5.80643 1.45092 5.88604 1.51696 5.94663C1.58299 6.00723 1.66994 6.04508 1.76305 6.05378L1.80424 6.05556H4.19584C4.39043 6.05556 4.55552 5.92963 4.59314 5.75867L4.59962 5.72133L5.00958 1.90741H5.0099ZM3.56761 2.72222C3.62639 2.72222 3.68318 2.74167 3.72748 2.77697C3.77178 2.81226 3.80059 2.86102 3.80859 2.91422L3.81086 2.94444V5.01852C3.81084 5.07482 3.78743 5.12902 3.74535 5.17016C3.70328 5.2113 3.64568 5.23632 3.58419 5.24016C3.5227 5.24399 3.46192 5.22637 3.41411 5.19083C3.3663 5.1553 3.33504 5.10452 3.32664 5.04874L3.32437 5.01852V2.94444C3.32437 2.88551 3.34999 2.82898 3.39561 2.78731C3.44123 2.74564 3.5031 2.72222 3.56761 2.72222ZM2.43246 2.72222C2.49124 2.72222 2.54803 2.74167 2.59233 2.77697C2.63663 2.81226 2.66544 2.86102 2.67344 2.91422L2.67571 2.94444V5.01852C2.67569 5.07482 2.65228 5.12902 2.6102 5.17016C2.56813 5.2113 2.51053 5.23632 2.44904 5.24016C2.38756 5.24399 2.32677 5.22637 2.27896 5.19083C2.23115 5.1553 2.19989 5.10452 2.19149 5.04874L2.18922 5.01852V2.94444C2.18922 2.88551 2.21484 2.82898 2.26046 2.78731C2.30608 2.74564 2.36795 2.72222 2.43246 2.72222ZM3.00004 0.944444C2.8576 0.944449 2.72036 0.993384 2.61558 1.08153C2.5108 1.16969 2.44613 1.29061 2.43441 1.4203L2.43246 1.46296H3.56761C3.56761 1.32544 3.50781 1.19356 3.40137 1.09632C3.29493 0.999074 3.15057 0.944444 3.00004 0.944444Z" fill="#FF4B59"/>
</svg>
