<svg width="14" height="8" viewBox="0 0 14 8" fill="none" xmlns="http://www.w3.org/2000/svg">
<path fill-rule="evenodd" clip-rule="evenodd" d="M6.45049 1.12588C6.48979 1.08598 6.53647 1.05432 6.58786 1.03272C6.63926 1.01112 6.69436 1 6.75 1C6.80564 1 6.86074 1.01112 6.91214 1.03272C6.96353 1.05432 7.01021 1.08598 7.04951 1.12588L12.1259 6.26762C12.2054 6.34808 12.25 6.4572 12.25 6.57098C12.25 6.68476 12.2054 6.79389 12.1259 6.87434C12.0465 6.9548 11.9388 7 11.8264 7C11.7141 7 11.6064 6.9548 11.5269 6.87434L6.75 2.03511L1.97308 6.87434C1.89364 6.9548 1.78591 7 1.67357 7C1.56123 7 1.4535 6.9548 1.37406 6.87434C1.29463 6.79389 1.25 6.68476 1.25 6.57098C1.25 6.4572 1.29463 6.34808 1.37406 6.26762L6.45049 1.12588V1.12588Z" stroke="#3C4B7E" stroke-width="2"/>
</svg>
