<svg width="177" height="72" viewBox="0 0 177 72" fill="none" xmlns="http://www.w3.org/2000/svg">
<path d="M7.24316 13.9821C7.24316 6.26 13.5032 0 21.2253 0H156.649C164.371 0 170.631 6.26 170.631 13.9821V40.8252H7.24316V13.9821Z" fill="#252E3E"/>
<path d="M2.67773 40.4189H174.178V49.0881H2.67773V40.4189Z" fill="#2E3A4D"/>
<path d="M2.67773 40.4189H174.178V49.0881H2.67773V40.4189Z" fill="black" fill-opacity="0.34"/>
<path d="M2.67773 50.8916H174.178V49.0849H2.67773V50.8916Z" fill="#93A3B4"/>
<path d="M58.1891 26.2477L58.1892 0.661133L60.3969 0.661138L60.3968 26.2477L58.1891 26.2477Z" fill="black" fill-opacity="0.31"/>
<path d="M170.631 35.426H6.9873V40.5773H170.631V35.426Z" fill="black" fill-opacity="0.31"/>
<path d="M118.25 0.661133L118.25 26.2477L120.457 26.2477L120.458 0.661138L118.25 0.661133Z" fill="black" fill-opacity="0.31"/>
<path d="M174.222 25.6277L170.16 23.4864C169.258 23.0105 168.173 23.665 168.173 24.6854C168.173 25.1669 168.428 25.6122 168.844 25.8553L170.673 26.9255C172.222 27.8314 173.174 29.491 173.174 31.2852V50.7026V69.4309C173.174 70.3279 173.901 71.0551 174.798 71.0551C175.695 71.0551 176.423 70.3279 176.423 69.4309V29.2765C176.423 27.7461 175.575 26.3415 174.222 25.6277Z" fill="#93A3B4"/>
<path d="M2.77748 24.9705L6.83861 22.8292C7.74122 22.3533 8.82617 23.0078 8.82617 24.0282C8.82617 24.5097 8.57073 24.955 8.15512 25.1981L6.32554 26.2683C4.77679 27.1742 3.8249 28.8338 3.8249 30.628V50.0454V68.7737C3.8249 69.6707 3.09772 70.3979 2.20069 70.3979C1.30366 70.3979 0.576476 69.6707 0.576476 68.7737V28.6192C0.576476 27.0889 1.42376 25.6843 2.77748 24.9705Z" fill="#93A3B4"/>
<path d="M57.1053 68.3726V24.6886C57.1053 23.4862 58.1472 22.5488 59.3429 22.6754C60.3728 22.7844 61.1543 23.653 61.1543 24.6886V48.681V68.3726C61.1543 69.4907 60.2479 70.3971 59.1298 70.3971C58.0117 70.3971 57.1053 69.4907 57.1053 68.3726Z" fill="#93A3B4"/>
<path d="M117.33 68.3726V24.6886C117.33 23.4862 118.372 22.5488 119.568 22.6754C120.597 22.7844 121.379 23.653 121.379 24.6886V48.681V68.3726C121.379 69.4907 120.473 70.3971 119.354 70.3971C118.236 70.3971 117.33 69.4907 117.33 68.3726Z" fill="#93A3B4"/>
</svg>
