<svg width="58" height="53" fill="none" xmlns="http://www.w3.org/2000/svg"><path d="M11.558 42.437c.55 5.921 6.104 9.573 12.99 10.387 4.637.548 9.161-.153 12.814-2.496 4.055-2.6 5.39-6.049 5.549-9.518h-8.324s.713 5.65-7.373 5.65c-8.085 0-7.213-5.65-7.213-5.65h-8.443s-.059.993 0 1.627zM44.64 10.563C44.092 4.642 38.537.99 31.652.176c-4.637-.548-9.162.153-12.814 2.496-4.056 2.6-5.39 6.049-5.55 9.518h8.325s-.714-5.65 7.372-5.65 7.214 5.65 7.214 5.65h8.443s.059-.993 0-1.627z" fill="#fff"/><path fill-rule="evenodd" clip-rule="evenodd" d="M57.395 27.913c-.648 6.043-6.019 10.936-10.98 11.22-4.963.282-15.591.282-15.591.282H24.07l13.926-25.14h6.722c3.617.126 7.212 1.184 9.924 4.4 2.442 2.895 3.154 5.5 2.753 9.238zm-6.595-.817c-.412 2.134-1.04 3.341-2.848 4.593-4.013 2.778-13.371 1.099-13.464 1.095l6.67-12.067c.056-.005 3.034-.3 4.616.157 3.16.914 5.615 3.176 5.026 6.223zM.605 25.9c.648-6.043 6.018-10.936 10.98-11.219 4.963-.283 15.591-.283 15.591-.283h6.754l-13.926 25.14h-6.722c-3.617-.126-7.212-1.184-9.924-4.4C.916 32.244.204 29.639.605 25.9zm6.595.817c.412-2.133 1.04-3.341 2.848-4.592 4.013-2.779 13.371-1.1 13.464-1.096l-6.67 12.067c-.056.006-3.034.3-4.616-.157-3.16-.914-5.615-3.175-5.026-6.222z" fill="#fff"/></svg>