<svg width="36" height="36" viewBox="0 0 36 36" fill="none" xmlns="http://www.w3.org/2000/svg">
<path d="M18 0.5C13.5137 0.512796 9.20361 2.2481 5.96 5.3475V2.25C5.96 1.78587 5.77562 1.34075 5.44744 1.01256C5.11925 0.684374 4.67413 0.5 4.21 0.5C3.74587 0.5 3.30075 0.684374 2.97256 1.01256C2.64437 1.34075 2.46 1.78587 2.46 2.25V10.125C2.46 10.5891 2.64437 11.0342 2.97256 11.3624C3.30075 11.6906 3.74587 11.875 4.21 11.875H12.085C12.5491 11.875 12.9942 11.6906 13.3224 11.3624C13.6506 11.0342 13.835 10.5891 13.835 10.125C13.835 9.66087 13.6506 9.21575 13.3224 8.88756C12.9942 8.55937 12.5491 8.375 12.085 8.375H7.885C10.1351 6.02363 13.1341 4.52964 16.3664 4.14992C19.5987 3.7702 22.8623 4.52846 25.5961 6.29433C28.3299 8.0602 30.3631 10.7233 31.3461 13.8259C32.329 16.9284 32.2004 20.2765 30.9822 23.2944C29.7641 26.3124 27.5325 28.8117 24.6713 30.3625C21.81 31.9134 18.4978 32.419 15.3042 31.7923C12.1106 31.1657 9.23506 29.4459 7.17203 26.9288C5.109 24.4117 3.98738 21.2545 4 18C4 17.5359 3.81562 17.0907 3.48744 16.7626C3.15925 16.4344 2.71413 16.25 2.25 16.25C1.78587 16.25 1.34075 16.4344 1.01256 16.7626C0.684374 17.0907 0.5 17.5359 0.5 18C0.5 21.4612 1.52636 24.8446 3.44928 27.7225C5.37221 30.6003 8.10533 32.8434 11.303 34.1679C14.5007 35.4924 18.0194 35.839 21.4141 35.1637C24.8087 34.4885 27.9269 32.8218 30.3744 30.3744C32.8218 27.9269 34.4885 24.8087 35.1637 21.4141C35.839 18.0194 35.4924 14.5007 34.1679 11.303C32.8434 8.10533 30.6003 5.37221 27.7225 3.44928C24.8446 1.52636 21.4612 0.5 18 0.5ZM18 11C17.5359 11 17.0907 11.1844 16.7626 11.5126C16.4344 11.8407 16.25 12.2859 16.25 12.75V18C16.25 18.4641 16.4344 18.9092 16.7626 19.2374C17.0907 19.5656 17.5359 19.75 18 19.75H21.5C21.9641 19.75 22.4092 19.5656 22.7374 19.2374C23.0656 18.9092 23.25 18.4641 23.25 18C23.25 17.5359 23.0656 17.0907 22.7374 16.7626C22.4092 16.4344 21.9641 16.25 21.5 16.25H19.75V12.75C19.75 12.2859 19.5656 11.8407 19.2374 11.5126C18.9092 11.1844 18.4641 11 18 11Z" fill="#646D8D"/>
</svg>
