<svg width="58" height="53" viewBox="0 0 58 53" fill="none" xmlns="http://www.w3.org/2000/svg">
<path d="M11.5578 42.4374C12.1071 48.3583 17.6624 52.0096 24.5475 52.8235C29.1846 53.3717 33.7092 52.6706 37.3615 50.3282C41.4172 47.7273 42.7521 44.2794 42.9107 40.8101L34.5869 40.8101C34.5869 40.8101 35.3004 46.4596 27.2144 46.4596C19.1285 46.4596 20.0005 40.8101 20.0005 40.8101L11.5578 40.8101C11.5578 40.8101 11.499 41.8035 11.5578 42.4374Z" fill="white"/>
<path d="M44.6407 10.5626C44.0914 4.64168 38.5361 0.99041 31.651 0.176461C27.0139 -0.371726 22.4893 0.329446 18.837 2.67176C14.7813 5.27273 13.4463 8.72056 13.2878 12.1899L21.6116 12.1899C21.6116 12.1899 20.8981 6.54043 28.984 6.54043C37.07 6.54043 36.198 12.1899 36.198 12.1899L44.6407 12.1899C44.6407 12.1899 44.6995 11.1965 44.6407 10.5626Z" fill="white"/>
<path fill-rule="evenodd" clip-rule="evenodd" d="M57.3951 27.9135C56.7475 33.9558 51.3765 38.8494 46.4144 39.1322C41.4523 39.415 30.8238 39.415 30.8238 39.415L24.0697 39.415L37.9956 14.2751L44.7177 14.2751C48.3351 14.4008 51.93 15.4592 54.6419 18.6746C57.0842 21.5702 57.7958 24.1749 57.3951 27.9135ZM50.8003 27.0965C50.3884 29.2296 49.7599 30.4373 47.9523 31.6886C43.9388 34.4671 34.5806 32.7879 34.4883 32.7844L41.1574 20.7172C41.2136 20.7116 44.1917 20.4168 45.7741 20.8743C48.9342 21.788 51.3887 24.0496 50.8003 27.0965Z" fill="white"/>
<path fill-rule="evenodd" clip-rule="evenodd" d="M0.604899 25.8997C1.25254 19.8574 6.62347 14.9638 11.5856 14.681C16.5477 14.3982 27.1762 14.3982 27.1762 14.3982L33.9303 14.3982L20.0044 39.5381H13.2823C9.66493 39.4124 6.07001 38.354 3.35807 35.1386C0.915837 32.243 0.204182 29.6383 0.604899 25.8997ZM7.19971 26.7167C7.61165 24.5835 8.2401 23.3759 10.0477 22.1246C14.0612 19.3461 23.4194 21.0253 23.5117 21.0288L16.8426 33.096C16.7864 33.1016 13.8083 33.3964 12.2259 32.9389C9.06575 32.0252 6.61135 29.7635 7.19971 26.7167Z" fill="white"/>
</svg>
