<svg width="36" height="35" viewBox="0 0 36 35" fill="none" xmlns="http://www.w3.org/2000/svg">
<path d="M32.6403 18.6548C32.3548 18.3355 32.1973 17.925 32.1973 17.5C32.1973 17.075 32.3548 16.6645 32.6403 16.3452L34.9204 13.8255C35.1716 13.5502 35.3276 13.2038 35.366 12.836C35.4044 12.4682 35.3232 12.0979 35.1341 11.7783L31.5716 5.7241C31.3843 5.40481 31.0993 5.15171 30.7571 5.0009C30.4148 4.85009 30.0329 4.80925 29.6656 4.88422L26.3168 5.54913C25.8907 5.63561 25.4471 5.5659 25.0697 5.35315C24.6923 5.1404 24.4073 4.79932 24.2683 4.39428L23.1818 1.19222C23.0623 0.844678 22.8346 0.54282 22.5309 0.329309C22.2273 0.115797 21.863 0.0014327 21.4895 0.0023796H14.3645C13.976 -0.0175363 13.5916 0.0879891 13.27 0.302838C12.9483 0.517688 12.7071 0.830051 12.5832 1.19222L11.5857 4.39428C11.4467 4.79932 11.1617 5.1404 10.7843 5.35315C10.4069 5.5659 9.96332 5.63561 9.5372 5.54913L6.09935 4.88422C5.7512 4.83589 5.39628 4.88985 5.07929 5.03931C4.76231 5.18877 4.49745 5.42704 4.31807 5.7241L0.755525 11.7783C0.561652 12.0944 0.47448 12.4626 0.506472 12.8303C0.538465 13.198 0.687984 13.5463 0.933652 13.8255L3.19587 16.3452C3.48144 16.6645 3.63893 17.075 3.63893 17.5C3.63893 17.925 3.48144 18.3355 3.19587 18.6548L0.933652 21.1745C0.687984 21.4537 0.538465 21.802 0.506472 22.1697C0.47448 22.5374 0.561652 22.9056 0.755525 23.2217L4.31807 29.2759C4.50528 29.5952 4.79032 29.8483 5.13256 29.9991C5.47481 30.1499 5.85678 30.1907 6.22404 30.1158L9.57283 29.4509C9.99894 29.3644 10.4425 29.4341 10.8199 29.6468C11.1973 29.8596 11.4824 30.2007 11.6213 30.6057L12.7079 33.8078C12.8318 34.1699 13.073 34.4823 13.3947 34.6972C13.7163 34.912 14.1007 35.0175 14.4891 34.9976H21.6142C21.9877 34.9986 22.352 34.8842 22.6556 34.6707C22.9593 34.4572 23.187 34.1553 23.3064 33.8078L24.393 30.6057C24.532 30.2007 24.817 29.8596 25.1944 29.6468C25.5718 29.4341 26.0154 29.3644 26.4415 29.4509L29.7903 30.1158C30.1575 30.1907 30.5395 30.1499 30.8818 29.9991C31.224 29.8483 31.509 29.5952 31.6963 29.2759L35.2588 23.2217C35.4479 22.9021 35.5291 22.5318 35.4907 22.164C35.4523 21.7962 35.2963 21.4498 35.045 21.1745L32.6403 18.6548ZM29.9862 20.9995L31.4112 22.5743L29.1312 26.4588L27.0293 26.0388C25.7464 25.7812 24.4119 25.9953 23.279 26.6404C22.1462 27.2855 21.2939 28.3168 20.8839 29.5384L20.207 31.4981H15.647L15.0057 29.5034C14.5958 28.2818 13.7435 27.2505 12.6106 26.6054C11.4778 25.9603 10.1432 25.7462 8.86032 26.0038L6.75842 26.4238L4.44276 22.5568L5.86778 20.982C6.74409 20.0196 7.22855 18.7737 7.22855 17.4825C7.22855 16.1913 6.74409 14.9454 5.86778 13.983L4.44276 12.4082L6.72279 8.55872L8.82469 8.97866C10.1076 9.23626 11.4421 9.02219 12.575 8.37709C13.7078 7.73198 14.5601 6.70075 14.9701 5.47914L15.647 3.5019H20.207L20.8839 5.49663C21.2939 6.71824 22.1462 7.74948 23.279 8.39459C24.4119 9.03969 25.7464 9.25376 27.0293 8.99616L29.1312 8.57621L31.4112 12.4607L29.9862 14.0355C29.1198 14.9957 28.6413 16.2344 28.6413 17.5175C28.6413 18.8006 29.1198 20.0393 29.9862 20.9995ZM17.927 10.501C16.5178 10.501 15.1402 10.9114 13.9685 11.6805C12.7968 12.4496 11.8836 13.5427 11.3443 14.8216C10.805 16.1005 10.6639 17.5078 10.9388 18.8654C11.2137 20.2231 11.8923 21.4702 12.8888 22.4491C13.8853 23.4279 15.1548 24.0945 16.537 24.3646C17.9191 24.6346 19.3517 24.496 20.6537 23.9663C21.9556 23.4365 23.0684 22.5394 23.8513 21.3885C24.6342 20.2375 25.0521 18.8843 25.0521 17.5C25.0521 15.6437 24.3014 13.8635 22.9652 12.5509C21.629 11.2383 19.8167 10.501 17.927 10.501ZM17.927 20.9995C17.2224 20.9995 16.5336 20.7943 15.9478 20.4097C15.3619 20.0252 14.9053 19.4787 14.6356 18.8392C14.366 18.1998 14.2954 17.4961 14.4329 16.8173C14.5704 16.1384 14.9097 15.5149 15.4079 15.0255C15.9061 14.536 16.5409 14.2027 17.232 14.0677C17.9231 13.9327 18.6394 14.002 19.2903 14.2669C19.9413 14.5317 20.4977 14.9803 20.8892 15.5558C21.2806 16.1313 21.4895 16.8079 21.4895 17.5C21.4895 18.4281 21.1142 19.3182 20.4461 19.9745C19.778 20.6308 18.8719 20.9995 17.927 20.9995Z" fill="#646D8D"/>
</svg>
